<?xml version="1.0" encoding="utf-8"?>
<!-- Generator: Adobe Illustrator 27.0.0, SVG Export Plug-In . SVG Version: 6.00 Build 0)  -->
<svg version="1.1" id="Layer_2_00000116919953427802558390000002495864975456220346_"
	 xmlns="http://www.w3.org/2000/svg" xmlns:xlink="http://www.w3.org/1999/xlink" x="0px" y="0px" viewBox="0 0 145.2 58.4"
	 style="enable-background:new 0 0 145.2 58.4;" xml:space="preserve">
<style type="text/css">
	.st0{fill:#F9FF80;}
	.st1{fill:url(#SVGID_1_);}
	.st2{fill:url(#SVGID_00000160912877217930432420000017932564304670022311_);}
	.st3{fill:url(#SVGID_00000152258358982808538030000002421237446479462327_);}
	.st4{fill:#FFFFAC;}
	.st5{fill:none;stroke:#FFC900;stroke-width:0.3;stroke-miterlimit:10;}
	.st6{fill:#F8F8F8;}
	.st7{fill:#FFFFFF;}
	.st8{fill:url(#SVGID_00000163774807695836083910000017190096433318613127_);}
	.st9{fill:url(#SVGID_00000117662800968036858520000017684907423826469040_);}
	.st10{fill:url(#SVGID_00000148642682839849459700000008964018263803373476_);}
	.st11{fill:url(#SVGID_00000049903396278248686740000010423372559981141126_);}
	.st12{fill:url(#SVGID_00000003806589163423930240000001534621969075493002_);}
	.st13{fill:url(#SVGID_00000119080117819253188170000003828543555360674239_);}
	.st14{fill:url(#SVGID_00000076590503664543718740000008135968805160847488_);}
	.st15{fill:url(#SVGID_00000080902433692677818090000008002065104593824645_);}
	.st16{fill:url(#SVGID_00000067932729454060353530000001179242265926519991_);}
	.st17{fill:url(#SVGID_00000010311082316772436240000018325696118650206345_);}
	.st18{fill:url(#SVGID_00000182501458433736139380000006296561911252529086_);}
	.st19{fill:url(#SVGID_00000025401811521299756400000001377112052578757540_);}
	.st20{fill:url(#SVGID_00000142897014234217294460000004009094422545571723_);}
	.st21{fill:url(#SVGID_00000108268426252384528030000006759028709870953361_);}
	.st22{fill:url(#SVGID_00000116219215185289114060000002284721320930539420_);}
	.st23{fill:url(#SVGID_00000141429296439820087330000015038774858481969552_);}
	.st24{fill:url(#SVGID_00000152254043658190261270000016864831348945329034_);}
	.st25{fill:url(#SVGID_00000001654326503847129910000002957981114073402021_);}
	.st26{fill:url(#SVGID_00000024715469096354147160000007486429394528107698_);}
	.st27{fill:url(#SVGID_00000076578143015933428060000001401677592980996530_);}
	.st28{fill:url(#SVGID_00000125598036703776006360000016644165857282710963_);}
	.st29{fill:url(#SVGID_00000065046503994304950340000003714671872374667689_);}
	.st30{fill:url(#SVGID_00000074407852232101169800000003816895865046746033_);}
	.st31{fill:url(#SVGID_00000112604756107714200010000004393996417892129180_);}
	.st32{opacity:0.28;fill:url(#SVGID_00000181773345958642874710000006983540905144932747_);enable-background:new    ;}
	.st33{opacity:0.28;fill:url(#SVGID_00000049196807726018724880000010210892339524718249_);enable-background:new    ;}
	.st34{opacity:0.28;fill:url(#SVGID_00000103245926143027256440000012107096966932826520_);enable-background:new    ;}
	.st35{opacity:0.28;fill:url(#SVGID_00000041990941900070466820000012914562146252878505_);enable-background:new    ;}
	.st36{opacity:0.28;fill:url(#SVGID_00000034055408522766027500000016733894109785235352_);enable-background:new    ;}
	.st37{opacity:0.28;fill:url(#SVGID_00000066491217615007354730000006202505758462827951_);enable-background:new    ;}
	.st38{opacity:0.28;fill:url(#SVGID_00000182488214528979951550000010109147450230472097_);enable-background:new    ;}
	.st39{opacity:0.28;fill:url(#SVGID_00000029028695864277851490000012420976468654810262_);enable-background:new    ;}
	.st40{display:none;fill:#F8F8F8;}
	.st41{fill:#FC5B68;}
	.st42{fill:#25D9B9;}
	.st43{fill:#9580FF;}
	.st44{fill:#6F5AD9;}
	.st45{fill:#D63542;}
	.st46{fill:#00B393;}
</style>
<g>
	<path class="st0" d="M57.8,13.3c0,0-8.5,0.3-9.6,5.8c0,0.2-0.2,0.4-0.4,0.4c-1.3,0.4-6.6,1.7-11.4,2.5c-0.2,0-0.4,0-0.6-0.1
		c-3.8-0.8-1.1-7.2-11.6-9.3c0,0,6.1-3.5,12,0.3c0,0-0.6-8.2,10.2-9.1c0,0-3.8,3.6-1.8,8.5C44.7,12.4,50.3,6.9,57.8,13.3z"/>
	
		<linearGradient id="SVGID_1_" gradientUnits="userSpaceOnUse" x1="41" y1="-463.7318" x2="41" y2="-445.64" gradientTransform="matrix(1 0 0 -1 0 -441.68)">
		<stop  offset="0" style="stop-color:#FFC900"/>
		<stop  offset="1" style="stop-color:#FFC900;stop-opacity:0"/>
	</linearGradient>
	<path class="st1" d="M57.8,13.3c0,0-8.5,0.3-9.6,5.8c0,0.2-0.2,0.4-0.4,0.4c-1.3,0.4-6.6,1.7-11.4,2.5c-0.2,0-0.4,0-0.6-0.1
		c-3.8-0.8-1.1-7.2-11.6-9.3c0,0,6.1-3.5,12,0.3c0,0-0.6-8.2,10.2-9.1c0,0-3.8,3.6-1.8,8.5C44.7,12.4,50.3,6.9,57.8,13.3z"/>
	
		<linearGradient id="SVGID_00000153693329860308757000000017860542525305886853_" gradientUnits="userSpaceOnUse" x1="41" y1="-445.64" x2="41" y2="-463.7318" gradientTransform="matrix(1 0 0 -1 0 -441.68)">
		<stop  offset="0" style="stop-color:#F9FF7C"/>
		<stop  offset="0.34" style="stop-color:#F9FF7A;stop-opacity:0"/>
	</linearGradient>
	<path style="fill:url(#SVGID_00000153693329860308757000000017860542525305886853_);" d="M57.8,13.3c0,0-8.5,0.3-9.6,5.8
		c0,0.2-0.2,0.4-0.4,0.4c-1.3,0.4-6.6,1.7-11.4,2.5c-0.2,0-0.4,0-0.6-0.1c-3.8-0.8-1.1-7.2-11.6-9.3c0,0,6.1-3.5,12,0.3
		c0,0-0.6-8.2,10.2-9.1c0,0-3.8,3.6-1.8,8.5C44.7,12.4,50.3,6.9,57.8,13.3z"/>
	
		<linearGradient id="SVGID_00000104666152700870743080000012698686081593495707_" gradientUnits="userSpaceOnUse" x1="33.76" y1="-458.4065" x2="57.85" y2="-458.4065" gradientTransform="matrix(1 0 0 -1 0 -441.68)">
		<stop  offset="0" style="stop-color:#FF9F00"/>
		<stop  offset="1" style="stop-color:#FF9F00;stop-opacity:0"/>
	</linearGradient>
	<path style="fill:url(#SVGID_00000104666152700870743080000012698686081593495707_);" d="M57.8,13.3c0,0-8.5,0.3-9.6,5.8
		c0,0.2-0.2,0.4-0.4,0.4c-1.3,0.4-6.6,1.7-11.4,2.5c-0.2,0-0.4,0-0.6-0.1c-1.1-0.2-1.7-1-2.2-1.9c2.7-1.1,6.6-0.5,9.5-1.8
		c4.6-2,2.6-7.3,12.1-6.7C56.2,12,57,12.6,57.8,13.3L57.8,13.3z"/>
	<path class="st4" d="M43.4,4.6c0,0-5.3,0.8-5.2,5.3c0.1,4.4,3.3,2,3.2,0.2C41.3,8.9,42.1,5.2,43.4,4.6L43.4,4.6z"/>
	<path class="st4" d="M46.1,12.1c0,0,0.4-2,4.8-1.7c0,0-2.3,0.9-3.3,1.7C46.9,12.7,46.2,13,46.1,12.1z"/>
	<path class="st4" d="M28.5,11.6c0,0,2.7-0.8,5.5,0.6c1.7,0.8,1.9,2.6,1,2.9C33.2,15.6,32.1,12.8,28.5,11.6L28.5,11.6z"/>
	<path class="st5" d="M57.8,13.3c0,0-8.5,0.3-9.6,5.8c0,0.2-0.2,0.4-0.4,0.4c-1.3,0.4-6.6,1.7-11.4,2.5c-0.2,0-0.4,0-0.6-0.1
		c-3.8-0.8-1.1-7.2-11.6-9.3c0,0,6.1-3.5,12,0.3c0,0-0.6-8.2,10.2-9.1c0,0-3.8,3.6-1.8,8.5C44.7,12.4,50.3,6.9,57.8,13.3z"/>
</g>
<circle class="st6" cx="48.1" cy="2.8" r="2.5"/>
<circle class="st6" cx="59.5" cy="12.9" r="2.5"/>
<circle class="st6" cx="22.7" cy="12.3" r="2.5"/>
<path class="st7" d="M59.5,15.6c-1.5,0-2.7-1.2-2.7-2.7s1.2-2.7,2.7-2.7s2.7,1.2,2.7,2.7S60.9,15.6,59.5,15.6z M59.5,10.6
	c-1.3,0-2.3,1-2.3,2.3s1,2.3,2.3,2.3s2.3-1,2.3-2.3S60.7,10.6,59.5,10.6z"/>
<path class="st7" d="M22.7,15c-1.5,0-2.7-1.2-2.7-2.7s1.2-2.7,2.7-2.7s2.7,1.2,2.7,2.7S24.2,15,22.7,15z M22.7,10.1
	c-1.3,0-2.3,1-2.3,2.3s1,2.3,2.3,2.3s2.3-1,2.3-2.3S23.9,10.1,22.7,10.1z"/>
<g>
	<path class="st0" d="M27.2,37.9l-6.8,0.3c-0.4,0-0.6,0.3-0.6,0.6c0.1,1.5-0.9,5-4.9,4.6c-5.6-0.5-8.5-6.5-4.9-13.1
		c3.4-6.2,11.5-6,11.5-2.2c0,0.4,0.3,0.6,0.6,0.6l6.4,0.1c0.3,0,0.6-0.2,0.6-0.5c0.3-2.1,0.5-9.8-10.6-10.8
		C5.9,16.2,1.1,28.4,0.3,34.2c-0.8,6.5,1.3,15.9,12.4,17.3c11.3,1.3,15.3-7,15.1-13C27.9,38.1,27.6,37.9,27.2,37.9L27.2,37.9z"/>
	<path class="st0" d="M45.3,49.1c-0.6-1.3-1.1-4.1-1.1-4.1l-2.5-19c-0.1-0.4-0.5-0.7-0.9-0.6l-6.5,1.3c-0.3,0.1-0.5,0.3-0.6,0.6
		c-0.5,2.4-3,13.4-4.4,17.9c-0.9,3.1-1.7,4.7-2.1,5.5c-0.2,0.3,0,0.7,0.4,0.7c2.8,0.1,5.2-0.1,6.3-0.2c0.3,0,0.5-0.3,0.4-0.5
		c-0.3-1.1,0.1-3.4,0.2-4.5c0.1-0.3,0.3-0.6,0.7-0.7l1.9-0.3c0.5-0.1,0.9,0.3,0.9,0.7c0.2,2.4,0.1,3.7,0,4.4
		c-0.1,0.3,0.2,0.5,0.5,0.5c3-0.2,5-0.8,6.5-1C45.3,49.8,45.4,49.4,45.3,49.1z M37.2,39L36,39.1c-0.3,0-0.5-0.2-0.5-0.5
		c0.2-1.4,1-5,1.2-5.2c0.3-0.2,0.5,1.2,0.8,5C37.6,38.7,37.5,39,37.2,39z"/>
	<path class="st0" d="M128.9,39.1c-0.4-1.6-0.8-4.4-0.8-4.4l-0.6-17.5c0-0.4-0.2-0.7-0.6-0.9c-1.2-0.5-4.1-1.6-6.5-1.8
		c-0.4,0-0.8,0.2-1,0.7c-0.8,2.8-4.3,13-5.9,17.4c-0.8,2.2-1.4,3.4-1.8,4c-0.2,0.3,0,0.7,0.4,0.7c2.2,0.1,4.8,0.3,6,0.5
		c0.3,0,0.6-0.2,0.5-0.5c-0.1-1,0.3-2.7,0.6-3.5c0.1-0.3,0.4-0.5,0.7-0.5c0.6,0.1,1.4,0.1,2,0.2c0.4,0,0.7,0.4,0.6,0.8
		c-0.2,1.9-0.4,2.9-0.6,3.4c-0.1,0.3,0.1,0.6,0.4,0.6c2.7,0.3,4.8,0.9,6,1.3C128.7,39.8,129.1,39.5,128.9,39.1L128.9,39.1z
		 M122.6,27.4c0,0.2-0.2,0.4-0.4,0.4H121c-0.3,0-0.5-0.3-0.4-0.5c0.4-1.4,1.4-5.1,1.7-5C122.5,22.2,122.9,23.6,122.6,27.4
		L122.6,27.4z"/>
	<path class="st0" d="M63.3,45.3c-1-0.9-3-3.5-6-9.8c0-0.1,0-0.2,0.1-0.3c0.8-0.6,4.5-3.9,2.3-8.8c-2.2-5.1-10.3-3.5-13.8-1.6
		c-0.2,0.1-0.3,0.4-0.2,0.7c0.3,0.4,0.7,1.5,0.9,4.2c0.4,4.6,1.6,15.6,0.8,18.9c-0.1,0.3,0.3,0.6,0.6,0.6c3.4-0.6,4.4-0.9,7-1.5
		c0.3-0.1,0.3-0.3,0.2-0.5c-0.7-0.8-1.8-2.8-2.2-7.2c0-0.2,0.2-0.3,0.4-0.2c1.1,1.3,3.9,4.9,3.9,6.9c0,0.3,0.2,0.5,0.5,0.4
		c1-0.2,3.1-0.6,5.4-1.2C63.5,45.9,63.6,45.5,63.3,45.3L63.3,45.3z M52.1,33.3c-0.2,0.1-0.3,0-0.3-0.2L51.4,28c0-0.1,0-0.2,0.1-0.2
		c0.4-0.2,1.9-0.6,2.7,0.9C55.3,30.4,54.1,32.2,52.1,33.3L52.1,33.3z"/>
	<path class="st0" d="M67.2,45c-0.3,0.1-0.6-0.2-0.6-0.5c0.1-0.5,0.1-0.8-0.2-2.2c-0.8-3.5-4.1-17.9-4.1-17.9s-0.3-1.5-1.1-2.1
		c-0.2-0.1-0.1-0.4,0.1-0.4l5.9-1.4c0.4-0.1,0.8,0.1,1.1,0.4l6.4,8.6c0.2,0.2,0.4,0.1,0.4-0.1c-0.3-2.3-1.4-8.6-2.3-10
		c-0.1-0.1,0-0.3,0.1-0.3l7.2-1.9c0.2,0,0.3,0.1,0.3,0.2c-0.1,0.7-0.3,2.5,0.4,6.7c0.8,5.1,1.6,13.1,2.8,15.1c0.2,0.2,0,0.5-0.2,0.6
		L77,42c-0.1,0-0.2,0-0.2-0.1l-6.1-8.3c-0.2-0.2-0.4-0.1-0.4,0.2l1.9,7.5c0,0,0.2,0.8,0.8,1.5c0.2,0.2,0.1,0.6-0.2,0.7L67.2,45
		L67.2,45z"/>
	<path class="st0" d="M82.6,16.3c1.3-0.3,5.7-1.3,8.6-1.6c0.2,0,0.3,0.1,0.2,0.3c-0.2,0.4-0.4,1.3-0.2,2.3
		c0.3,1.5,3.2,18.4,3.2,18.4s0.1,0.6,0.5,1.2c0.2,0.3,0,0.7-0.3,0.8c-1.8,0.3-5.3,0.9-7.4,1.3c-0.3,0.1-0.7-0.2-0.6-0.6
		s0.2-0.9,0.2-1.5c0-2.4-3.4-17.9-3.4-17.9s-0.2-1.5-0.9-2.4C82.4,16.5,82.4,16.3,82.6,16.3L82.6,16.3z"/>
	<path class="st0" d="M94.8,14.2c1.4-0.2,4.3-0.6,6.4-0.5c0.1,0,0.2,0.1,0.2,0.3s-0.1,0.7,0.1,1.7c0.2,1.5,1.8,8.6,2.4,11.2
		c0.1,0.2,0.4,0.2,0.4,0L107,15c0,0,0.2-0.7,0-1.2c0-0.1,0.1-0.3,0.2-0.3c0.9-0.1,3.7-0.1,6,0.2c0.3,0.1,0.5,0.4,0.3,0.7
		c-0.4,0.6-0.8,1.6-1,2.9c-0.3,1.9-4.2,17.5-4.6,19.4c0,0.1-0.1,0.2-0.2,0.2c-0.7-0.1-3.6-0.2-7.3,0.1c-0.1,0-0.2-0.1-0.2-0.2
		C99.8,35,96,19.2,95.1,16.4c-0.2-0.7-0.5-1.1-0.6-1.5C94.3,14.7,94.4,14.2,94.8,14.2L94.8,14.2z"/>
	<path class="st0" d="M131.5,18.9l5.4,2.3c0.7,0.3,1.1,0.9,1.1,1.6c0.1,3.3,0.3,12.6,0.3,15c0,0.1,0.1,0.2,0.1,0.2
		c0.8,0.3,4.6,2,5.1,2c0.2,0,0.4-0.1,0.6-0.1c0.4-0.2,0.9,0.2,0.9,0.6l-0.2,5.7c0,0.5-0.6,0.9-1.1,0.6c-2.7-1.3-10.1-4.8-12.4-5.3
		c-0.1,0-0.2-0.2-0.1-0.3c0.1-0.4,0.4-1.2,0.4-2.5c0.1-1.9-0.2-17.3-0.2-17.3s0-1.2-0.2-2.1C131.1,19,131.3,18.8,131.5,18.9
		L131.5,18.9z"/>
	
		<linearGradient id="SVGID_00000013876103178746000490000017068266135633722260_" gradientUnits="userSpaceOnUse" x1="100.393" y1="-463.6019" x2="100.393" y2="-428.9909" gradientTransform="matrix(0.99 0.1411 0.1411 -0.99 -21.9681 -421.7275)">
		<stop  offset="0" style="stop-color:#FFC900"/>
		<stop  offset="1" style="stop-color:#FFC900;stop-opacity:0"/>
	</linearGradient>
	<path style="fill:url(#SVGID_00000013876103178746000490000017068266135633722260_);" d="M27.2,37.9l-6.8,0.3
		c-0.4,0-0.6,0.3-0.6,0.6c0.1,1.5-0.9,5-4.9,4.6c-5.6-0.5-8.5-6.5-4.9-13.1c3.4-6.2,11.5-6,11.5-2.2c0,0.4,0.3,0.6,0.6,0.6l6.4,0.1
		c0.3,0,0.6-0.2,0.6-0.5c0.3-2.1,0.5-9.8-10.6-10.8C5.9,16.2,1.1,28.4,0.3,34.2c-0.8,6.5,1.3,15.9,12.4,17.3
		c11.3,1.3,15.3-7,15.1-13C27.9,38.1,27.6,37.9,27.2,37.9L27.2,37.9z"/>
	
		<linearGradient id="SVGID_00000001640238194217298400000002920406700642138538_" gradientUnits="userSpaceOnUse" x1="113.5894" y1="-475.1879" x2="113.5894" y2="-447.737" gradientTransform="matrix(0.9921 0.1253 0.1253 -0.9921 -17.2047 -433.2702)">
		<stop  offset="0" style="stop-color:#FFC900"/>
		<stop  offset="1" style="stop-color:#FFC900;stop-opacity:0"/>
	</linearGradient>
	<path style="fill:url(#SVGID_00000001640238194217298400000002920406700642138538_);" d="M45.3,49.1c-0.6-1.3-1.1-4.1-1.1-4.1
		l-2.5-19c-0.1-0.4-0.5-0.7-0.9-0.6l-6.5,1.3c-0.3,0.1-0.5,0.3-0.6,0.6c-0.5,2.4-3,13.4-4.4,17.9c-0.9,3.1-1.7,4.7-2.1,5.5
		c-0.2,0.3,0,0.7,0.4,0.7c2.8,0.1,5.2-0.1,6.3-0.2c0.3,0,0.5-0.3,0.4-0.5c-0.3-1.1,0.1-3.4,0.2-4.5c0.1-0.3,0.3-0.6,0.7-0.7l1.9-0.3
		c0.5-0.1,0.9,0.3,0.9,0.7c0.2,2.4,0.1,3.7,0,4.4c-0.1,0.3,0.2,0.5,0.5,0.5c3-0.2,5.5-0.8,6.5-1C45.3,49.8,45.4,49.4,45.3,49.1z
		 M37.2,39L36,39.1c-0.3,0-0.5-0.2-0.5-0.5c0.2-1.4,1-5,1.2-5.2c0.3-0.2,0.5,1.2,0.8,5C37.6,38.7,37.5,39,37.2,39z"/>
	
		<linearGradient id="SVGID_00000183237757027221676210000016682091407530327196_" gradientUnits="userSpaceOnUse" x1="120.1474" y1="-481.2557" x2="120.1474" y2="-456.2076" gradientTransform="matrix(1 0 0 -1 0.14 -441.55)">
		<stop  offset="0" style="stop-color:#FFC900"/>
		<stop  offset="1" style="stop-color:#FFC900;stop-opacity:0"/>
	</linearGradient>
	<path style="fill:url(#SVGID_00000183237757027221676210000016682091407530327196_);" d="M128.9,39.1c-0.4-1.6-0.8-4.4-0.8-4.4
		l-0.6-17.5c0-0.4-0.2-0.7-0.6-0.9c-1.2-0.5-4.1-1.6-6.5-1.8c-0.4,0-0.8,0.2-1,0.7c-0.8,2.8-4.3,13-5.9,17.4c-0.8,2.2-1.4,3.4-1.8,4
		c-0.2,0.3,0,0.7,0.4,0.7c2.2,0.1,4.8,0.3,6,0.5c0.3,0,0.6-0.2,0.5-0.5c-0.1-1,0.3-2.7,0.6-3.5c0.1-0.3,0.4-0.5,0.7-0.5
		c0.6,0.1,1.4,0.1,2,0.2c0.4,0,0.7,0.4,0.6,0.8c-0.2,1.9-0.4,2.9-0.6,3.4c-0.1,0.3,0.1,0.6,0.4,0.6c2.7,0.3,4.8,0.9,6,1.3
		C128.7,39.8,129.1,39.5,128.9,39.1L128.9,39.1z M122.6,27.4c0,0.2-0.2,0.4-0.4,0.4H121c-0.3,0-0.5-0.3-0.4-0.5
		c0.4-1.4,1.4-5.1,1.7-5C122.5,22.2,122.9,23.6,122.6,27.4L122.6,27.4z"/>
	
		<linearGradient id="SVGID_00000016788244958984911000000011205025654332357532_" gradientUnits="userSpaceOnUse" x1="105.0969" y1="-483.2922" x2="105.0969" y2="-456.6733" gradientTransform="matrix(0.9965 8.333000e-02 8.333000e-02 -0.9965 -11.0785 -440.6606)">
		<stop  offset="0" style="stop-color:#FFC900"/>
		<stop  offset="1" style="stop-color:#FFC900;stop-opacity:0"/>
	</linearGradient>
	<path style="fill:url(#SVGID_00000016788244958984911000000011205025654332357532_);" d="M63.3,45.3c-1-0.9-3-3.5-6-9.8
		c0-0.1,0-0.2,0.1-0.3c0.8-0.6,4.5-3.9,2.3-8.8c-2.2-5.1-10.3-3.5-13.8-1.6c-0.2,0.1-0.3,0.4-0.2,0.7c0.3,0.4,0.7,1.5,0.9,4.2
		c0.4,4.6,1.6,15.6,0.8,18.9c-0.1,0.3,0.3,0.6,0.6,0.6c2-0.3,4.7-0.9,7-1.5c0.3-0.1,0.3-0.3,0.2-0.5c-0.7-0.8-1.8-2.8-2.2-7.2
		c0-0.2,0.2-0.3,0.4-0.2c1.1,1.3,3.9,4.9,3.9,6.9c0,0.3,0.2,0.5,0.5,0.4c1-0.2,3.1-0.6,5.4-1.2C63.5,45.9,63.6,45.5,63.3,45.3
		L63.3,45.3z M52.1,33.3c-0.2,0.1-0.3,0-0.3-0.2L51.4,28c0-0.1,0-0.2,0.1-0.2c0.4-0.2,1.9-0.6,2.7,0.9
		C55.3,30.4,54.1,32.2,52.1,33.3L52.1,33.3z"/>
	
		<linearGradient id="SVGID_00000093866417799610274260000012319046088780172172_" gradientUnits="userSpaceOnUse" x1="72.3169" y1="-486.4891" x2="72.3169" y2="-458.7591" gradientTransform="matrix(1 0 0 -1 7.000000e-02 -441.42)">
		<stop  offset="0" style="stop-color:#FFC900"/>
		<stop  offset="1" style="stop-color:#FFC900;stop-opacity:0"/>
	</linearGradient>
	<path style="fill:url(#SVGID_00000093866417799610274260000012319046088780172172_);" d="M67.2,45c-0.3,0.1-0.6-0.2-0.6-0.5
		c0.1-0.5,0.1-0.8-0.2-2.2c-0.8-3.5-4.1-17.9-4.1-17.9s-0.3-1.5-1.1-2.1c-0.2-0.1-0.1-0.4,0.1-0.4l5.9-1.4c0.4-0.1,0.8,0.1,1.1,0.4
		l6.4,8.6c0.2,0.2,0.4,0.1,0.4-0.1c-0.3-2.3-1.4-8.6-2.3-10c-0.1-0.1,0-0.3,0.1-0.3l7.2-1.9c0.2,0,0.3,0.1,0.3,0.2
		c-0.1,0.7-0.3,2.5,0.4,6.7c0.8,5.1,1.6,13.1,2.8,15.1c0.2,0.2,0,0.5-0.2,0.6L77,42c-0.1,0-0.2,0-0.2-0.1l-6.1-8.3
		c-0.2-0.2-0.4-0.1-0.4,0.2l1.9,7.5c0,0,0.2,0.8,0.8,1.5c0.2,0.2,0.1,0.6-0.2,0.7L67.2,45L67.2,45z"/>
	
		<linearGradient id="SVGID_00000181779270175536397690000006654307348216225200_" gradientUnits="userSpaceOnUse" x1="88.7074" y1="-480.6354" x2="88.7074" y2="-456.3567" gradientTransform="matrix(1 0 0 -1 0 -441.68)">
		<stop  offset="0" style="stop-color:#FFC900"/>
		<stop  offset="1" style="stop-color:#FFC900;stop-opacity:0"/>
	</linearGradient>
	<path style="fill:url(#SVGID_00000181779270175536397690000006654307348216225200_);" d="M82.6,16.3c1.3-0.3,5.7-1.3,8.6-1.6
		c0.2,0,0.3,0.1,0.2,0.3c-0.2,0.4-0.4,1.3-0.2,2.3c0.3,1.5,3.2,18.4,3.2,18.4s0.1,0.6,0.5,1.2c0.2,0.3,0,0.7-0.3,0.8
		c-1.8,0.3-5.3,0.9-7.4,1.3c-0.3,0.1-0.7-0.2-0.6-0.6s0.2-0.9,0.2-1.5c0-2.4-3.4-17.9-3.4-17.9s-0.2-1.5-0.9-2.4
		C82.4,16.5,82.4,16.3,82.6,16.3L82.6,16.3z"/>
	
		<linearGradient id="SVGID_00000060739291100459078910000000526723102989979289_" gradientUnits="userSpaceOnUse" x1="103.9902" y1="-478.65" x2="103.9902" y2="-455.0902" gradientTransform="matrix(1 0 0 -1 0 -441.68)">
		<stop  offset="0" style="stop-color:#FFC900"/>
		<stop  offset="1" style="stop-color:#FFC900;stop-opacity:0"/>
	</linearGradient>
	<path style="fill:url(#SVGID_00000060739291100459078910000000526723102989979289_);" d="M94.8,14.2c1.4-0.2,4.3-0.6,6.4-0.5
		c0.1,0,0.2,0.1,0.2,0.3s-0.1,0.7,0.1,1.7c0.2,1.5,1.8,8.6,2.4,11.2c0.1,0.2,0.4,0.2,0.4,0L107,15c0,0,0.2-0.7,0-1.2
		c0-0.1,0.1-0.3,0.2-0.3c0.9-0.1,3.7-0.1,6,0.2c0.3,0.1,0.5,0.4,0.3,0.7c-0.4,0.6-0.8,1.6-1,2.9c-0.3,1.9-4.2,17.5-4.6,19.4
		c0,0.1-0.1,0.2-0.2,0.2c-0.7-0.1-3.6-0.2-7.3,0.1c-0.1,0-0.2-0.1-0.2-0.2C99.8,35,96,19.2,95.1,16.4c-0.2-0.7-0.5-1.1-0.6-1.5
		C94.3,14.7,94.4,14.2,94.8,14.2L94.8,14.2z"/>
	
		<linearGradient id="SVGID_00000066507422200500567060000015874147889426303367_" gradientUnits="userSpaceOnUse" x1="138.0793" y1="-488.5833" x2="138.0793" y2="-460.554" gradientTransform="matrix(1 0 0 -1 0 -441.68)">
		<stop  offset="0" style="stop-color:#FFC900"/>
		<stop  offset="1" style="stop-color:#FFC900;stop-opacity:0"/>
	</linearGradient>
	<path style="fill:url(#SVGID_00000066507422200500567060000015874147889426303367_);" d="M131.5,18.9l5.4,2.3
		c0.7,0.3,1.1,0.9,1.1,1.6c0.1,3.3,0.3,12.6,0.3,15c0,0.1,0.1,0.2,0.1,0.2c0.8,0.3,4.6,2,5.1,2c0.2,0,0.4-0.1,0.6-0.1
		c0.4-0.2,0.9,0.2,0.9,0.6l-0.2,5.7c0,0.5-0.6,0.9-1.1,0.6c-2.7-1.3-10.1-4.8-12.4-5.3c-0.1,0-0.2-0.2-0.1-0.3
		c0.1-0.4,0.4-1.2,0.4-2.5c0.1-1.9-0.2-17.3-0.2-17.3s0-1.2-0.2-2.1C131.1,19,131.3,18.8,131.5,18.9L131.5,18.9z"/>
	
		<linearGradient id="SVGID_00000106837818269617696210000016111462648731333309_" gradientUnits="userSpaceOnUse" x1="100.393" y1="-428.9984" x2="100.393" y2="-463.6094" gradientTransform="matrix(0.99 0.1411 0.1411 -0.99 -21.9681 -421.7275)">
		<stop  offset="0" style="stop-color:#F9FF7C"/>
		<stop  offset="0.34" style="stop-color:#F9FF7A;stop-opacity:0"/>
	</linearGradient>
	<path style="fill:url(#SVGID_00000106837818269617696210000016111462648731333309_);" d="M27.2,37.9l-6.8,0.3
		c-0.4,0-0.6,0.3-0.6,0.6c0.1,1.5-0.9,5-4.9,4.6c-5.6-0.5-8.5-6.5-4.9-13.1c3.4-6.2,11.5-6,11.5-2.2c0,0.4,0.3,0.6,0.6,0.6l6.4,0.1
		c0.3,0,0.6-0.2,0.6-0.5c0.3-2.1,0.5-9.8-10.6-10.8C5.9,16.2,1.1,28.4,0.3,34.2c-0.8,6.5,1.3,15.9,12.4,17.3
		c11.3,1.3,15.3-7,15.1-13C27.9,38.1,27.6,37.9,27.2,37.9L27.2,37.9z"/>
	
		<linearGradient id="SVGID_00000117634592340695850220000007627613035185119903_" gradientUnits="userSpaceOnUse" x1="113.5894" y1="-447.7514" x2="113.5894" y2="-475.2024" gradientTransform="matrix(0.9921 0.1253 0.1253 -0.9921 -17.2047 -433.2702)">
		<stop  offset="0" style="stop-color:#F9FF7C"/>
		<stop  offset="0.34" style="stop-color:#F9FF7A;stop-opacity:0"/>
	</linearGradient>
	<path style="fill:url(#SVGID_00000117634592340695850220000007627613035185119903_);" d="M45.3,49.1c-0.6-1.3-1.1-4.1-1.1-4.1
		l-2.5-19c-0.1-0.4-0.5-0.7-0.9-0.6l-6.5,1.3c-0.3,0.1-0.5,0.3-0.6,0.6c-0.5,2.4-3,13.4-4.4,17.9c-0.9,3.1-1.7,4.7-2.1,5.5
		c-0.2,0.3,0,0.7,0.4,0.7c2.8,0.1,5.2-0.1,6.3-0.2c0.3,0,0.5-0.3,0.4-0.5c-0.3-1.1,0.1-3.4,0.2-4.5c0.1-0.3,0.3-0.6,0.7-0.7l1.9-0.3
		c0.5-0.1,0.9,0.3,0.9,0.7c0.2,2.4,0.1,3.7,0,4.4c-0.1,0.3,0.2,0.5,0.5,0.5c3-0.2,5.5-0.8,6.5-1C45.3,49.8,45.4,49.4,45.3,49.1z
		 M37.2,39L36,39.1c-0.3,0-0.5-0.2-0.5-0.5c0.2-1.4,1-5,1.2-5.2c0.3-0.2,0.5,1.2,0.8,5C37.6,38.7,37.5,39,37.2,39z"/>
	
		<linearGradient id="SVGID_00000090254353098664528600000001476076235617084597_" gradientUnits="userSpaceOnUse" x1="120.1474" y1="-456.2076" x2="120.1474" y2="-481.2557" gradientTransform="matrix(1 0 0 -1 0.14 -441.55)">
		<stop  offset="0" style="stop-color:#F9FF7C"/>
		<stop  offset="0.34" style="stop-color:#F9FF7A;stop-opacity:0"/>
	</linearGradient>
	<path style="fill:url(#SVGID_00000090254353098664528600000001476076235617084597_);" d="M128.9,39.1c-0.4-1.6-0.8-4.4-0.8-4.4
		l-0.6-17.5c0-0.4-0.2-0.7-0.6-0.9c-1.2-0.5-4.1-1.6-6.5-1.8c-0.4,0-0.8,0.2-1,0.7c-0.8,2.8-4.3,13-5.9,17.4c-0.8,2.2-1.4,3.4-1.8,4
		c-0.2,0.3,0,0.7,0.4,0.7c2.2,0.1,4.8,0.3,6,0.5c0.3,0,0.6-0.2,0.5-0.5c-0.1-1,0.3-2.7,0.6-3.5c0.1-0.3,0.4-0.5,0.7-0.5
		c0.6,0.1,1.4,0.1,2,0.2c0.4,0,0.7,0.4,0.6,0.8c-0.2,1.9-0.4,2.9-0.6,3.4c-0.1,0.3,0.1,0.6,0.4,0.6c2.7,0.3,4.8,0.9,6,1.3
		C128.7,39.8,129.1,39.5,128.9,39.1L128.9,39.1z M122.6,27.4c0,0.2-0.2,0.4-0.4,0.4H121c-0.3,0-0.5-0.3-0.4-0.5
		c0.4-1.4,1.4-5.1,1.7-5C122.5,22.2,122.9,23.6,122.6,27.4L122.6,27.4z"/>
	
		<linearGradient id="SVGID_00000134241394195687044020000003081310679558016140_" gradientUnits="userSpaceOnUse" x1="105.0969" y1="-456.627" x2="105.0969" y2="-483.2697" gradientTransform="matrix(0.9965 8.333000e-02 8.333000e-02 -0.9965 -11.0785 -440.6606)">
		<stop  offset="0" style="stop-color:#F9FF7C"/>
		<stop  offset="0.34" style="stop-color:#F9FF7A;stop-opacity:0"/>
	</linearGradient>
	<path style="fill:url(#SVGID_00000134241394195687044020000003081310679558016140_);" d="M63.3,45.3c-1-0.9-3-3.5-6-9.8
		c0-0.1,0-0.2,0.1-0.3c0.8-0.6,4.5-3.9,2.3-8.8c-2.2-5.1-10.3-3.5-13.8-1.6c-0.2,0.1-0.3,0.4-0.2,0.7c0.3,0.4,0.7,1.5,0.9,4.2
		c0.4,4.6,1.6,15.6,0.8,18.9c-0.1,0.3,0.4,0.6,0.7,0.6c2-0.3,4.2-0.8,6.9-1.5c0.3-0.1,0.3-0.3,0.2-0.5c-0.7-0.8-1.8-2.8-2.2-7.2
		c0-0.2,0.2-0.3,0.4-0.2c1.1,1.3,3.9,4.9,3.9,6.9c0,0.3,0.2,0.5,0.5,0.4c1-0.2,3.3-0.7,5.4-1.2C63.5,45.9,63.6,45.5,63.3,45.3
		L63.3,45.3z M52.1,33.3c-0.2,0.1-0.3,0-0.3-0.2L51.4,28c0-0.1,0-0.2,0.1-0.2c0.4-0.2,1.9-0.6,2.7,0.9
		C55.3,30.4,54.1,32.2,52.1,33.3L52.1,33.3z"/>
	
		<linearGradient id="SVGID_00000145051439594121298410000005464716602572214413_" gradientUnits="userSpaceOnUse" x1="72.3169" y1="-458.77" x2="72.3169" y2="-486.49" gradientTransform="matrix(1 0 0 -1 7.000000e-02 -441.42)">
		<stop  offset="0" style="stop-color:#F9FF7C"/>
		<stop  offset="0.34" style="stop-color:#F9FF7A;stop-opacity:0"/>
	</linearGradient>
	<path style="fill:url(#SVGID_00000145051439594121298410000005464716602572214413_);" d="M67.2,45c-0.3,0.1-0.6-0.2-0.6-0.5
		c0.1-0.5,0.1-0.8-0.2-2.2c-0.8-3.5-4.1-17.9-4.1-17.9s-0.3-1.5-1.1-2.1c-0.2-0.1-0.1-0.4,0.1-0.4l5.9-1.4c0.4-0.1,0.8,0.1,1.1,0.4
		l6.4,8.6c0.2,0.2,0.4,0.1,0.4-0.1c-0.3-2.3-1.4-8.6-2.3-10c-0.1-0.1,0-0.3,0.1-0.3l7.2-1.9c0.2,0,0.3,0.1,0.3,0.2
		c-0.1,0.7-0.3,2.5,0.4,6.7c0.8,5.1,1.6,13.1,2.8,15.1c0.2,0.2,0,0.5-0.2,0.6L77,42c-0.1,0-0.2,0-0.2-0.1l-6.1-8.3
		c-0.2-0.2-0.4-0.1-0.4,0.2l1.9,7.5c0,0,0.2,0.8,0.8,1.5c0.2,0.2,0.1,0.6-0.2,0.7L67.2,45L67.2,45z"/>
	
		<linearGradient id="SVGID_00000156549795857085054470000014683254406518085798_" gradientUnits="userSpaceOnUse" x1="88.7074" y1="-456.38" x2="88.7074" y2="-480.6587" gradientTransform="matrix(1 0 0 -1 0 -441.68)">
		<stop  offset="0" style="stop-color:#F9FF7C"/>
		<stop  offset="0.34" style="stop-color:#F9FF7A;stop-opacity:0"/>
	</linearGradient>
	<path style="fill:url(#SVGID_00000156549795857085054470000014683254406518085798_);" d="M82.6,16.3c1.3-0.3,5.7-1.3,8.6-1.6
		c0.2,0,0.3,0.1,0.2,0.3c-0.2,0.4-0.4,1.3-0.2,2.3c0.3,1.5,3.2,18.4,3.2,18.4s0.1,0.6,0.5,1.2c0.2,0.3,0,0.7-0.3,0.8
		c-1.8,0.3-5.3,0.9-7.4,1.3c-0.3,0.1-0.7-0.2-0.6-0.6s0.2-0.9,0.2-1.5c0-2.4-3.4-17.9-3.4-17.9s-0.2-1.5-0.9-2.4
		C82.4,16.5,82.4,16.3,82.6,16.3L82.6,16.3z"/>
	
		<linearGradient id="SVGID_00000142175024173744925410000014790263455461690036_" gradientUnits="userSpaceOnUse" x1="103.9902" y1="-455.1202" x2="103.9902" y2="-478.68" gradientTransform="matrix(1 0 0 -1 0 -441.68)">
		<stop  offset="0" style="stop-color:#F9FF7C"/>
		<stop  offset="0.34" style="stop-color:#F9FF7A;stop-opacity:0"/>
	</linearGradient>
	<path style="fill:url(#SVGID_00000142175024173744925410000014790263455461690036_);" d="M94.8,14.2c1.4-0.2,4.3-0.6,6.4-0.5
		c0.1,0,0.2,0.1,0.2,0.3s-0.1,0.7,0.1,1.7c0.2,1.5,1.8,8.6,2.4,11.2c0.1,0.2,0.4,0.2,0.4,0L107,15c0,0,0.2-0.7,0-1.2
		c0-0.1,0.1-0.3,0.2-0.3c0.9-0.1,3.7-0.1,6,0.2c0.3,0.1,0.5,0.4,0.3,0.7c-0.4,0.6-0.8,1.6-1,2.9c-0.3,1.9-4.2,17.5-4.6,19.4
		c0,0.1-0.1,0.2-0.2,0.2c-0.7-0.1-3.6-0.2-7.3,0.1c-0.1,0-0.2-0.1-0.2-0.2C99.8,35,96,19.2,95.1,16.4c-0.2-0.7-0.5-1.1-0.6-1.5
		C94.3,14.7,94.4,14.2,94.8,14.2L94.8,14.2z"/>
	
		<linearGradient id="SVGID_00000168838838726760509020000010886710053581598122_" gradientUnits="userSpaceOnUse" x1="138.0793" y1="-460.5864" x2="138.0793" y2="-488.6158" gradientTransform="matrix(1 0 0 -1 0 -441.68)">
		<stop  offset="0" style="stop-color:#F9FF7C"/>
		<stop  offset="0.34" style="stop-color:#F9FF7A;stop-opacity:0"/>
	</linearGradient>
	<path style="fill:url(#SVGID_00000168838838726760509020000010886710053581598122_);" d="M131.5,18.9l5.4,2.3
		c0.7,0.3,1.1,0.9,1.1,1.6c0.1,3.3,0.3,12.6,0.3,15c0,0.1,0.1,0.2,0.1,0.2c0.8,0.3,4.6,2,5.1,2c0.2,0,0.4-0.1,0.6-0.1
		c0.4-0.2,0.9,0.2,0.9,0.6l-0.2,5.7c0,0.5-0.6,0.9-1.1,0.6c-2.7-1.3-10.1-4.8-12.4-5.3c-0.1,0-0.2-0.2-0.1-0.3
		c0.1-0.4,0.4-1.2,0.4-2.5c0.1-1.9-0.2-17.3-0.2-17.3s0-1.2-0.2-2.1C131.1,19,131.3,18.8,131.5,18.9L131.5,18.9z"/>
	
		<linearGradient id="SVGID_00000042738109470539377770000009411994372557259668_" gradientUnits="userSpaceOnUse" x1="100.8414" y1="-453.5154" x2="100.8414" y2="-463.6054" gradientTransform="matrix(0.99 0.1411 0.1411 -0.99 -21.9681 -421.7275)">
		<stop  offset="0" style="stop-color:#FF9F00"/>
		<stop  offset="1" style="stop-color:#FF9F00;stop-opacity:0"/>
	</linearGradient>
	<path style="fill:url(#SVGID_00000042738109470539377770000009411994372557259668_);" d="M27.2,43.4c-1.6,4.8-6,9.1-14.4,8.1
		C7.1,50.8,2.1,47.9,0.4,40.6C8.4,46.8,17.5,47.2,27.2,43.4L27.2,43.4z"/>
	
		<linearGradient id="SVGID_00000065039100927197678630000014924914017830722730_" gradientUnits="userSpaceOnUse" x1="113.593" y1="-460.6082" x2="113.593" y2="-475.2069" gradientTransform="matrix(0.9921 0.1253 0.1253 -0.9921 -17.2047 -433.2702)">
		<stop  offset="0" style="stop-color:#FF9F00"/>
		<stop  offset="1" style="stop-color:#FF9F00;stop-opacity:0"/>
	</linearGradient>
	<path style="fill:url(#SVGID_00000065039100927197678630000014924914017830722730_);" d="M45,49.8c-1,0.2-3.3,0.7-6.5,1.1
		c-0.3,0-0.6-0.2-0.5-0.5c0.2-0.7,0.3-2,0-4.4c-0.1-0.5-0.5-0.8-0.9-0.7l-1.9,0.3c-0.3,0.1-0.6,0.3-0.7,0.7
		c-0.2,1.1-0.5,3.4-0.2,4.5c0.1,0.3-0.1,0.5-0.4,0.5c-1.1,0.1-3.5,0.3-6.3,0.2c-0.4,0-0.5-0.4-0.4-0.7c0.4-0.8,1.2-2.4,2.1-5.5
		c0.3-1,0.6-2.3,1-3.8c3.8-0.7,8.1-1.6,12.9-2.7l0.8,6.3c0,0,0.5,2.8,1.1,4.1C45.4,49.4,45.3,49.7,45,49.8L45,49.8z"/>
	
		<linearGradient id="SVGID_00000121255696113704255160000002797168347128652722_" gradientUnits="userSpaceOnUse" x1="106.5075" y1="-468.17" x2="106.5075" y2="-483.293" gradientTransform="matrix(0.9965 8.333000e-02 8.333000e-02 -0.9965 -11.0785 -440.6606)">
		<stop  offset="0" style="stop-color:#FF9F00"/>
		<stop  offset="1" style="stop-color:#FF9F00;stop-opacity:0"/>
	</linearGradient>
	<path style="fill:url(#SVGID_00000121255696113704255160000002797168347128652722_);" d="M63.1,46c-2.1,0.4-4.3,0.9-5.4,1.2
		c-0.3,0.1-0.5-0.2-0.5-0.4c0-2-2.8-5.6-3.9-6.9c-0.2-0.2-0.4-0.1-0.4,0.2c0.4,4.4,1.6,6.4,2.2,7.2c0.2,0.2,0.2,0.4-0.2,0.5
		c-2.7,0.6-5.9,1.1-7.2,1.5c-0.3,0.1-0.6-0.2-0.5-0.5c0.5-1.9,0.5-6.3,0.2-10.7c3.1-0.9,6.5-1.9,10-3c0.2-0.1,0.3-0.1,0.4-0.1
		c-0.2,0.2-0.3,0.2-0.3,0.3c-0.1,0.1-0.1,0.2-0.1,0.3c3,6.4,5,8.9,6,9.8C63.6,45.5,63.5,45.9,63.1,46L63.1,46z"/>
	
		<linearGradient id="SVGID_00000045615522298623407730000012310237849684381616_" gradientUnits="userSpaceOnUse" x1="90.1892" y1="-469.08" x2="90.1892" y2="-480.6254" gradientTransform="matrix(1 0 0 -1 0 -441.68)">
		<stop  offset="0" style="stop-color:#FF9F00"/>
		<stop  offset="1" style="stop-color:#FF9F00;stop-opacity:0"/>
	</linearGradient>
	<path style="fill:url(#SVGID_00000045615522298623407730000012310237849684381616_);" d="M94.6,37.6c-1.8,0.3-5.3,0.9-7.4,1.3
		c-0.3,0.1-0.7-0.2-0.6-0.6s0.2-0.9,0.2-1.5c0-1-0.8-4.9-1.5-8.7c2.7-0.4,5.2-0.6,7.8-0.7c0.7,4.3,1.4,8.3,1.4,8.3s0.1,0.6,0.5,1.2
		C95.2,37.1,95,37.5,94.6,37.6L94.6,37.6z"/>
	
		<linearGradient id="SVGID_00000176759998244422170800000002235330222687176863_" gradientUnits="userSpaceOnUse" x1="104.1" y1="-468.89" x2="104.1" y2="-478.62" gradientTransform="matrix(1 0 0 -1 0 -441.68)">
		<stop  offset="0" style="stop-color:#FF9F00"/>
		<stop  offset="1" style="stop-color:#FF9F00;stop-opacity:0"/>
	</linearGradient>
	<path style="fill:url(#SVGID_00000176759998244422170800000002235330222687176863_);" d="M110.2,27.8c-1,4.1-2,8-2.2,8.8
		c0,0.1-0.1,0.2-0.2,0.2c-0.7-0.1-3.7-0.2-7.3,0.1c-0.1,0-0.2-0.1-0.2-0.2c-0.2-0.9-1.2-5.1-2.3-9.6
		C102.2,27.2,106.3,27.4,110.2,27.8z"/>
	
		<linearGradient id="SVGID_00000148619237133128982270000011313907661748857266_" gradientUnits="userSpaceOnUse" x1="120.1373" y1="-470.25" x2="120.1373" y2="-481.2694" gradientTransform="matrix(1 0 0 -1 0.14 -441.55)">
		<stop  offset="0" style="stop-color:#FF9F00"/>
		<stop  offset="1" style="stop-color:#FF9F00;stop-opacity:0"/>
	</linearGradient>
	<path style="fill:url(#SVGID_00000148619237133128982270000011313907661748857266_);" d="M128.3,39.7c-1.2-0.4-3.3-1.1-6-1.3
		c-0.3,0-0.5-0.3-0.4-0.6c0.2-0.5,0.4-1.5,0.6-3.4c0-0.4-0.3-0.7-0.6-0.8c-0.6-0.1-1.4-0.1-2-0.2c-0.3,0-0.6,0.2-0.7,0.5
		c-0.3,0.8-0.7,2.5-0.6,3.5c0,0.3-0.2,0.5-0.5,0.5c-1.2-0.2-3.7-0.4-6-0.5c-0.3,0-0.6-0.4-0.4-0.7c0.4-0.6,1-1.8,1.8-4
		c0.4-1,0.9-2.5,1.4-4c4.7,0.7,9.1,1.8,13.1,2.9l0.1,3.1c0,0,0.4,2.7,0.8,4.4C129,39.5,128.7,39.8,128.3,39.7L128.3,39.7z"/>
	
		<linearGradient id="SVGID_00000135681821179931162210000001178614685896484785_" gradientUnits="userSpaceOnUse" x1="138.0793" y1="-475.44" x2="138.0793" y2="-488.6" gradientTransform="matrix(1 0 0 -1 0 -441.68)">
		<stop  offset="0" style="stop-color:#FF9F00"/>
		<stop  offset="1" style="stop-color:#FF9F00;stop-opacity:0"/>
	</linearGradient>
	<path style="fill:url(#SVGID_00000135681821179931162210000001178614685896484785_);" d="M145,40.5l-0.2,5.7c0,0.5-0.6,0.9-1.1,0.6
		c-2.7-1.3-10.1-4.8-12.4-5.3c-0.1,0-0.2-0.2-0.1-0.3c0.1-0.4,0.4-1.2,0.4-2.5c0-0.6,0-2.6,0-5c2.4,0.8,4.7,1.7,6.8,2.6
		c0,0.6,0,1.2,0,1.5c0,0.1,0.1,0.2,0.1,0.2c0.8,0.3,4.6,2,5.1,2c0.2,0,0.4-0.1,0.6-0.1C144.5,39.8,145,40.1,145,40.5z"/>
	
		<linearGradient id="SVGID_00000029006490741190307900000007723231149650973616_" gradientUnits="userSpaceOnUse" x1="73.9988" y1="-470.58" x2="73.9988" y2="-486.51" gradientTransform="matrix(1 0 0 -1 7.000000e-02 -441.42)">
		<stop  offset="0" style="stop-color:#FF9F00"/>
		<stop  offset="1" style="stop-color:#FF9F00;stop-opacity:0"/>
	</linearGradient>
	<path style="fill:url(#SVGID_00000029006490741190307900000007723231149650973616_);" d="M83.3,39.9L77,42.1c-0.1,0-0.2,0-0.2-0.1
		l-6.2-8.3c-0.2-0.2-0.4-0.1-0.4,0.2l1.9,7.5c0,0,0.2,0.8,0.8,1.5c0.2,0.2,0.1,0.6-0.2,0.7L67.3,45c-0.3,0.1-0.6-0.2-0.6-0.5
		c0.1-0.5,0.1-0.8-0.2-2.2c-0.3-1.5-1.2-5.2-2-8.9c5.9-2,11.6-3.5,17-4.4c0.6,4.5,1.3,8.7,2.1,10.2C83.7,39.5,83.6,39.9,83.3,39.9
		L83.3,39.9z"/>
	<path class="st0" d="M15.1,51.9c-0.8,0-1.5-0.1-2.3-0.2c-4.2-0.5-7.5-2.2-9.7-4.9c-3.5-4.4-3.3-10.2-3-12.6
		c0.6-5.2,5.2-18.3,18.6-17c4.1,0.4,7.1,1.8,8.9,4c2.1,2.7,2,5.8,1.8,7.1C29.3,28.7,29,29,28.5,29H22c-0.5,0-0.8-0.4-0.8-0.9
		c0-1.1-0.8-1.9-2.2-2.3c-2.7-0.7-6.8,0.7-8.9,4.6c-1.8,3.3-2,6.7-0.6,9.3c1.1,2,3,3.3,5.4,3.5c1.4,0.1,2.5-0.2,3.4-1
		c1.1-1,1.3-2.6,1.3-3.4c0-0.2,0.1-0.4,0.2-0.6c0.1-0.2,0.4-0.3,0.6-0.3l6.8-0.3c0.2,0,0.4,0.1,0.6,0.2c0.2,0.2,0.3,0.3,0.3,0.6
		c0.1,3.9-1.4,7.7-4,10.2C21.8,50.8,18.7,51.8,15.1,51.9L15.1,51.9z M16.9,17.5c-11.7,0-15.8,12-16.3,16.8C0.3,36.5,0,42.2,3.4,46.5
		c2.1,2.7,5.3,4.3,9.4,4.8c4.5,0.5,8.3-0.5,11-3c2.6-2.4,4-6.1,3.9-9.8c0-0.1-0.1-0.2-0.1-0.3c-0.1-0.1-0.2-0.1-0.3-0.1l0,0
		l-6.8,0.3c-0.1,0-0.2,0.1-0.3,0.1c-0.1,0.1-0.1,0.2-0.1,0.3c0,0.8-0.2,2.5-1.5,3.7c-0.9,0.9-2.2,1.3-3.7,1.1
		c-2.5-0.2-4.6-1.6-5.8-3.7c-1.5-2.7-1.2-6.2,0.6-9.7c2.2-4.1,6.5-5.5,9.4-4.8c1.5,0.4,2.5,1.4,2.5,2.7c0,0.2,0.2,0.4,0.4,0.4
		l6.5,0.1l0,0c0.2,0,0.4-0.1,0.4-0.4c0.1-1.2,0.3-4.2-1.8-6.7c-1.7-2.2-4.6-3.5-8.6-3.9C18.1,17.6,17.5,17.5,16.9,17.5L16.9,17.5z"
		/>
	<path class="st0" d="M29.3,51.6c-0.5,0-1.1,0-1.6,0c-0.2,0-0.4-0.2-0.5-0.3s-0.1-0.5,0-0.7c0.4-0.8,1.2-2.4,2.1-5.5
		c1.4-4.5,3.9-15.7,4.4-17.9c0.1-0.4,0.4-0.7,0.8-0.8l6.5-1.3c0.3-0.1,0.5,0,0.8,0.2s0.4,0.4,0.4,0.7l2.4,18.9c0,0,0.5,2.8,1.1,4
		c0.1,0.2,0.1,0.5,0,0.7s-0.2,0.3-0.4,0.3c-0.3,0.1-0.6,0.1-1,0.2c-1.3,0.3-3.2,0.7-5.6,0.8c-0.2,0-0.4-0.1-0.6-0.2
		s-0.2-0.3-0.2-0.5c0.2-0.7,0.3-2,0-4.3c0-0.2-0.1-0.3-0.2-0.4c-0.1-0.1-0.3-0.2-0.5-0.1l-1.9,0.3c-0.3,0-0.5,0.2-0.5,0.5
		c-0.2,1-0.5,3.3-0.2,4.4c0.1,0.2,0,0.4-0.1,0.5s-0.3,0.3-0.5,0.3C33,51.5,31.3,51.6,29.3,51.6L29.3,51.6z M41,25.6L41,25.6
		l-6.6,1.3c-0.2,0-0.4,0.2-0.4,0.4c-0.5,2.2-3,13.4-4.4,18c-0.9,3.1-1.7,4.7-2.1,5.5c-0.1,0.1,0,0.2,0,0.2s0.1,0.1,0.2,0.1
		c2.7,0.1,5.1-0.1,6.2-0.2c0.1,0,0.1,0,0.2-0.1c0-0.1,0.1-0.1,0-0.2c-0.3-1.1,0-3.4,0.2-4.5c0.1-0.4,0.4-0.8,0.9-0.8l1.9-0.3
		c0.3,0,0.5,0,0.8,0.2c0.2,0.2,0.3,0.4,0.4,0.7c0.2,2.4,0.1,3.8,0,4.5c0,0.1,0,0.2,0.1,0.2c0.1,0.1,0.2,0.1,0.2,0.1
		c2.4-0.1,4.1-0.5,5.5-0.8c0.3-0.1,0.7-0.2,1-0.2c0.1,0,0.1-0.1,0.1-0.1c0.1-0.1,0.1-0.2,0-0.3l0,0c-0.6-1.3-1.1-4.1-1.2-4.2
		l-2.4-19c0-0.1-0.1-0.3-0.2-0.4C41.2,25.6,41.1,25.6,41,25.6L41,25.6z M36,39.3c-0.2,0-0.3-0.1-0.5-0.2c-0.2-0.2-0.2-0.3-0.2-0.5
		c0.2-1,0.9-5,1.3-5.3c0.1-0.1,0.2-0.1,0.3-0.1c0.3,0.1,0.5,0.6,0.9,5.2c0,0.3-0.2,0.7-0.6,0.7l0,0L36,39.3L36,39.3L36,39.3z
		 M36.8,33.8c-0.3,0.7-0.9,3.5-1.1,4.9c0,0.1,0,0.2,0.1,0.2C35.9,39,35.9,39,36,39l1.2-0.2c0.1,0,0.2-0.1,0.2-0.2
		C37.2,35.9,37,34.3,36.8,33.8L36.8,33.8z"/>
	<path class="st0" d="M128.5,39.9c-0.1,0-0.1,0-0.2,0c-1.1-0.4-3.3-1-6-1.3c-0.2,0-0.4-0.2-0.5-0.3c-0.1-0.2-0.2-0.4-0.1-0.6
		c0.2-0.5,0.4-1.5,0.6-3.4c0-0.3-0.2-0.5-0.4-0.5l-2-0.2c-0.2,0-0.4,0.1-0.5,0.3c-0.3,0.9-0.7,2.5-0.6,3.5c0,0.2-0.1,0.4-0.2,0.5
		s-0.3,0.2-0.6,0.2c-1.3-0.2-3.7-0.4-6-0.5c-0.3,0-0.5-0.2-0.6-0.4s-0.1-0.5,0-0.7c0.4-0.6,1-1.8,1.8-4c1.6-4.3,5.1-14.6,5.9-17.3
		c0.2-0.5,0.7-0.9,1.2-0.8c2.4,0.2,5.4,1.3,6.6,1.8c0.4,0.2,0.7,0.6,0.7,1l0.6,17.5c0,0,0.4,2.7,0.8,4.3l0,0c0.1,0.2,0,0.5-0.2,0.7
		C128.8,39.8,128.7,39.9,128.5,39.9L128.5,39.9z M119.8,33.2L119.8,33.2l2,0.2c0.5,0.1,0.9,0.5,0.8,1c-0.2,2-0.4,3-0.6,3.5
		c0,0.1,0,0.2,0,0.2s0.1,0.1,0.2,0.1c2.7,0.3,5,1,6,1.3c0.1,0,0.2,0,0.3-0.1c0,0,0.1-0.1,0.1-0.2l0,0c-0.4-1.6-0.8-4.4-0.8-4.4
		l-0.6-17.5c0-0.3-0.2-0.5-0.4-0.6c-1.1-0.5-4.1-1.6-6.4-1.8c-0.3,0-0.7,0.2-0.8,0.5c-0.8,2.8-4.3,13.1-5.9,17.4
		c-0.8,2.2-1.5,3.5-1.8,4.1c-0.1,0.1,0,0.2,0,0.2c0,0.1,0.1,0.1,0.2,0.2c2.2,0.1,4.7,0.3,6,0.5c0.1,0,0.2,0,0.2-0.1
		c0.1-0.1,0.1-0.1,0.1-0.2c-0.1-1,0.3-2.7,0.6-3.6C119,33.4,119.4,33.2,119.8,33.2L119.8,33.2z M122.2,28L122.2,28H121
		c-0.2,0-0.4-0.1-0.5-0.3c-0.1-0.2-0.2-0.4-0.1-0.6s0.1-0.4,0.2-0.7c0.9-3.2,1.3-4.3,1.6-4.4c0.1,0,0.2-0.1,0.2,0
		c0.6,0.2,0.8,2.3,0.5,5.4C122.8,27.7,122.5,28,122.2,28L122.2,28z M122.3,22.5c-0.3,0.6-1,3-1.3,4c-0.1,0.3-0.2,0.5-0.2,0.7
		c0,0.1,0,0.1,0,0.2s0.1,0.1,0.2,0.1h1.2c0.1,0,0.2-0.1,0.2-0.2l0,0C122.7,24.3,122.5,23,122.3,22.5L122.3,22.5z"/>
	<path class="st0" d="M47.9,49.5c-0.2,0-0.5-0.2-0.7-0.3c-0.1-0.2-0.2-0.3-0.1-0.5c0.7-3-0.2-12.3-0.6-17.3
		c-0.1-0.6-0.1-1.1-0.2-1.5c-0.2-2.7-0.6-3.7-0.9-4.1c-0.1-0.1-0.2-0.4-0.1-0.5c0.1-0.2,0.2-0.4,0.3-0.4c2.7-1.5,7.5-2.5,10.7-1.4
		c1.6,0.5,2.8,1.6,3.5,3.1c2.2,5.1-1.6,8.4-2.4,9.1c3.1,6.4,5,8.9,6,9.8c0.2,0.2,0.2,0.4,0.2,0.6s-0.2,0.4-0.5,0.5
		c-1.7,0.4-3.2,0.7-4.3,0.9c-0.4,0.1-0.8,0.2-1.1,0.2c-0.2,0-0.4,0-0.5-0.1S57,47,57,46.8c0-2-3-5.7-3.9-6.8
		c0.5,4.4,1.6,6.4,2.2,7.2c0.2,0.2,0.2,0.4,0.2,0.5S55.2,48,55,48.1c-0.7,0.2-1.3,0.3-1.8,0.4C51.7,48.8,50.5,49.1,47.9,49.5
		C48,49.5,47.9,49.4,47.9,49.5L47.9,49.5z M53.2,23.2c-2.6,0-5.4,0.8-7.3,1.8c-0.1,0-0.1,0.1-0.2,0.2c0,0.1,0,0.1,0,0.2
		c0.4,0.6,0.8,2.1,1,4.3c0,0.5,0.1,1,0.2,1.5c0.5,5.4,1.4,14.4,0.6,17.4c0,0.1,0,0.1,0.1,0.2c0.1,0.1,0.2,0.2,0.3,0.2
		c2.5-0.4,3.7-0.7,5.2-1c0.5-0.1,1.1-0.3,1.8-0.4c0.1,0,0.1,0,0.1-0.1c0,0,0-0.1-0.1-0.1c-0.6-0.8-1.8-2.8-2.3-7.4
		c0-0.2,0.1-0.4,0.3-0.4c0.2-0.1,0.4,0,0.5,0.1c1.2,1.4,4,5,4,7.1c0,0.1,0.1,0.2,0.1,0.2s0.1,0.1,0.2,0c0.3-0.1,0.7-0.2,1.1-0.2
		c1.1-0.2,2.6-0.5,4.3-0.9c0.1,0,0.2-0.1,0.2-0.2c0,0,0-0.1-0.1-0.2l0,0c-0.9-0.9-3-3.4-6-9.9c-0.1-0.2,0-0.4,0.1-0.5
		c0.7-0.6,4.3-3.8,2.2-8.5c-0.6-1.4-1.7-2.3-3.2-2.9C55.3,23.3,54.3,23.2,53.2,23.2L53.2,23.2z M52,33.5c-0.1,0-0.2,0-0.2-0.1
		c-0.1-0.1-0.2-0.2-0.2-0.3L51.2,28c0-0.2,0.1-0.4,0.3-0.4c0.5-0.2,2-0.7,3,1c0.4,0.7,0.5,1.5,0.3,2.2c-0.3,1-1.2,2-2.5,2.7l0,0
		C52.1,33.5,52.1,33.5,52,33.5L52,33.5z M52.6,27.7c-0.4,0-0.7,0.1-0.9,0.2l0.4,5.1c1.2-0.6,2-1.5,2.3-2.4c0.2-0.6,0.1-1.3-0.2-1.9
		C53.7,27.9,53.1,27.7,52.6,27.7z"/>
	<path class="st0" d="M67.1,45.3c-0.2,0-0.3-0.1-0.4-0.2c-0.2-0.2-0.3-0.3-0.2-0.6c0.1-0.5,0.1-0.8-0.2-2.1
		c-0.8-3.5-4.1-17.7-4.1-17.9c0,0-0.3-1.4-1-2C61,22.4,61,22.2,61,22.1c0-0.2,0.2-0.3,0.3-0.3l5.9-1.4c0.5-0.1,1,0.1,1.3,0.5
		l6.4,8.6c-0.3-2-1.3-8.6-2.2-9.9c-0.1-0.1-0.1-0.3-0.1-0.4c0.1-0.1,0.2-0.2,0.3-0.3l7.2-1.9c0.2,0,0.3,0,0.4,0.1s0.2,0.2,0.1,0.4
		c-0.1,0.6-0.3,2.4,0.4,6.6c0.2,1.2,0.4,2.6,0.6,4.1c0.6,4.4,1.3,9.4,2.2,10.9c0.1,0.2,0.1,0.4,0.1,0.5c-0.1,0.2-0.2,0.3-0.4,0.4
		l-6.3,2.1c-0.2,0.1-0.4,0-0.5-0.2l-6.2-8.3l1.9,7.5c0,0,0.2,0.8,0.7,1.4c0.2,0.2,0.2,0.4,0.1,0.6s-0.2,0.3-0.4,0.4l-5.5,1.6
		C67.2,45.3,67.2,45.3,67.1,45.3L67.1,45.3z M67.5,20.9c-0.1,0-0.2,0-0.2,0l-5.9,1.4c0.9,0.7,1.2,2.2,1.2,2.2
		c0,0.1,3.3,14.4,4.1,17.8c0.3,1.3,0.3,1.7,0.2,2.2c0,0.1,0.1,0.2,0.1,0.2s0.1,0.1,0.2,0l0,0l5.5-1.5c0.1,0,0.1-0.1,0.1-0.2
		c0-0.1,0-0.2,0-0.2c-0.6-0.7-0.8-1.5-0.8-1.5l-2-7.4c-0.1-0.2,0.1-0.4,0.2-0.5c0.2-0.1,0.4,0,0.5,0.2l6.2,8.3l6.3-2.1
		c0.1,0,0.1-0.1,0.2-0.1c0,0,0-0.1,0-0.2c-0.9-1.6-1.6-6.4-2.2-11c-0.2-1.5-0.4-2.9-0.6-4.1c-0.6-4.1-0.5-6-0.4-6.7L73,19.5
		c0.9,1.4,1.9,7.5,2.3,10.1c0,0.2-0.1,0.4-0.3,0.5c-0.2,0.1-0.4,0-0.5-0.1l-6.4-8.6C68,21,67.8,20.8,67.5,20.9L67.5,20.9z"/>
	<path class="st0" d="M87.2,39.2c-0.2,0-0.4-0.1-0.5-0.2c-0.2-0.2-0.2-0.4-0.2-0.7c0.1-0.4,0.2-0.9,0.1-1.5
		c-0.1-2.3-3.4-17.6-3.4-17.8c0,0-0.2-1.4-0.9-2.3c-0.1-0.1-0.1-0.3-0.1-0.4c0.1-0.1,0.2-0.2,0.3-0.3l0,0c1.3-0.3,5.7-1.3,8.7-1.6
		c0.2,0,0.3,0.1,0.4,0.2s0.1,0.3,0.1,0.4c-0.2,0.4-0.3,1.2-0.2,2.2c0.3,1.5,3.2,18.2,3.2,18.4c0,0,0.1,0.6,0.4,1.1
		c0.2,0.2,0.2,0.5,0.1,0.7s-0.3,0.4-0.5,0.4c-1.9,0.3-5.4,0.9-7.4,1.3C87.3,39.1,87.2,39.1,87.2,39.2L87.2,39.2z M82.6,16.3l0.1,0.2
		c0.7,0.9,1,2.4,1,2.5c0.2,0.6,3.4,15.5,3.4,17.8c0,0.6,0,1.1-0.2,1.6c0,0.1,0,0.2,0.1,0.3s0.2,0.1,0.3,0.1c2-0.4,5.5-1,7.4-1.3
		c0.1,0,0.2-0.1,0.2-0.2s0-0.2,0-0.3c-0.3-0.5-0.5-1.2-0.5-1.2c0-0.2-2.9-17-3.2-18.4c-0.2-1,0-2,0.2-2.4c-3,0.3-7.4,1.3-8.6,1.6
		l0,0L82.6,16.3L82.6,16.3z"/>
	<path class="st0" d="M100.4,37.2c-0.2,0-0.4-0.2-0.4-0.3c-0.4-1.8-4.3-17.7-5.1-20.4c-0.2-0.6-0.4-1.1-0.6-1.4
		c-0.1-0.2-0.2-0.4-0.1-0.7c0.1-0.2,0.3-0.4,0.5-0.4l0,0c1.5-0.2,4.3-0.6,6.5-0.5c0.1,0,0.2,0.1,0.3,0.2c0.1,0.1,0.1,0.2,0.1,0.4
		s0,0.6,0.1,1.6c0.2,1.5,1.9,8.9,2.4,11.1l2.7-11.9c0,0,0.2-0.6,0-1.1c0-0.1,0-0.3,0.1-0.4s0.2-0.1,0.3-0.2c0.8-0.1,3.7-0.2,6,0.2
		c0.2,0,0.4,0.2,0.5,0.4s0.1,0.5,0,0.7c-0.3,0.6-0.8,1.5-1,2.8c-0.3,1.9-4.2,17.6-4.6,19.4c-0.1,0.2-0.2,0.3-0.4,0.3
		C107,37,104.1,36.9,100.4,37.2C100.5,37.2,100.5,37.2,100.4,37.2L100.4,37.2z M94.8,14.4c-0.1,0-0.2,0.1-0.2,0.1v0.2
		c0.2,0.4,0.5,0.9,0.7,1.5c0.9,2.7,4.7,18.6,5.2,20.4c3.6-0.4,6.5-0.2,7.3-0.2c0.4-1.8,4.3-17.5,4.6-19.4c0.2-1.4,0.7-2.4,1.1-3
		c0.1-0.1,0.1-0.2,0-0.2c0-0.1-0.1-0.1-0.2-0.1c-2.3-0.3-5.1-0.2-6-0.2c0.2,0.6,0,1.3,0,1.3l-2.7,11.9c-0.1,0.2-0.2,0.4-0.4,0.4l0,0
		c-0.2,0-0.4-0.1-0.4-0.4c-0.6-2.9-2.2-9.7-2.4-11.2c-0.1-0.8-0.2-1.4-0.1-1.8C99.1,13.8,96.3,14.2,94.8,14.4L94.8,14.4L94.8,14.4z"
		/>
	<path class="st0" d="M144,47.1c-0.1,0-0.3,0-0.4-0.1c-2.3-1.1-10.1-4.8-12.4-5.3c-0.1,0-0.2-0.1-0.3-0.2c-0.1-0.1-0.1-0.2,0-0.3
		c0.1-0.3,0.4-1.2,0.4-2.5c0.1-1.9-0.2-17.2-0.2-17.3c0,0,0-1.2-0.2-2.1c0-0.2,0-0.4,0.2-0.5s0.3-0.1,0.5-0.1l0,0L137,21
		c0.8,0.3,1.2,1,1.3,1.8c0.1,3.7,0.3,12.7,0.3,15c2.7,1.2,4.7,2,5.1,2c0.1,0,0.3,0,0.5-0.1c0.3-0.1,0.6-0.1,0.8,0.1
		c0.2,0.2,0.4,0.4,0.4,0.7l-0.2,5.7c0,0.3-0.2,0.6-0.5,0.8C144.4,47.1,144.2,47.2,144,47.1L144,47.1z M131.4,19.1L131.4,19.1
		C131.4,19.2,131.3,19.2,131.4,19.1c0.1,1,0.1,2.2,0.1,2.2c0,0.1,0.3,15.5,0.2,17.4c0,1.3-0.3,2.2-0.4,2.6c2.3,0.5,9.5,3.9,12.5,5.3
		c0.2,0.1,0.4,0.1,0.5,0s0.3-0.3,0.3-0.4l0.2-5.7c0-0.2-0.1-0.3-0.2-0.3c-0.1-0.1-0.3-0.1-0.4-0.1c-0.3,0.1-0.5,0.2-0.7,0.2
		c-0.6,0-3.8-1.4-5.2-2c-0.1-0.1-0.3-0.2-0.3-0.4c0-2.3-0.2-11.3-0.3-15c0-0.6-0.4-1.2-1-1.5L131.4,19.1L131.4,19.1z"/>
</g>
<path class="st4" d="M9.4,21.2c0,0,3.4-3.1,8.4-3s9.8,3.8,5.5,4.6c-1.9,0.4-5.4-2-9-1.3C10.8,22.4,8,22.8,9.4,21.2L9.4,21.2z"/>
<path class="st4" d="M34.6,27.8c0,0,6.3-2.8,6.4-1.6s-0.3,2.6-2.1,2.7C37.2,29,33.6,29.1,34.6,27.8z"/>
<path class="st4" d="M48.5,24.7c0,0,3.2-1.7,6.1-1.2c2.9,0.5,3.5,2.9,2.4,3.1s-2.9-0.9-4-0.9C51.8,25.6,47,26.7,48.5,24.7z"/>
<path class="st4" d="M63.1,22.4c0,0,3.8-1.2,4.7-0.9s2,2.9,0.9,2.9s-2-0.5-4.2-0.4C62.2,24.1,63.1,22.4,63.1,22.4L63.1,22.4z"/>
<path class="st4" d="M74.5,19.5c0,0,4.1-1.2,4.7-0.6s0.9,3.2-0.6,2.9s-4.4-0.5-4.8-0.7C73.3,20.9,74.5,19.5,74.5,19.5L74.5,19.5z"/>
<path class="st4" d="M83.8,16.5c0,0,3.8-1.1,5.3-1.1s2.7,2.2,2.2,2.9c-0.5,0.6-3.8-0.1-5.1,0C85,18.3,83.1,17.1,83.8,16.5z"/>
<path class="st4" d="M95.2,14.7c0,0,4.2-1,5.2,0s-0.3,2.4-1.4,1.9C97.9,15.9,94.6,15.7,95.2,14.7L95.2,14.7z"/>
<path class="st4" d="M108.2,15.1c0,0,3.2-0.3,3.9,0.3c0.7,0.6,0.3,2.9-1.2,2.3S107.2,15.9,108.2,15.1z"/>
<path class="st4" d="M120.6,15.8c0,0,1.6-0.4,4.2,0.5c2.6,0.9,2.2,3.9,1.5,3.7s-1.8-1.5-3.5-2C121.4,17.6,119.9,16.3,120.6,15.8
	L120.6,15.8z"/>
<path class="st4" d="M132.2,19.8c0,0,4.4,1.7,5,2.6c0.5,0.8,0.3,2.9-0.6,2.6c-1.1-0.4-1.9-1.6-2.3-2C133.9,22.6,131.8,21,132.2,19.8
	L132.2,19.8z"/>
<path class="st4" d="M21.1,38.8l4.4-0.2c0,0,2,0.1,1.5,1.1c-0.6,1-2.3,0.1-3.5-0.2C22.2,39.3,20.4,39.7,21.1,38.8z"/>
<g>
	<path class="st6" d="M89.8,48.8v-2.9c0-0.5-0.2-0.9-0.5-1.2c-0.7-0.7-2.1-1.8-5.1-1.4c-4.4,0.5-7.4,5.2-7.2,8.3
		c0.3,3,1.9,6.6,6.9,6.6c3.3,0,4.7-1,5.4-1.7c0.3-0.3,0.4-0.7,0.4-1.1v-4c0-0.4-0.5-0.5-0.7-0.3c0,0.1-0.1,0.1-0.1,0.2
		c-0.6,0.8-1.7,1.9-3.3,1.9S83,52.1,83,51s0.8-2.7,2.7-3c1.4-0.2,2.7,0.8,3.3,1.4C89.4,49.8,89.8,49.6,89.8,48.8z"/>
	<path class="st6" d="M93,44.4l0.3,11.3c0,0.6-0.1,1.2-0.3,1.7c-0.1,0.2-0.2,0.3-0.2,0.4c-0.1,0.2,0,0.3,0.2,0.3h7
		c0.2,0,0.3-0.2,0.2-0.4c-0.3-0.3-0.7-0.9-0.7-1.7V44c0,0,0-1.1,0.6-2c0.1-0.2,0-0.3-0.2-0.3c-1.3,0-4.7,0.2-7.2,1.2
		c-0.2,0.1-0.2,0.2-0.1,0.3C92.9,43.6,93.1,43.9,93,44.4L93,44.4z"/>
	<path class="st6" d="M127.5,45.3l-0.3,10.1c0,0.8,0.2,1.7,0.7,2.4l0,0c0.1,0.2,0,0.3-0.2,0.3h-7.3c-0.2,0-0.3-0.2-0.2-0.3
		c0.3-0.3,0.8-1,0.8-1.7V45c0,0,0-1.3-0.6-2.2c-0.1-0.2,0-0.3,0.2-0.3c1.3,0.2,4.9,0.7,7.2,1.5c0.2,0.1,0.2,0.2,0.1,0.3
		C127.7,44.5,127.5,44.9,127.5,45.3L127.5,45.3z"/>
	<path class="st6" d="M104.1,41.3c2-0.3,6.5-0.7,12.6,0.5c0.7,0.2,1.2,0.8,1.2,1.5c0,1.2-0.1,3-0.9,4.2c-0.2,0.3-0.6,0.3-0.8,0
		c-0.1-0.2-0.2-0.3-0.3-0.5c0-0.1-0.1-0.2-0.2-0.2c-0.4,0-1.3-0.1-1.9-0.2c-0.4-0.1-0.7,0.3-0.7,0.6v9.2c0,0,0,0.8,0.3,1.4
		c0.1,0.2,0,0.4-0.2,0.4h-6.4c-0.2,0-0.3-0.2-0.2-0.4c0.2-0.3,0.3-0.6,0.3-1.1c0-0.7,0.2-7.7,0.3-9.9c0-0.3-0.3-0.6-0.6-0.6h-2.4
		c-0.1,0-0.2,0.1-0.2,0.2c-0.1,0.2-0.2,0.4-0.4,0.6c-0.2,0.3-0.7,0.2-0.8-0.2c-0.2-0.7-0.4-2-0.1-4.2
		C102.9,41.9,103.4,41.4,104.1,41.3L104.1,41.3z"/>
	
		<linearGradient id="SVGID_00000065770710314614309830000003419846746955155902_" gradientUnits="userSpaceOnUse" x1="83.3953" y1="-499.84" x2="83.3953" y2="-484.879" gradientTransform="matrix(1 0 0 -1 0 -441.68)">
		<stop  offset="0" style="stop-color:#808184"/>
		<stop  offset="0.35" style="stop-color:#A8A9AB;stop-opacity:0.65"/>
		<stop  offset="1" style="stop-color:#F0F0F1;stop-opacity:0"/>
	</linearGradient>
	<path style="opacity:0.28;fill:url(#SVGID_00000065770710314614309830000003419846746955155902_);enable-background:new    ;" d="
		M89.8,48.8v-2.9c0-0.5-0.2-0.9-0.5-1.2c-0.7-0.7-2.1-1.8-5.1-1.4c-4.4,0.5-7.4,5.2-7.2,8.3c0.3,3,1.9,6.6,6.9,6.6
		c3.3,0,4.7-1,5.4-1.7c0.3-0.3,0.4-0.7,0.4-1.1v-4c0-0.4-0.5-0.5-0.7-0.3c0,0.1-0.1,0.1-0.1,0.2c-0.6,0.8-1.7,1.9-3.3,1.9
		S83,52.1,83,51s0.8-2.7,2.7-3c1.4-0.2,2.7,0.8,3.3,1.4C89.4,49.8,89.8,49.6,89.8,48.8z"/>
	
		<linearGradient id="SVGID_00000016070432529937065680000017912539570979185598_" gradientUnits="userSpaceOnUse" x1="96.3868" y1="-499.81" x2="96.3868" y2="-483.47" gradientTransform="matrix(1 0 0 -1 0 -441.68)">
		<stop  offset="0" style="stop-color:#808184"/>
		<stop  offset="0.35" style="stop-color:#A8A9AB;stop-opacity:0.65"/>
		<stop  offset="1" style="stop-color:#F0F0F1;stop-opacity:0"/>
	</linearGradient>
	<path style="opacity:0.28;fill:url(#SVGID_00000016070432529937065680000017912539570979185598_);enable-background:new    ;" d="
		M93,44.4l0.3,11.3c0,0.6-0.1,1.2-0.3,1.7c-0.1,0.2-0.2,0.3-0.2,0.4c-0.1,0.2,0,0.3,0.2,0.3h7c0.2,0,0.3-0.2,0.2-0.4
		c-0.3-0.3-0.7-0.9-0.7-1.7V44c0,0,0-1.1,0.6-2c0.1-0.2,0-0.3-0.2-0.3c-1.3,0-4.7,0.2-7.2,1.2c-0.2,0.1-0.2,0.2-0.1,0.3
		C92.9,43.6,93.1,43.9,93,44.4L93,44.4z"/>
	
		<linearGradient id="SVGID_00000145777417699010293810000012929548862866466216_" gradientUnits="userSpaceOnUse" x1="124.0632" y1="-499.81" x2="124.0632" y2="-484.097" gradientTransform="matrix(1 0 0 -1 0 -441.68)">
		<stop  offset="0" style="stop-color:#808184"/>
		<stop  offset="0.35" style="stop-color:#A8A9AB;stop-opacity:0.65"/>
		<stop  offset="1" style="stop-color:#F0F0F1;stop-opacity:0"/>
	</linearGradient>
	<path style="opacity:0.28;fill:url(#SVGID_00000145777417699010293810000012929548862866466216_);enable-background:new    ;" d="
		M127.5,45.3l-0.3,10.1c0,0.8,0.2,1.7,0.7,2.4l0,0c0.1,0.2,0,0.3-0.2,0.3h-7.3c-0.2,0-0.3-0.2-0.2-0.3c0.3-0.3,0.8-1,0.8-1.7V45
		c0,0,0-1.3-0.6-2.2c-0.1-0.2,0-0.3,0.2-0.3c1.3,0.2,4.9,0.7,7.2,1.5c0.2,0.1,0.2,0.2,0.1,0.3C127.7,44.5,127.5,44.9,127.5,45.3
		L127.5,45.3z"/>
	
		<linearGradient id="SVGID_00000008836314681552929470000009980022729073963394_" gradientUnits="userSpaceOnUse" x1="110.2235" y1="-499.82" x2="110.2235" y2="-482.6769" gradientTransform="matrix(1 0 0 -1 0 -441.68)">
		<stop  offset="0" style="stop-color:#808184"/>
		<stop  offset="0.35" style="stop-color:#A8A9AB;stop-opacity:0.65"/>
		<stop  offset="1" style="stop-color:#F0F0F1;stop-opacity:0"/>
	</linearGradient>
	<path style="opacity:0.28;fill:url(#SVGID_00000008836314681552929470000009980022729073963394_);enable-background:new    ;" d="
		M104.1,41.3c2-0.3,6.5-0.7,12.6,0.5c0.7,0.2,1.2,0.8,1.2,1.5c0,1.2-0.1,3-0.9,4.2c-0.2,0.3-0.6,0.3-0.8,0c-0.1-0.2-0.2-0.3-0.3-0.5
		c0-0.1-0.1-0.2-0.2-0.2c-0.4,0-1.3-0.1-1.9-0.2c-0.4-0.1-0.7,0.3-0.7,0.6v9.2c0,0,0,0.8,0.3,1.4c0.1,0.2,0,0.4-0.2,0.4h-6.4
		c-0.2,0-0.3-0.2-0.2-0.4c0.2-0.3,0.3-0.6,0.3-1.1c0-0.7,0.2-7.7,0.3-9.9c0-0.3-0.3-0.6-0.6-0.6h-2.4c-0.1,0-0.2,0.1-0.2,0.2
		c-0.1,0.2-0.2,0.4-0.4,0.6c-0.2,0.3-0.7,0.2-0.8-0.2c-0.2-0.7-0.4-2-0.1-4.2C102.9,41.9,103.4,41.4,104.1,41.3L104.1,41.3z"/>
	
		<linearGradient id="SVGID_00000049209616141441665360000003045477217653473688_" gradientUnits="userSpaceOnUse" x1="83.65" y1="-492.7" x2="83.65" y2="-499.83" gradientTransform="matrix(1 0 0 -1 0 -441.68)">
		<stop  offset="0.14" style="stop-color:#333333"/>
		<stop  offset="0.16" style="stop-color:#393939;stop-opacity:0.98"/>
		<stop  offset="0.33" style="stop-color:#747474;stop-opacity:0.78"/>
		<stop  offset="0.49" style="stop-color:#A6A6A6;stop-opacity:0.59"/>
		<stop  offset="0.64" style="stop-color:#CDCDCD;stop-opacity:0.42"/>
		<stop  offset="0.78" style="stop-color:#E8E8E8;stop-opacity:0.25"/>
		<stop  offset="0.91" style="stop-color:#F9F9F9;stop-opacity:0.11"/>
		<stop  offset="1" style="stop-color:#FFFFFF;stop-opacity:0"/>
	</linearGradient>
	<path style="opacity:0.28;fill:url(#SVGID_00000049209616141441665360000003045477217653473688_);enable-background:new    ;" d="
		M89.8,51.4v4c0,0.4-0.2,0.8-0.4,1.1c-0.6,0.7-2.1,1.7-5.4,1.7c-3.9,0-5.8-2.2-6.5-4.6c1.9-0.6,3.8-1.1,5.7-1.6
		c0.4,0.7,1.3,1.3,2.5,1.3c1.7,0,2.7-1.1,3.3-1.9c0-0.1,0.1-0.1,0.1-0.2C89.3,50.8,89.8,51,89.8,51.4L89.8,51.4z"/>
	
		<linearGradient id="SVGID_00000111902156361257482850000015968736403030252473_" gradientUnits="userSpaceOnUse" x1="96.4732" y1="-490.66" x2="96.4732" y2="-499.83" gradientTransform="matrix(1 0 0 -1 0 -441.68)">
		<stop  offset="0.14" style="stop-color:#333333"/>
		<stop  offset="0.16" style="stop-color:#393939;stop-opacity:0.98"/>
		<stop  offset="0.33" style="stop-color:#747474;stop-opacity:0.78"/>
		<stop  offset="0.49" style="stop-color:#A6A6A6;stop-opacity:0.59"/>
		<stop  offset="0.64" style="stop-color:#CDCDCD;stop-opacity:0.42"/>
		<stop  offset="0.78" style="stop-color:#E8E8E8;stop-opacity:0.25"/>
		<stop  offset="0.91" style="stop-color:#F9F9F9;stop-opacity:0.11"/>
		<stop  offset="1" style="stop-color:#FFFFFF;stop-opacity:0"/>
	</linearGradient>
	<path style="opacity:0.28;fill:url(#SVGID_00000111902156361257482850000015968736403030252473_);enable-background:new    ;" d="
		M100,58.1h-7c-0.2,0-0.3-0.2-0.2-0.3c0.1-0.1,0.2-0.2,0.2-0.4c0.2-0.5,0.3-1.1,0.3-1.7l-0.2-6c2.2-0.3,4.2-0.6,6.3-0.8V56
		c0,0.8,0.3,1.3,0.7,1.7C100.3,57.9,100.1,58.1,100,58.1L100,58.1z"/>
	
		<linearGradient id="SVGID_00000150786104585168080830000003127107223029180086_" gradientUnits="userSpaceOnUse" x1="110.0849" y1="-490.23" x2="110.0849" y2="-499.83" gradientTransform="matrix(1 0 0 -1 0 -441.68)">
		<stop  offset="0.14" style="stop-color:#333333"/>
		<stop  offset="0.16" style="stop-color:#393939;stop-opacity:0.98"/>
		<stop  offset="0.33" style="stop-color:#747474;stop-opacity:0.78"/>
		<stop  offset="0.49" style="stop-color:#A6A6A6;stop-opacity:0.59"/>
		<stop  offset="0.64" style="stop-color:#CDCDCD;stop-opacity:0.42"/>
		<stop  offset="0.78" style="stop-color:#E8E8E8;stop-opacity:0.25"/>
		<stop  offset="0.91" style="stop-color:#F9F9F9;stop-opacity:0.11"/>
		<stop  offset="1" style="stop-color:#FFFFFF;stop-opacity:0"/>
	</linearGradient>
	<path style="opacity:0.28;fill:url(#SVGID_00000150786104585168080830000003127107223029180086_);enable-background:new    ;" d="
		M113.3,58.1h-6.4c-0.2,0-0.3-0.2-0.2-0.4c0.2-0.3,0.3-0.6,0.3-1.1c0-0.6,0.2-5.2,0.2-8.2c2,0,4,0,5.9,0.2v7.7c0,0,0,0.8,0.3,1.4
		C113.6,57.9,113.5,58.1,113.3,58.1z"/>
	
		<linearGradient id="SVGID_00000015315715260021873390000013203697685445858470_" gradientUnits="userSpaceOnUse" x1="124.15" y1="-491.22" x2="124.15" y2="-499.83" gradientTransform="matrix(1 0 0 -1 0 -441.68)">
		<stop  offset="0.14" style="stop-color:#333333"/>
		<stop  offset="0.16" style="stop-color:#393939;stop-opacity:0.98"/>
		<stop  offset="0.33" style="stop-color:#747474;stop-opacity:0.78"/>
		<stop  offset="0.49" style="stop-color:#A6A6A6;stop-opacity:0.59"/>
		<stop  offset="0.64" style="stop-color:#CDCDCD;stop-opacity:0.42"/>
		<stop  offset="0.78" style="stop-color:#E8E8E8;stop-opacity:0.25"/>
		<stop  offset="0.91" style="stop-color:#F9F9F9;stop-opacity:0.11"/>
		<stop  offset="1" style="stop-color:#FFFFFF;stop-opacity:0"/>
	</linearGradient>
	<path style="opacity:0.28;fill:url(#SVGID_00000015315715260021873390000013203697685445858470_);enable-background:new    ;" d="
		M127.8,58.1h-7.3c-0.2,0-0.3-0.2-0.2-0.3c0.3-0.3,0.8-1,0.8-1.7v-6.6c2.2,0.3,4.3,0.8,6.3,1.3l-0.1,4.5c0,0.8,0.2,1.7,0.7,2.4l0,0
		C128.1,57.9,128,58.1,127.8,58.1L127.8,58.1z"/>
	<path class="st7" d="M84,58.4c-5.9,0-6.9-4.8-7.1-6.8c-0.3-3,2.7-7.9,7.4-8.5c3.1-0.4,4.6,0.8,5.2,1.5C89.8,45,90,45.5,90,46v2.9
		c0,0.6-0.2,0.9-0.4,1c-0.2,0.1-0.4,0.1-0.8-0.3c-0.2-0.2-1.6-1.5-3.1-1.3c-1.9,0.3-2.6,1.9-2.6,2.8s1,2,2.5,2s2.7-1.1,3.1-1.8
		c0.1-0.1,0.1-0.1,0.2-0.2c0.2-0.2,0.4-0.3,0.7-0.2c0.3,0.1,0.4,0.3,0.4,0.6v4c0,0.5-0.2,0.9-0.5,1.3C88.8,57.4,87.3,58.4,84,58.4
		L84,58.4z M85.5,43.4c-0.3,0-0.7,0-1.1,0.1c-4.3,0.5-7.2,5.3-7,8c0.2,1.9,1.2,6.4,6.7,6.4c3.2,0,4.6-1,5.2-1.6
		c0.2-0.3,0.4-0.6,0.4-1v-4c0-0.1-0.1-0.2-0.1-0.2s-0.1,0-0.2,0.1c0,0-0.1,0.1-0.1,0.2c-0.5,0.7-1.7,2-3.5,2s-3-1.3-3-2.4
		c0-1.1,0.8-3,2.9-3.2c1.8-0.2,3.3,1.3,3.5,1.4c0.2,0.2,0.3,0.2,0.3,0.2c0.1,0,0.2-0.2,0.2-0.5V46c0-0.4-0.2-0.8-0.4-1.1
		C88.7,44.3,87.6,43.4,85.5,43.4L85.5,43.4z"/>
	<path class="st7" d="M100,58.4h-7c-0.2,0-0.3-0.1-0.4-0.2c-0.1-0.2-0.1-0.3,0-0.4c0.1-0.1,0.1-0.2,0.2-0.3c0.2-0.5,0.3-1,0.3-1.6
		l-0.3-11.3l0,0c0-0.4-0.2-0.7-0.3-0.9c-0.1-0.1-0.2-0.3-0.1-0.4c0-0.2,0.1-0.3,0.3-0.3c2.4-1,5.9-1.2,7.2-1.3
		c0.2,0,0.3,0.1,0.4,0.2c0.1,0.2,0.1,0.3,0,0.4c-0.6,0.8-0.6,1.9-0.6,1.9v12c0,0.8,0.3,1.3,0.6,1.5c0.1,0.1,0.2,0.3,0.1,0.5
		C100.3,58.3,100.1,58.4,100,58.4L100,58.4z M93.3,44.4l0.3,11.3c0,0.6-0.1,1.3-0.3,1.8c-0.1,0.2-0.2,0.3-0.2,0.4h7
		c-0.3-0.3-0.7-0.9-0.7-1.8v-12c0-0.1,0-1.2,0.6-2.1c-1.3,0.1-4.7,0.3-7.1,1.2C93,43.4,93.3,43.9,93.3,44.4L93.3,44.4z"/>
	<path class="st7" d="M127.8,58.4h-7.3c-0.2,0-0.3-0.1-0.4-0.3s0-0.3,0.1-0.5c0.3-0.3,0.7-0.9,0.7-1.5V45c0,0,0-1.3-0.5-2.1
		c-0.1-0.2-0.1-0.3,0-0.5s0.3-0.2,0.4-0.2c1.4,0.2,5,0.7,7.2,1.5c0.1,0.1,0.2,0.2,0.3,0.3s0,0.3-0.1,0.4c-0.3,0.3-0.4,0.6-0.4,0.9
		l0,0l-0.3,10.1c0,0.8,0.2,1.6,0.7,2.2l-0.2,0.2l0.2-0.2c0.1,0.2,0.1,0.3,0,0.5C128.1,58.3,128,58.4,127.8,58.4L127.8,58.4z
		 M120.7,42.7c0.6,1,0.6,2.3,0.6,2.3v11.1c0,0.8-0.4,1.4-0.8,1.8h7.3l0,0c-0.5-0.7-0.8-1.6-0.8-2.5l0.3-10.1c0-0.4,0.3-0.9,0.5-1.2
		C125.6,43.4,122.1,42.9,120.7,42.7L120.7,42.7z"/>
	<path class="st7" d="M113.3,58.4h-6.4c-0.2,0-0.3-0.1-0.4-0.2s-0.1-0.3,0-0.5c0.2-0.2,0.3-0.5,0.3-1c0-0.8,0.2-7.7,0.3-9.9
		c0-0.1,0-0.2-0.1-0.3s-0.2-0.1-0.3-0.1h-2.4c-0.1,0.2-0.2,0.5-0.5,0.7c-0.2,0.2-0.4,0.3-0.6,0.2s-0.4-0.2-0.5-0.5
		c-0.2-0.7-0.4-2.1-0.1-4.3c0.1-0.8,0.7-1.4,1.5-1.5c2.1-0.3,6.6-0.7,12.7,0.5c0.8,0.2,1.4,0.9,1.4,1.7c0,1.3-0.1,3.1-0.9,4.3
		c-0.1,0.2-0.3,0.3-0.6,0.3l0,0c-0.2,0-0.4-0.1-0.6-0.3s-0.2-0.4-0.3-0.6c-0.4,0-1.3-0.1-2-0.2c-0.1,0-0.2,0-0.3,0.1
		c-0.1,0.1-0.2,0.2-0.2,0.3v9.2c0,0,0,0.8,0.3,1.3c0.1,0.2,0.1,0.3,0,0.5C113.6,58.3,113.5,58.4,113.3,58.4L113.3,58.4z M104.3,46
		h2.4c0.2,0,0.4,0.1,0.6,0.3s0.2,0.4,0.2,0.6c-0.1,2.1-0.3,9.1-0.3,9.8c0,0.5-0.2,0.9-0.4,1.2l0,0h6.4c0,0,0,0,0-0.1
		c-0.3-0.5-0.3-1.4-0.3-1.5v-9.2c0-0.2,0.1-0.5,0.3-0.6c0.2-0.2,0.4-0.2,0.7-0.2c0.5,0.1,1.5,0.2,1.9,0.2c0.2,0,0.3,0.2,0.4,0.3
		c0.1,0.2,0.2,0.3,0.3,0.5c0,0.1,0.1,0.1,0.2,0.1s0.2,0,0.2-0.1c0.8-1.1,0.9-2.8,0.8-4c0-0.6-0.5-1.1-1.1-1.3
		c-6-1.2-10.4-0.8-12.6-0.5l0,0c-0.6,0.1-1,0.5-1.1,1.1c-0.3,2.1-0.1,3.4,0.1,4.1c0,0.1,0.2,0.2,0.2,0.2s0.2,0,0.2-0.1
		c0.2-0.2,0.3-0.5,0.4-0.6C103.9,46.1,104.1,46,104.3,46L104.3,46z"/>
</g>
<circle class="st40" cx="47.9" cy="2.6" r="2.5"/>
<circle class="st40" cx="59.5" cy="12.9" r="2.5"/>
<circle class="st40" cx="22.7" cy="12.3" r="2.5"/>
<path class="st7" d="M47.9,5.4c-1.5,0-2.7-1.2-2.7-2.7s1.2-2.6,2.7-2.6s2.7,1.2,2.7,2.7S49.4,5.4,47.9,5.4z M47.9,0.5
	c-1.3,0-2.3,1-2.3,2.3s1,2.3,2.3,2.3c1.3,0,2.3-1,2.3-2.3S49.1,0.5,47.9,0.5z"/>
<path class="st7" d="M59.5,15.6c-1.5,0-2.7-1.2-2.7-2.7s1.2-2.7,2.7-2.7s2.7,1.2,2.7,2.7S60.9,15.6,59.5,15.6z M59.5,10.6
	c-1.3,0-2.3,1-2.3,2.3s1,2.3,2.3,2.3s2.3-1,2.3-2.3S60.7,10.6,59.5,10.6z"/>
<path class="st7" d="M22.7,15c-1.5,0-2.7-1.2-2.7-2.7s1.2-2.7,2.7-2.7s2.7,1.2,2.7,2.7S24.2,15,22.7,15z M22.7,10
	c-1.3,0-2.3,1-2.3,2.3s1,2.3,2.3,2.3s2.3-1,2.3-2.3S23.9,10,22.7,10z"/>
<g>
	<path class="st41" d="M47.9,5.4c-1.5,0-2.7-1.2-2.7-2.7s1.2-2.6,2.7-2.6s2.7,1.2,2.7,2.7S49.4,5.4,47.9,5.4z"/>
</g>
<path class="st42" d="M59.5,15.6c-1.5,0-2.7-1.2-2.7-2.7s1.2-2.7,2.7-2.7s2.7,1.2,2.7,2.7S60.9,15.6,59.5,15.6z"/>
<g>
	<path class="st43" d="M22.7,15c-1.5,0-2.7-1.2-2.7-2.7s1.2-2.7,2.7-2.7s2.7,1.2,2.7,2.7S24.2,15,22.7,15z"/>
</g>
<g>
	<path class="st44" d="M25.3,11.6c-0.3,1.1-1.3,2-2.6,2c-1.2,0-2.3-0.8-2.6-2C20,11.8,20,12.1,20,12.3c0,1.5,1.2,2.7,2.7,2.7
		s2.7-1.2,2.7-2.7C25.4,12.1,25.3,11.8,25.3,11.6z"/>
</g>
<g>
	<path class="st45" d="M50.5,2c-0.3,1.1-1.3,2-2.6,2c-1.2,0-2.3-0.8-2.6-2c-0.1,0.2-0.1,0.5-0.1,0.7c0,1.5,1.2,2.7,2.7,2.7
		s2.7-1.2,2.7-2.7C50.6,2.3,50.6,2.3,50.5,2z"/>
</g>
<path class="st46" d="M62.1,12.2c-0.3,1.1-1.3,2-2.6,2c-1.2,0-2.3-0.8-2.6-2c-0.1,0.2-0.1,0.5-0.1,0.7c0,1.5,1.2,2.7,2.7,2.7
	s2.7-1.2,2.7-2.7C62.1,12.6,62.1,12.4,62.1,12.2z"/>
</svg>

