<svg xmlns="http://www.w3.org/2000/svg" width="146" height="81" viewBox="0 0 146 81" fill="none">
    <g clip-path="url(#clip0_4538_7221)">
        <g filter="url(#filter0_df_4538_7221)">
            <path d="M75.8959 77.3954L140.019 45.5932C140.926 45.1415 141.689 44.4458 142.222 43.5842C142.756 42.7226 143.038 41.7294 143.038 40.716C143.038 39.7027 142.756 38.7095 142.222 37.8479C141.689 36.9863 140.926 36.2906 140.019 35.8389L75.8959 4.01557C74.9932 3.56805 73.9993 3.33521 72.9918 3.33521C71.9842 3.33521 70.9904 3.56805 70.0877 4.01557L5.965 35.8389C5.05791 36.2906 4.29478 36.9863 3.76134 37.8479C3.22791 38.7095 2.94531 39.7027 2.94531 40.716C2.94531 41.7294 3.22791 42.7226 3.76134 43.5842C4.29478 44.4458 5.05791 45.1415 5.965 45.5932L70.1194 77.3954C71.0179 77.8378 72.0061 78.0679 73.0076 78.0679C74.0092 78.0679 74.9973 77.8378 75.8959 77.3954Z" fill="#110635"/>
            <path d="M75.8959 77.3954L140.019 45.5932C140.926 45.1415 141.689 44.4458 142.222 43.5842C142.756 42.7226 143.038 41.7294 143.038 40.716C143.038 39.7027 142.756 38.7095 142.222 37.8479C141.689 36.9863 140.926 36.2906 140.019 35.8389L75.8959 4.01557C74.9932 3.56805 73.9993 3.33521 72.9918 3.33521C71.9842 3.33521 70.9904 3.56805 70.0877 4.01557L5.965 35.8389C5.05791 36.2906 4.29478 36.9863 3.76134 37.8479C3.22791 38.7095 2.94531 39.7027 2.94531 40.716C2.94531 41.7294 3.22791 42.7226 3.76134 43.5842C4.29478 44.4458 5.05791 45.1415 5.965 45.5932L70.1194 77.3954C71.0179 77.8378 72.0061 78.0679 73.0076 78.0679C74.0092 78.0679 74.9973 77.8378 75.8959 77.3954Z" stroke="#00FFB2" stroke-width="1.81818" stroke-linejoin="round"/>
        </g>
        <path d="M75.8959 77.3954L140.019 45.5932C140.926 45.1415 141.689 44.4458 142.222 43.5842C142.756 42.7226 143.038 41.7294 143.038 40.716C143.038 39.7027 142.756 38.7095 142.222 37.8479C141.689 36.9863 140.926 36.2906 140.019 35.8389L75.8959 4.01557C74.9932 3.56805 73.9993 3.33521 72.9918 3.33521C71.9842 3.33521 70.9904 3.56805 70.0877 4.01557L5.965 35.8389C5.05791 36.2906 4.29478 36.9863 3.76134 37.8479C3.22791 38.7095 2.94531 39.7027 2.94531 40.716C2.94531 41.7294 3.22791 42.7226 3.76134 43.5842C4.29478 44.4458 5.05791 45.1415 5.965 45.5932L70.1194 77.3954C71.0179 77.8378 72.0061 78.0679 73.0076 78.0679C74.0092 78.0679 74.9973 77.8378 75.8959 77.3954Z" fill="#110635" stroke="#00FFB2" stroke-width="0.909091" stroke-linejoin="round"/>
        <g filter="url(#filter1_df_4538_7221)">
            <path d="M75.618 73.9147L138.64 42.6627C139.004 42.4839 139.311 42.2068 139.525 41.8627C139.739 41.5187 139.853 41.1214 139.853 40.716C139.853 40.3107 139.739 39.9134 139.525 39.5693C139.311 39.2252 139.004 38.9481 138.64 38.7694L75.618 7.49622C74.7968 7.0856 73.8913 6.87183 72.9732 6.87183C72.055 6.87183 71.1495 7.0856 70.3283 7.49622L7.3376 38.78C6.97375 38.9587 6.66728 39.2358 6.45294 39.5799C6.23861 39.924 6.125 40.3212 6.125 40.7266C6.125 41.132 6.23861 41.5292 6.45294 41.8733C6.66728 42.2174 6.97375 42.4945 7.3376 42.6732L70.36 73.9147C71.1771 74.3202 72.0769 74.5312 72.989 74.5312C73.9012 74.5312 74.801 74.3202 75.618 73.9147Z" stroke="#00FFB2" stroke-width="1.05796" stroke-linejoin="round" shape-rendering="crispEdges"/>
        </g>
        <g filter="url(#filter2_f_4538_7221)">
            <path d="M75.618 73.9147L138.64 42.6627C139.004 42.4839 139.311 42.2068 139.525 41.8627C139.739 41.5187 139.853 41.1214 139.853 40.716C139.853 40.3107 139.739 39.9134 139.525 39.5693C139.311 39.2252 139.004 38.9481 138.64 38.7694L75.618 7.49622C74.7968 7.0856 73.8913 6.87183 72.9732 6.87183C72.055 6.87183 71.1495 7.0856 70.3283 7.49622L7.3376 38.78C6.97375 38.9587 6.66728 39.2358 6.45294 39.5799C6.23861 39.924 6.125 40.3212 6.125 40.7266C6.125 41.132 6.23861 41.5292 6.45294 41.8733C6.66728 42.2174 6.97375 42.4945 7.3376 42.6732L70.36 73.9147C71.1771 74.3202 72.0769 74.5312 72.989 74.5312C73.9012 74.5312 74.801 74.3202 75.618 73.9147Z" stroke="#00FFB2" stroke-width="1.05796" stroke-linejoin="round"/>
        </g>
        <path d="M75.618 73.9147L138.64 42.6627C139.004 42.4839 139.311 42.2068 139.525 41.8627C139.739 41.5187 139.853 41.1214 139.853 40.716C139.853 40.3107 139.739 39.9134 139.525 39.5693C139.311 39.2252 139.004 38.9481 138.64 38.7694L75.618 7.49622C74.7968 7.0856 73.8913 6.87183 72.9732 6.87183C72.055 6.87183 71.1495 7.0856 70.3283 7.49622L7.3376 38.78C6.97375 38.9587 6.66728 39.2358 6.45294 39.5799C6.23861 39.924 6.125 40.3212 6.125 40.7266C6.125 41.132 6.23861 41.5292 6.45294 41.8733C6.66728 42.2174 6.97375 42.4945 7.3376 42.6732L70.36 73.9147C71.1771 74.3202 72.0769 74.5312 72.989 74.5312C73.9012 74.5312 74.801 74.3202 75.618 73.9147Z" stroke="#00FFB2" stroke-width="0.909091" stroke-linejoin="round"/>
        <g filter="url(#filter3_f_4538_7221)">
            <path fill-rule="evenodd" clip-rule="evenodd" d="M107.999 47.3624C108.368 47.8467 108.627 48.4043 108.76 48.9974C108.871 50.0849 108.555 51.1727 107.879 52.0342L103.097 59.1713V63.0742C103.095 63.5637 103.047 64.0519 102.953 64.5323C102.79 65.3779 102.299 66.1257 101.587 66.6154C100.755 67.1357 99.7796 67.3813 98.7992 67.317C97.8151 67.3844 96.835 67.1387 96.0004 66.6154C95.2837 66.1206 94.7925 65.3639 94.6341 64.5104C94.5439 64.0185 94.4997 63.5194 94.5019 63.0194V59.1713L89.6977 51.9794C89.3376 51.5375 89.0758 51.0247 88.9296 50.4748C88.7833 49.9249 88.7559 49.3503 88.8492 48.7891C89.001 48.231 89.2648 47.7092 89.6246 47.2551C89.9844 46.8011 90.4328 46.4241 90.9428 46.147C91.5718 45.692 92.2943 45.3812 93.0584 45.237C93.9168 45.1086 94.7915 45.3212 95.4936 45.829C96.0823 46.2559 96.5741 46.8012 96.937 47.4297L98.7552 50.3459L100.683 47.4297C101.061 46.8019 101.559 46.2543 102.149 45.8181C102.501 45.5735 102.899 45.4019 103.319 45.3134C103.74 45.2249 104.174 45.2213 104.595 45.3028C105.322 45.4671 106.01 45.7686 106.623 46.1908C107.161 46.4785 107.63 46.8781 107.999 47.3624ZM99.24 63.0742V58.0092L104.628 49.8854C104.65 49.8544 104.673 49.8252 104.694 49.7977C104.748 49.728 104.793 49.6695 104.793 49.6223L104.485 49.3921C104.357 49.3077 104.225 49.2309 104.088 49.1619C104.033 49.2386 103.956 49.3482 103.857 49.4908L98.6229 57.5049L93.5983 49.4579C93.5373 49.3559 93.4711 49.2571 93.4 49.1619C93.2865 49.226 93.1762 49.2955 93.0694 49.3702C92.9509 49.4477 92.8368 49.5319 92.7278 49.6223L92.8931 49.8306L98.4026 58.0092V63.0194V63.4689C98.6813 63.49 98.9612 63.49 99.24 63.4689V63.0742ZM52.5838 55.1934C51.955 55.2556 51.3214 55.1371 50.7582 54.8521C50.4357 54.6794 50.123 54.4891 49.8216 54.282L49.4249 54.0298C49.3214 53.9852 49.2145 53.9485 49.1054 53.9202C48.8595 53.8663 48.6076 53.8442 48.3561 53.8544C48.0563 53.8623 47.7593 53.9141 47.4746 54.0079C47.1588 54.1179 46.8643 54.281 46.6041 54.4903C46.3569 54.6844 46.1573 54.9318 46.0201 55.2138C45.8525 55.5894 45.7733 55.9982 45.7887 56.4088C45.7714 56.8161 45.8507 57.2217 46.0201 57.5929C46.158 57.8807 46.3573 58.1351 46.6041 58.3384C46.8718 58.5459 47.1738 58.7054 47.4966 58.8098C47.9852 58.9787 48.5107 59.0127 49.0172 58.9085C49.1477 58.8771 49.2736 58.8292 49.3919 58.7659L49.9318 58.437C50.2085 58.2409 50.5037 58.072 50.8133 57.9327C51.3908 57.6557 52.0368 57.5517 52.6726 57.6335C53.3085 57.7152 53.9067 57.9792 54.3944 58.3932C54.904 58.8483 55.3423 59.3767 55.6946 59.9609C55.9414 60.3292 56.1482 60.7224 56.3117 61.134C56.482 61.5674 56.5716 62.0281 56.5762 62.4934C56.585 62.9614 56.4909 63.4255 56.3006 63.8535C56.1103 64.2815 55.8283 64.6629 55.4743 64.9711C55.0878 65.2935 54.675 65.5832 54.2402 65.8372L53.4799 66.2977C52.8422 66.6679 52.1613 66.9588 51.4524 67.1638C50.4779 67.4383 49.4679 67.5677 48.4553 67.5475C47.5354 67.534 46.621 67.4051 45.7336 67.1638C44.7044 66.9055 43.7122 66.5187 42.7805 66.0126C41.7539 65.4279 40.8246 64.6882 40.0258 63.82C39.1473 62.8775 38.4524 61.7808 37.9763 60.5858C37.4402 59.217 37.1781 57.7571 37.205 56.2882C37.1804 54.8541 37.4465 53.4298 37.9873 52.1003C38.4706 50.941 39.1613 49.8786 40.0258 48.9648C40.8298 48.1217 41.7633 47.4112 42.7916 46.8598C43.7245 46.3512 44.7161 45.9573 45.7446 45.6868C47.6062 45.157 49.5798 45.157 51.4414 45.6868C52.1274 45.8924 52.7917 46.1641 53.4248 46.4981C53.9206 46.7721 54.2291 46.9585 54.3503 47.0353C54.7609 47.3025 55.1513 47.5993 55.5183 47.9233C55.8712 48.2372 56.1521 48.6228 56.3422 49.054C56.5323 49.4852 56.6271 49.9521 56.6202 50.4229C56.6175 50.9001 56.524 51.3726 56.3448 51.8152C56.1762 52.2523 55.9502 52.6652 55.6726 53.0431C55.2952 53.5962 54.8344 54.088 54.3063 54.5012C53.8104 54.891 53.2127 55.1312 52.5838 55.1934ZM41.9211 56.4088C41.9027 55.3957 42.1255 54.3927 42.5712 53.4816C42.969 52.6795 43.5456 51.9783 44.2571 51.4315C44.8779 50.9484 45.579 50.5774 46.3286 50.3352C47.5773 49.9332 48.9155 49.8951 50.1852 50.2256C50.6082 50.3395 51.0153 50.5052 51.3973 50.7189L51.9372 51.1355L52.1356 51.2561C52.2705 51.111 52.3957 50.9572 52.5102 50.7956L52.6314 50.6093L52.1906 50.2804L51.5295 49.9076C51.1275 49.6952 50.7071 49.5191 50.2734 49.3814C49.7118 49.2177 49.1285 49.1401 48.5434 49.1512C47.9215 49.1639 47.3036 49.2522 46.7033 49.4143C45.9785 49.6046 45.2794 49.8806 44.6207 50.2365C43.9527 50.5956 43.3464 51.0582 42.8246 51.6069C42.2724 52.2019 41.8353 52.8932 41.5354 53.6461C41.1999 54.5013 41.0388 55.4143 41.0616 56.3321C41.0373 57.3009 41.2019 58.2651 41.5464 59.1716C41.8451 59.9283 42.2823 60.6235 42.8356 61.2217C43.3671 61.7916 43.9841 62.2761 44.6648 62.6579C45.3063 63.02 45.9912 63.3 46.7033 63.4911C47.884 63.8292 49.1367 63.8292 50.3174 63.4911C50.7205 63.38 51.1089 63.2218 51.4744 63.0197L52.2898 62.5263L52.6314 62.2961L52.4771 62.033C52.3757 61.877 52.2653 61.7269 52.1466 61.5835C51.838 61.7918 51.5626 61.9562 51.2651 62.1207C50.8555 62.3443 50.4184 62.5138 49.9648 62.625C48.7727 62.9071 47.5252 62.8539 46.3617 62.4715C45.6081 62.2307 44.9031 61.8596 44.2791 61.3752C43.5776 60.8403 43.0022 60.1593 42.5932 59.3799C42.1285 58.4591 41.8977 57.439 41.9211 56.4088ZM62.4175 45.4993C63.4032 45.4304 64.3849 45.6804 65.2163 46.2119C65.9175 46.7029 66.3996 47.4459 66.5606 48.2839C66.6512 48.7758 66.6955 49.2749 66.6928 49.7749V63.0185C66.6939 63.5076 66.6496 63.9957 66.5606 64.4767C66.3994 65.3262 65.9086 66.0784 65.1942 66.5706C64.3628 67.0917 63.3869 67.3373 62.4065 67.2723C61.4335 67.3319 60.4662 67.0865 59.6407 66.5706C58.924 66.0759 58.4328 65.3192 58.2744 64.4657C58.1848 63.9811 58.1406 63.4893 58.1422 62.9966V49.753C58.1327 49.2646 58.1696 48.7764 58.2524 48.2949C58.4162 47.4436 58.9112 46.6911 59.6297 46.2009C60.4611 45.6799 61.4371 45.4342 62.4175 45.4993ZM61.9988 63.0076C61.9919 63.1464 61.9919 63.2854 61.9988 63.4242C62.2702 63.4445 62.5428 63.4445 62.8142 63.4242V63.0295V49.7859V49.3583C62.5428 49.3376 62.2702 49.3376 61.9988 49.3583V49.753V63.0076ZM85.191 45.5764C84.7726 45.5029 84.3486 45.4663 83.9238 45.4668H72.1557C71.742 45.4698 71.3292 45.5064 70.9216 45.5764C70.5179 45.642 70.1315 45.7873 69.7851 46.0038C69.4388 46.2204 69.1396 46.5037 68.9051 46.8372C68.4247 47.5799 68.1932 48.455 68.244 49.3368C68.1861 50.2296 68.4178 51.1174 68.9051 51.8693C69.3614 52.5202 70.0518 52.9717 70.8334 53.1301C71.2578 53.2158 71.6896 53.2599 72.1226 53.2616H73.7754V63.0518C73.7751 63.5258 73.8157 63.999 73.8966 64.4661C73.969 64.8923 74.1274 65.2995 74.3622 65.6631C74.5971 66.0268 74.9035 66.3393 75.263 66.582C76.0727 67.0863 77.02 67.3277 77.9736 67.2727C78.9441 67.3374 79.9108 67.0998 80.7394 66.593C81.4465 66.1085 81.9366 65.3694 82.1057 64.5319C82.1953 64.0547 82.2396 63.5702 82.2379 63.0847V53.2178H83.8687C84.2931 53.2203 84.717 53.1873 85.1359 53.1191C85.5472 53.0517 85.9403 52.9011 86.2909 52.6768C86.6415 52.4524 86.9421 52.1589 87.1744 51.8145C87.6387 51.0697 87.8618 50.201 87.8135 49.3258C87.8706 48.4331 87.6389 47.5456 87.1523 46.7933C86.6858 46.1458 85.9807 45.7083 85.191 45.5764ZM78.4144 49.4135V63.0738V63.4246C78.1649 63.4415 77.9146 63.4415 77.6651 63.4246V63.0518V49.4245H72.1557V49.3478H83.9569V49.4574H78.4474L78.4144 49.4135Z" fill="#F30AA4"/>
        </g>
        <g filter="url(#filter4_df_4538_7221)">
            <path fill-rule="evenodd" clip-rule="evenodd" d="M107.999 47.3624C108.368 47.8467 108.627 48.4043 108.76 48.9974C108.871 50.0849 108.555 51.1727 107.879 52.0342L103.097 59.1713V63.0742C103.095 63.5637 103.047 64.0519 102.953 64.5323C102.79 65.3779 102.299 66.1257 101.587 66.6154C100.755 67.1357 99.7796 67.3813 98.7992 67.317C97.8151 67.3844 96.835 67.1387 96.0004 66.6154C95.2837 66.1206 94.7925 65.3639 94.6341 64.5104C94.5439 64.0185 94.4997 63.5194 94.5019 63.0194V59.1713L89.6977 51.9794C89.3376 51.5375 89.0758 51.0247 88.9296 50.4748C88.7833 49.9249 88.7559 49.3503 88.8492 48.7891C89.001 48.231 89.2648 47.7092 89.6246 47.2551C89.9844 46.8011 90.4328 46.4241 90.9428 46.147C91.5718 45.692 92.2943 45.3812 93.0584 45.237C93.9168 45.1086 94.7915 45.3212 95.4936 45.829C96.0823 46.2559 96.5741 46.8012 96.937 47.4297L98.7552 50.3459L100.683 47.4297C101.061 46.8019 101.559 46.2543 102.149 45.8181C102.501 45.5735 102.899 45.4019 103.319 45.3134C103.74 45.2249 104.174 45.2213 104.595 45.3028C105.322 45.4671 106.01 45.7686 106.623 46.1908C107.161 46.4785 107.63 46.8781 107.999 47.3624ZM99.24 63.0742V58.0092L104.628 49.8854C104.65 49.8544 104.673 49.8252 104.694 49.7977C104.748 49.728 104.793 49.6695 104.793 49.6223L104.485 49.3921C104.357 49.3077 104.225 49.2309 104.088 49.1619C104.033 49.2386 103.956 49.3482 103.857 49.4908L98.6229 57.5049L93.5983 49.4579C93.5373 49.3559 93.4711 49.2571 93.4 49.1619C93.2865 49.226 93.1762 49.2955 93.0694 49.3702C92.9509 49.4477 92.8368 49.5319 92.7278 49.6223L92.8931 49.8306L98.4026 58.0092V63.0194V63.4689C98.6813 63.49 98.9612 63.49 99.24 63.4689V63.0742ZM52.5838 55.1934C51.955 55.2556 51.3214 55.1371 50.7582 54.8521C50.4357 54.6794 50.123 54.4891 49.8216 54.282L49.4249 54.0298C49.3214 53.9852 49.2145 53.9485 49.1054 53.9202C48.8595 53.8663 48.6076 53.8442 48.3561 53.8544C48.0563 53.8623 47.7593 53.9141 47.4746 54.0079C47.1588 54.1179 46.8643 54.281 46.6041 54.4903C46.3569 54.6844 46.1573 54.9318 46.0201 55.2138C45.8525 55.5894 45.7733 55.9982 45.7887 56.4088C45.7714 56.8161 45.8507 57.2217 46.0201 57.5929C46.158 57.8807 46.3573 58.1351 46.6041 58.3384C46.8718 58.5459 47.1738 58.7054 47.4966 58.8098C47.9852 58.9787 48.5107 59.0127 49.0172 58.9085C49.1477 58.8771 49.2736 58.8292 49.3919 58.7659L49.9318 58.437C50.2085 58.2409 50.5037 58.072 50.8133 57.9327C51.3908 57.6557 52.0368 57.5517 52.6726 57.6335C53.3085 57.7152 53.9067 57.9792 54.3944 58.3932C54.904 58.8483 55.3423 59.3767 55.6946 59.9609C55.9414 60.3292 56.1482 60.7224 56.3117 61.134C56.482 61.5674 56.5716 62.0281 56.5762 62.4934C56.585 62.9614 56.4909 63.4255 56.3006 63.8535C56.1103 64.2815 55.8283 64.6629 55.4743 64.9711C55.0878 65.2935 54.675 65.5832 54.2402 65.8372L53.4799 66.2977C52.8422 66.6679 52.1613 66.9588 51.4524 67.1638C50.4779 67.4383 49.4679 67.5677 48.4553 67.5475C47.5354 67.534 46.621 67.4051 45.7336 67.1638C44.7044 66.9055 43.7122 66.5187 42.7805 66.0126C41.7539 65.4279 40.8246 64.6882 40.0258 63.82C39.1473 62.8775 38.4524 61.7808 37.9763 60.5858C37.4402 59.217 37.1781 57.7571 37.205 56.2882C37.1804 54.8541 37.4465 53.4298 37.9873 52.1003C38.4706 50.941 39.1613 49.8786 40.0258 48.9648C40.8298 48.1217 41.7633 47.4112 42.7916 46.8598C43.7245 46.3512 44.7161 45.9573 45.7446 45.6868C47.6062 45.157 49.5798 45.157 51.4414 45.6868C52.1274 45.8924 52.7917 46.1641 53.4248 46.4981C53.9206 46.7721 54.2291 46.9585 54.3503 47.0353C54.7609 47.3025 55.1513 47.5993 55.5183 47.9233C55.8712 48.2372 56.1521 48.6228 56.3422 49.054C56.5323 49.4852 56.6271 49.9521 56.6202 50.4229C56.6175 50.9001 56.524 51.3726 56.3448 51.8152C56.1762 52.2523 55.9502 52.6652 55.6726 53.0431C55.2952 53.5962 54.8344 54.088 54.3063 54.5012C53.8104 54.891 53.2127 55.1312 52.5838 55.1934ZM41.9211 56.4088C41.9027 55.3957 42.1255 54.3927 42.5712 53.4816C42.969 52.6795 43.5456 51.9783 44.2571 51.4315C44.8779 50.9484 45.579 50.5774 46.3286 50.3352C47.5773 49.9332 48.9155 49.8951 50.1852 50.2256C50.6082 50.3395 51.0153 50.5052 51.3973 50.7189L51.9372 51.1355L52.1356 51.2561C52.2705 51.111 52.3957 50.9572 52.5102 50.7956L52.6314 50.6093L52.1906 50.2804L51.5295 49.9076C51.1275 49.6952 50.7071 49.5191 50.2734 49.3814C49.7118 49.2177 49.1285 49.1401 48.5434 49.1512C47.9215 49.1639 47.3036 49.2522 46.7033 49.4143C45.9785 49.6046 45.2794 49.8806 44.6207 50.2365C43.9527 50.5956 43.3464 51.0582 42.8246 51.6069C42.2724 52.2019 41.8353 52.8932 41.5354 53.6461C41.1999 54.5013 41.0388 55.4143 41.0616 56.3321C41.0373 57.3009 41.2019 58.2651 41.5464 59.1716C41.8451 59.9283 42.2823 60.6235 42.8356 61.2217C43.3671 61.7916 43.9841 62.2761 44.6648 62.6579C45.3063 63.02 45.9912 63.3 46.7033 63.4911C47.884 63.8292 49.1367 63.8292 50.3174 63.4911C50.7205 63.38 51.1089 63.2218 51.4744 63.0197L52.2898 62.5263L52.6314 62.2961L52.4771 62.033C52.3757 61.877 52.2653 61.7269 52.1466 61.5835C51.838 61.7918 51.5626 61.9562 51.2651 62.1207C50.8555 62.3443 50.4184 62.5138 49.9648 62.625C48.7727 62.9071 47.5252 62.8539 46.3617 62.4715C45.6081 62.2307 44.9031 61.8596 44.2791 61.3752C43.5776 60.8403 43.0022 60.1593 42.5932 59.3799C42.1285 58.4591 41.8977 57.439 41.9211 56.4088ZM62.4175 45.4993C63.4032 45.4304 64.3849 45.6804 65.2163 46.2119C65.9175 46.7029 66.3996 47.4459 66.5606 48.2839C66.6512 48.7758 66.6955 49.2749 66.6928 49.7749V63.0185C66.6939 63.5076 66.6496 63.9957 66.5606 64.4767C66.3994 65.3262 65.9086 66.0784 65.1942 66.5706C64.3628 67.0917 63.3869 67.3373 62.4065 67.2723C61.4335 67.3319 60.4662 67.0865 59.6407 66.5706C58.924 66.0759 58.4328 65.3192 58.2744 64.4657C58.1848 63.9811 58.1406 63.4893 58.1422 62.9966V49.753C58.1327 49.2646 58.1696 48.7764 58.2524 48.2949C58.4162 47.4436 58.9112 46.6911 59.6297 46.2009C60.4611 45.6799 61.4371 45.4342 62.4175 45.4993ZM61.9988 63.0076C61.9919 63.1464 61.9919 63.2854 61.9988 63.4242C62.2702 63.4445 62.5428 63.4445 62.8142 63.4242V63.0295V49.7859V49.3583C62.5428 49.3376 62.2702 49.3376 61.9988 49.3583V49.753V63.0076ZM85.191 45.5764C84.7726 45.5029 84.3486 45.4663 83.9238 45.4668H72.1557C71.742 45.4698 71.3292 45.5064 70.9216 45.5764C70.5179 45.642 70.1315 45.7873 69.7851 46.0038C69.4388 46.2204 69.1396 46.5037 68.9051 46.8372C68.4247 47.5799 68.1932 48.455 68.244 49.3368C68.1861 50.2296 68.4178 51.1174 68.9051 51.8693C69.3614 52.5202 70.0518 52.9717 70.8334 53.1301C71.2578 53.2158 71.6896 53.2599 72.1226 53.2616H73.7754V63.0518C73.7751 63.5258 73.8157 63.999 73.8966 64.4661C73.969 64.8923 74.1274 65.2995 74.3622 65.6631C74.5971 66.0268 74.9035 66.3393 75.263 66.582C76.0727 67.0863 77.02 67.3277 77.9736 67.2727C78.9441 67.3374 79.9108 67.0998 80.7394 66.593C81.4465 66.1085 81.9366 65.3694 82.1057 64.5319C82.1953 64.0547 82.2396 63.5702 82.2379 63.0847V53.2178H83.8687C84.2931 53.2203 84.717 53.1873 85.1359 53.1191C85.5472 53.0517 85.9403 52.9011 86.2909 52.6768C86.6415 52.4524 86.9421 52.1589 87.1744 51.8145C87.6387 51.0697 87.8618 50.201 87.8135 49.3258C87.8706 48.4331 87.6389 47.5456 87.1523 46.7933C86.6858 46.1458 85.9807 45.7083 85.191 45.5764ZM78.4144 49.4135V63.0738V63.4246C78.1649 63.4415 77.9146 63.4415 77.6651 63.4246V63.0518V49.4245H72.1557V49.3478H83.9569V49.4574H78.4474L78.4144 49.4135Z" fill="#F30AA4"/>
        </g>
        <path d="M48.4488 66.7154C47.5999 66.7037 46.7559 66.5858 45.9365 66.3646C44.9793 66.1151 44.0575 65.7468 43.1928 65.2682C42.2417 64.7348 41.3794 64.058 40.6364 63.262C39.8231 62.3903 39.1803 61.3753 38.7412 60.269C38.2449 59.0013 38.0016 57.6496 38.025 56.2893C38.0016 54.9682 38.2452 53.6559 38.7412 52.4303C39.1873 51.3596 39.8258 50.3788 40.6254 49.536C41.3677 48.7542 42.2307 48.0954 43.1818 47.5845C44.0557 47.1091 44.9844 46.7409 45.9475 46.4882C47.6607 45.9948 49.4793 45.9948 51.1925 46.4882C51.8252 46.6814 52.4377 46.9348 53.0216 47.2447C53.4844 47.4968 53.7709 47.6613 53.8811 47.738C54.2682 47.9848 54.6365 48.2597 54.983 48.5602C55.2502 48.7959 55.4625 49.0867 55.6052 49.4124C55.748 49.7381 55.8176 50.0907 55.8094 50.4459C55.8061 50.8219 55.7313 51.1939 55.589 51.5423C55.4447 51.8936 55.2558 52.2252 55.0271 52.5289C54.6953 53.0153 54.2902 53.448 53.826 53.8116C53.4519 54.11 52.9993 54.2945 52.5223 54.3432C52.0454 54.3918 51.5645 54.3024 51.1374 54.0857C50.846 53.9364 50.5627 53.7717 50.289 53.5924L49.8592 53.3183C49.6863 53.2426 49.5051 53.1875 49.3193 53.1538C48.9983 53.0775 48.6685 53.0443 48.3386 53.0552C47.9637 53.0677 47.5925 53.1342 47.2367 53.2525C46.8387 53.387 46.4662 53.5871 46.1349 53.8445C45.7897 54.1149 45.5109 54.4598 45.3195 54.8532C45.0614 55.3365 44.9217 55.8737 44.9118 56.4209C44.8892 56.9615 44.9989 57.4995 45.2313 57.9886C45.432 58.3824 45.718 58.7269 46.0687 58.9973C46.4001 59.2547 46.7726 59.4548 47.1706 59.5893C47.8055 59.8051 48.4879 59.843 49.143 59.6989C49.3427 59.6506 49.5353 59.5769 49.716 59.4796C49.9364 59.359 50.1347 59.2385 50.322 59.1179C50.5644 58.9474 50.8227 58.8006 51.0933 58.6793C51.5296 58.4656 52.0197 58.3849 52.5019 58.4473C52.9842 58.5097 53.4371 58.7125 53.804 59.0301C54.235 59.4241 54.6062 59.8784 54.9059 60.3786C55.1175 60.6991 55.2948 61.0409 55.4348 61.3982C55.5723 61.7476 55.6433 62.1193 55.6441 62.4945C55.6514 62.8458 55.5801 63.1944 55.4352 63.5148C55.2904 63.8353 55.0757 64.1197 54.8067 64.3473C54.4621 64.6437 54.0935 64.9114 53.7048 65.1476L52.9335 65.6081C52.3543 65.9412 51.7363 66.2026 51.0933 66.3865C50.2319 66.62 49.3415 66.7307 48.4488 66.7154ZM48.5259 48.341C47.8336 48.3518 47.1452 48.4475 46.4764 48.626C45.6905 48.8312 44.9322 49.1293 44.2176 49.5141C43.4752 49.9172 42.802 50.4353 42.2232 51.0489C41.6141 51.6881 41.1253 52.4307 40.7797 53.2416C40.3994 54.1968 40.2158 55.2183 40.2398 56.2455C40.2169 57.3199 40.404 58.3885 40.7907 59.3919C41.1261 60.2376 41.6155 61.0143 42.2342 61.6833C42.8194 62.3336 43.5035 62.8885 44.2617 63.3277C44.9553 63.7212 45.6956 64.0269 46.4654 64.2377C47.7933 64.6217 49.2035 64.6217 50.5314 64.2377C51.0001 64.1047 51.4513 63.917 51.8757 63.6786L52.6801 63.1962C52.9597 63.0279 53.225 62.8373 53.4734 62.6261C53.4734 62.6261 53.5395 62.6261 53.5395 62.4397C53.5343 62.3416 53.512 62.2451 53.4734 62.1547C53.3888 61.9429 53.2817 61.7408 53.1539 61.5517C52.9613 61.2344 52.7238 60.9464 52.4487 60.6966C52.3988 60.6475 52.3386 60.61 52.2724 60.5869C52.207 60.5733 52.1394 60.5733 52.074 60.5869C51.923 60.657 51.779 60.7415 51.6443 60.8391C51.3798 61.0145 51.1264 61.168 50.8509 61.3215C50.5038 61.511 50.1334 61.6547 49.749 61.749C48.7125 62.016 47.622 61.9933 46.5976 61.6833C45.941 61.4768 45.3257 61.1578 44.7795 60.7404C44.1735 60.2755 43.6771 59.6843 43.325 59.0082C42.909 58.2092 42.6971 57.3207 42.708 56.4209C42.6906 55.5373 42.8831 54.662 43.27 53.8665C43.6181 53.1692 44.1234 52.5614 44.7465 52.0904C45.2928 51.6733 45.908 51.3542 46.5646 51.1476C47.6582 50.7885 48.8326 50.7504 49.9474 51.0379C50.305 51.1341 50.6492 51.274 50.9721 51.4545L51.5231 51.8163C51.7187 51.9439 51.921 52.061 52.1291 52.1672C52.1798 52.1797 52.2327 52.1797 52.2834 52.1672C52.3696 52.1473 52.4493 52.1058 52.5148 52.0466C52.7962 51.8134 53.0413 51.54 53.242 51.2353C53.3553 51.0758 53.4479 50.9026 53.5175 50.72C53.558 50.6263 53.5805 50.5259 53.5836 50.424C53.5836 50.2486 53.5836 50.2157 53.5065 50.1828C53.2266 49.9755 52.932 49.7886 52.625 49.6237L51.9087 49.218C51.4466 48.9805 50.9634 48.7859 50.4653 48.637C49.8372 48.4429 49.1836 48.3431 48.5259 48.341Z" fill="white"/>
        <path d="M62.3864 66.4516C61.5839 66.5084 60.7834 66.317 60.0945 65.9034C59.5512 65.531 59.1787 64.9593 59.0587 64.3138C58.9778 63.8799 58.9373 63.4395 58.9375 62.9982V49.7546C58.9365 49.3169 58.9771 48.8801 59.0587 48.4499C59.1814 47.8085 59.5536 47.2411 60.0945 46.8712C60.7894 46.4526 61.5985 46.2609 62.4085 46.3231C63.2273 46.2549 64.0464 46.4509 64.7445 46.8822C65.2738 47.2544 65.6372 47.8164 65.7582 48.4499C65.8284 48.8885 65.8579 49.3326 65.8463 49.7765V63.0311C65.8468 63.4687 65.8062 63.9055 65.7251 64.3357C65.6135 64.9645 65.2622 65.5261 64.7445 65.9034C64.0368 66.3304 63.211 66.5224 62.3864 66.4516ZM62.4085 48.5267C62.0567 48.4908 61.7015 48.5397 61.3727 48.6692C61.2405 48.7569 61.2294 48.8227 61.2184 48.8666C61.1605 49.1628 61.1309 49.4638 61.1303 49.7655V62.9982C61.1311 63.3036 61.1606 63.6082 61.2184 63.9081C61.2246 63.9515 61.2408 63.9928 61.2656 64.0289C61.2905 64.065 61.3233 64.095 61.3617 64.1164C61.6826 64.2462 62.0309 64.2952 62.3754 64.259C62.7272 64.2948 63.0824 64.2459 63.4112 64.1164C63.5434 64.0287 63.5544 63.9629 63.5654 63.9191C63.6228 63.6228 63.6523 63.3218 63.6536 63.0201V49.7765C63.6526 49.4675 63.6231 49.1592 63.5654 48.8556C63.557 48.8145 63.5398 48.7756 63.5151 48.7416C63.4905 48.7076 63.4588 48.6792 63.4222 48.6583C63.0993 48.5359 62.7521 48.4909 62.4085 48.5267Z" fill="white"/>
        <path d="M77.9732 66.4526C77.1814 66.5061 76.3924 66.3147 75.7143 65.9044C75.442 65.725 75.2088 65.4927 75.0289 65.2214C74.849 64.9501 74.7261 64.6455 74.6675 64.3257C74.5946 63.9057 74.5577 63.4802 74.5574 63.054V52.4416H72.1332C71.7632 52.44 71.3943 52.4033 71.0313 52.3319C70.4548 52.2144 69.9459 51.8807 69.6099 51.4001C69.2272 50.7872 69.0497 50.0694 69.103 49.3499C69.0575 48.6415 69.2346 47.9365 69.6099 47.3327C69.7688 47.0768 69.979 46.8561 70.2273 46.6845C70.4757 46.5129 70.7568 46.3939 71.0534 46.335C71.4176 46.276 71.7862 46.2467 72.1552 46.2473H83.9344C84.3039 46.2484 84.6726 46.2814 85.0363 46.346C85.3246 46.3971 85.5997 46.5049 85.8457 46.663C86.0916 46.8211 86.3034 47.0264 86.4687 47.2669C86.8507 47.88 87.0282 48.5976 86.9756 49.317C87.0194 50.0239 86.8465 50.7273 86.4798 51.3343C86.314 51.5845 86.0984 51.7982 85.8463 51.9622C85.5943 52.1263 85.3111 52.2372 85.0143 52.2881C84.65 52.3475 84.2815 52.3768 83.9124 52.3758H81.4552V63.0211C81.4418 63.4789 81.3828 63.9343 81.2789 64.3805C81.1553 65.01 80.7871 65.5656 80.2541 65.9264C79.5654 66.3287 78.7696 66.5123 77.9732 66.4526ZM72.1552 48.5277C71.8913 48.5049 71.6258 48.5049 71.3619 48.5277C71.3619 48.5277 71.2297 48.736 71.2297 49.317C71.2088 49.5805 71.2425 49.8455 71.3288 50.0954C71.5732 50.1797 71.8306 50.2205 72.0891 50.216H76.7721V63.054C76.7724 63.3553 76.7982 63.656 76.8493 63.953C76.8493 63.953 76.8493 64.0297 76.9815 64.1174C77.2945 64.2481 77.6358 64.2972 77.9732 64.2599C78.324 64.2948 78.6782 64.2498 79.009 64.1284C79.1192 64.0516 79.1302 63.9968 79.1412 63.9639C79.1945 63.6746 79.2203 63.381 79.2183 63.0869V50.2489H83.8793C84.1302 50.2513 84.3808 50.233 84.6286 50.1941C84.7448 49.9364 84.7904 49.6527 84.7608 49.3719C84.782 49.1084 84.7483 48.8434 84.6617 48.5935C84.4235 48.5382 84.1787 48.516 83.9344 48.5277H72.1552Z" fill="white"/>
        <path d="M98.7949 66.5073C97.985 66.5695 97.1758 66.3778 96.481 65.9592C95.9377 65.5867 95.5652 65.015 95.4452 64.3695C95.3638 63.9283 95.3232 63.4806 95.324 63.032V58.9208L90.3765 51.5644C90.0835 51.2123 89.8675 50.8033 89.7423 50.3635C89.6171 49.9236 89.5854 49.4627 89.6493 49.01C89.7821 48.5578 90.0046 48.1367 90.3036 47.7714C90.6026 47.4062 90.9721 47.1041 91.3902 46.8831C91.9206 46.4942 92.5298 46.2249 93.1753 46.0938C93.8163 45.9888 94.4731 46.1384 95.0044 46.5104C95.5006 46.8775 95.9136 47.3444 96.2165 47.8808L98.7178 51.8933L101.351 47.8588C101.674 47.3296 102.097 46.8679 102.596 46.4994C102.858 46.3172 103.154 46.1884 103.466 46.1207C103.778 46.0529 104.1 46.0475 104.415 46.1047C105.047 46.2485 105.646 46.5128 106.178 46.8831C106.6 47.1102 106.97 47.4225 107.264 47.8001C107.558 48.1776 107.77 48.6121 107.885 49.0758C107.961 49.9596 107.693 50.8386 107.136 51.5315L102.211 58.9208V63.0758C102.212 63.5135 102.171 63.9504 102.09 64.3805C101.981 65.0132 101.629 65.5792 101.109 65.9592C100.413 66.3765 99.6047 66.568 98.7949 66.5073ZM93.594 48.2535H93.5279C93.1956 48.3401 92.8844 48.4931 92.6133 48.703C91.8751 49.1744 91.809 49.4595 91.809 49.4595C91.809 49.4595 91.809 49.7116 92.1946 50.3037L97.5278 58.252V63.021C97.5274 63.3374 97.5569 63.653 97.6159 63.9639C97.6221 64.0072 97.6383 64.0485 97.6631 64.0846C97.6879 64.1208 97.7208 64.1507 97.7591 64.1722C98.4363 64.3635 99.1536 64.3635 99.8307 64.1722C99.9629 64.0845 99.9739 64.0187 99.9739 63.9748C100.032 63.6786 100.061 63.3776 100.062 63.0758V58.263L105.373 50.3475C105.792 49.7445 105.77 49.4814 105.77 49.4376C105.77 49.4376 105.682 49.1744 105.021 48.7249C104.732 48.5175 104.407 48.3651 104.062 48.2755C104.031 48.26 103.997 48.252 103.963 48.252C103.928 48.252 103.894 48.26 103.864 48.2755C103.606 48.4825 103.389 48.7353 103.224 49.021L98.7068 55.9497L94.3543 49.021C94.2061 48.7461 94.0037 48.5037 93.7593 48.3083C93.7125 48.2712 93.6539 48.2518 93.594 48.2535Z" fill="white"/>
        <g filter="url(#filter5_f_4538_7221)">
            <path fill-rule="evenodd" clip-rule="evenodd" d="M58.8204 19.0707C58.4789 18.5621 58.0397 18.1258 57.5279 17.7869C57.0161 17.4481 56.442 17.2133 55.8386 17.0963C55.232 16.9801 54.6157 16.9219 53.9981 16.9224H43.6645C42.106 16.8166 40.5686 17.3277 39.3871 18.3444C38.8318 18.9141 38.4038 19.5941 38.1309 20.3399C37.858 21.0856 37.7465 21.8802 37.8036 22.6718V37.1886C37.8035 37.7925 37.8586 38.3952 37.9681 38.9892C38.1908 40.2079 38.8895 41.2893 39.9115 41.9969C41.0018 42.6969 42.2863 43.037 43.5822 42.9687C44.885 43.0413 46.1773 42.7011 47.2735 41.9969C48.2887 41.2965 48.9866 40.2274 49.2168 39.0198C49.3275 38.426 49.3826 37.8233 49.3814 37.2193V35.3369H51.335C51.8995 35.3409 52.4634 35.2998 53.0213 35.2142C53.6229 35.1143 54.1974 34.892 54.7087 34.561C55.2201 34.2301 55.6572 33.7977 55.9928 33.2909C56.6255 32.3004 56.9311 31.1379 56.8668 29.966C56.8763 29.3043 56.8003 28.6442 56.6406 28.0018C57.5016 27.6598 58.242 27.0726 58.769 26.3138C59.4726 25.2289 59.8144 23.9509 59.7458 22.6616C59.812 21.3988 59.4891 20.146 58.8204 19.0707ZM45.0011 26.3343V26.6821C45.0025 26.9758 45.0621 27.2664 45.1767 27.5372C45.2912 27.8079 45.4584 28.0535 45.6686 28.2597C45.8788 28.466 46.1278 28.6289 46.4015 28.7392C46.6752 28.8494 46.968 28.9048 47.2632 28.9021H51.3761C51.6967 28.8992 52.0169 28.9266 52.3324 28.9839H52.3838C52.4975 29.3123 52.5395 29.6611 52.5071 30.0069C52.5304 30.2973 52.4955 30.5894 52.4043 30.8663H52.3426C52.0024 30.9176 51.6585 30.9415 51.3144 30.9379H46.1733C46.0163 30.9364 45.8607 30.9666 45.7158 31.0266C45.5709 31.0866 45.4397 31.1753 45.3301 31.2871C45.2206 31.399 45.1349 31.5318 45.0784 31.6775C45.0219 31.8232 44.9956 31.9788 45.0011 32.1348V37.25C45.0031 37.5932 44.9721 37.9357 44.9086 38.273C44.898 38.325 44.8759 38.3741 44.8438 38.4165C44.8118 38.459 44.7707 38.4938 44.7235 38.5186C44.3557 38.6677 43.9566 38.7239 43.5616 38.6822C43.174 38.6846 42.7921 38.5896 42.4512 38.406C42.4032 38.3797 42.3617 38.3431 42.3297 38.2988C42.2977 38.2546 42.276 38.2039 42.2661 38.1503C42.2039 37.8128 42.1729 37.4703 42.1735 37.1272V22.6718C42.1735 21.7204 42.3895 21.4953 42.3895 21.4953C42.3895 21.4953 42.6465 21.2703 43.6645 21.2703H53.9467C54.2916 21.2665 54.6361 21.2974 54.9749 21.3623C55.0366 21.3623 55.0983 21.3623 55.1908 21.526C55.3408 21.8991 55.3972 22.3029 55.3553 22.7025C55.3951 23.0854 55.3385 23.4721 55.1908 23.8278C55.166 23.8748 55.1309 23.9157 55.0883 23.9475C55.0456 23.9794 54.9963 24.0014 54.944 24.012C54.605 24.0748 54.2607 24.1056 53.9158 24.104H47.2632C46.9671 24.1013 46.6734 24.157 46.3991 24.2679C46.1248 24.3788 45.8752 24.5426 45.6649 24.75C45.4546 24.9573 45.2876 25.2041 45.1737 25.476C45.0598 25.748 45.0011 26.0397 45.0011 26.3343ZM82.5364 17.9589C83.513 18.6722 84.1788 19.7298 84.3975 20.9154C84.5103 21.5193 84.5653 22.1324 84.562 22.7466V30.6137C84.5595 32.1031 84.313 33.582 83.832 34.9923C83.3371 36.4539 82.5889 37.8181 81.6213 39.0231C80.5916 40.3001 79.3021 41.346 77.8375 42.0922C76.2086 42.9066 74.406 43.3172 72.5833 43.2891C70.7502 43.3181 68.9384 42.8964 67.3085 42.0615C65.8543 41.3127 64.5754 40.2669 63.5555 38.9924C62.5976 37.7649 61.8633 36.3799 61.3859 34.9002C60.9226 33.5038 60.6831 32.0434 60.6765 30.5728V22.7159C60.6744 22.1018 60.7295 21.4888 60.841 20.8847C61.0702 19.6768 61.7684 18.6073 62.7843 17.9077C63.8834 17.2014 65.1797 16.861 66.4859 16.9358C67.7887 16.8632 69.0811 17.2035 70.1772 17.9077C71.2048 18.6015 71.9146 19.6718 72.1514 20.8847C72.2679 21.4986 72.3264 22.1219 72.3262 22.7466V30.5319C72.3296 30.8792 72.385 31.224 72.4907 31.5549C72.5103 31.6163 72.5379 31.6748 72.573 31.7288H72.7478C72.7836 31.6772 72.8146 31.6224 72.8403 31.5652C72.9645 31.2386 73.0239 30.8912 73.0151 30.5421V22.5727C72.9989 21.9411 73.0541 21.3097 73.1796 20.6903C73.4533 19.5284 74.1633 18.5145 75.1641 17.8565C76.2459 17.1848 77.5103 16.8632 78.7834 16.9358C80.1144 16.8481 81.4363 17.2085 82.5364 17.9589ZM69.3547 38.2353C70.3544 38.7381 71.4634 38.9876 72.5833 38.9617C73.687 38.994 74.7827 38.7661 75.781 38.2967C76.7002 37.8294 77.5096 37.1739 78.1562 36.3734C78.8226 35.5563 79.3378 34.628 79.678 33.6317C80.0071 32.6696 80.1772 31.6607 80.1818 30.6444V22.7569C80.1837 22.4137 80.1527 22.0711 80.0893 21.7338C80.0791 21.675 80.0564 21.619 80.0227 21.5696C79.989 21.5202 79.9451 21.4786 79.8939 21.4474C79.5392 21.3033 79.1545 21.2471 78.7732 21.2837C78.3816 21.2441 77.9863 21.3003 77.6215 21.4474C77.4365 21.5497 77.4365 21.6622 77.4365 21.6622C77.3715 21.9613 77.3405 22.2667 77.3439 22.5727V30.5319C77.3601 31.4829 77.178 32.4268 76.8092 33.3043C76.4722 34.125 75.9091 34.8342 75.1847 35.3504C74.4525 35.8384 73.5878 36.0919 72.7066 36.0767C71.6206 36.1298 70.5559 35.7632 69.7351 35.0537C69.0741 34.4485 68.5878 33.6785 68.3264 32.8235C68.0946 32.0882 67.9733 31.3229 67.9666 30.5524V22.7159C67.9667 22.3729 67.9358 22.0305 67.874 21.6929C67.8591 21.6368 67.8308 21.5852 67.7914 21.5424C67.7519 21.4996 67.7027 21.467 67.6478 21.4474C67.2803 21.2974 66.8809 21.2412 66.4859 21.2837C66.091 21.242 65.6918 21.2983 65.324 21.4474C65.2768 21.4721 65.2357 21.507 65.2037 21.5494C65.1717 21.5919 65.1496 21.6409 65.139 21.6929C65.0764 22.0303 65.0454 22.3728 65.0464 22.7159V30.5626C65.0519 31.578 65.2185 32.5861 65.54 33.5498C65.863 34.538 66.3572 35.4624 67 36.2813C67.6361 37.092 68.4389 37.7582 69.3547 38.2353ZM107.342 17.9756C108.326 18.6739 109.003 19.7212 109.234 20.9015C109.335 21.5065 109.38 22.1195 109.368 22.7327V37.2086C109.366 37.8163 109.308 38.4226 109.193 39.0194C108.961 40.2265 108.264 41.2953 107.249 41.9964C106.165 42.6923 104.888 43.0322 103.599 42.9683C102.783 42.9925 101.968 42.8924 101.183 42.6716C100.203 42.363 99.3468 41.7543 98.7357 40.9325L98.6637 40.8302L97.1111 38.6102C97.0391 38.7534 97.0391 38.8864 97.0391 39.0194C96.8099 40.2273 96.1118 41.2969 95.0958 41.9964C93.9996 42.7006 92.7073 43.0409 91.4045 42.9683C90.1186 43.0342 88.8446 42.694 87.7646 41.9964C86.7478 41.2976 86.0494 40.2278 85.8213 39.0194C85.7097 38.4153 85.6546 37.8023 85.6567 37.1882V22.6202C85.6497 22.0165 85.7013 21.4135 85.811 20.8197C85.935 20.2128 86.1811 19.6371 86.5345 19.1272C86.8879 18.6174 87.3413 18.1839 87.8674 17.8529C88.948 17.1979 90.2027 16.884 91.4662 16.9526C92.701 16.8684 93.9312 17.1726 94.9827 17.8222C95.5671 18.2312 96.0839 18.7282 96.5148 19.2954L96.6587 19.4897L97.872 21.3926C97.8846 21.3003 97.9076 21.2098 97.9304 21.1203L97.9304 21.1203L97.9304 21.1202C97.9632 20.9914 97.9954 20.8646 97.9954 20.7378C98.2786 19.5524 99.0167 18.5243 100.052 17.8733C101.122 17.2098 102.371 16.8885 103.63 16.9526C104.946 16.8811 106.25 17.2404 107.342 17.9756ZM104.946 38.2419C105.01 37.9047 105.041 37.5621 105.039 37.2189L105.008 22.7327C105.01 22.3896 104.979 22.047 104.915 21.7097C104.906 21.6572 104.885 21.6073 104.855 21.5633C104.825 21.5192 104.786 21.4819 104.741 21.4539C104.377 21.3143 103.986 21.2618 103.599 21.3005C103.208 21.2605 102.812 21.3167 102.448 21.4642C102.263 21.5767 102.263 21.6995 102.263 21.6995C102.195 22.0017 102.16 22.3105 102.16 22.6202V28.4413C102.163 28.9107 102.017 29.3693 101.743 29.751C101.468 30.1327 101.079 30.418 100.631 30.5657C100.183 30.7135 99.6995 30.7162 99.25 30.5735C98.8005 30.4307 98.408 30.1498 98.1291 29.7712L92.988 21.8734C92.8451 21.6985 92.6791 21.5436 92.4944 21.413C92.1605 21.3182 91.8129 21.2802 91.4662 21.3005C91.0636 21.259 90.657 21.3188 90.2837 21.4744C90.1192 21.5767 90.1192 21.6688 90.1192 21.6688C90.0566 21.9821 90.0256 22.3008 90.0267 22.6202V37.1677C90.0252 37.5109 90.0561 37.8534 90.1192 38.1907C90.1298 38.2428 90.152 38.2918 90.184 38.3342C90.216 38.3767 90.2571 38.4115 90.3043 38.4363C90.6495 38.6025 91.0322 38.6765 91.4148 38.6511C91.8097 38.6928 92.2089 38.6366 92.5767 38.4874C92.7617 38.3749 92.7617 38.2419 92.7617 38.2419C92.8254 37.9046 92.8564 37.562 92.8543 37.2189V31.9809C92.8543 31.5159 93.0011 31.0625 93.2739 30.6849C93.5468 30.3074 93.932 30.0246 94.3751 29.8765C94.8182 29.7284 95.2968 29.7225 95.7435 29.8596C96.1901 29.9968 96.5822 30.27 96.8643 30.6408L102.263 38.3851C102.318 38.4631 102.397 38.5207 102.489 38.5488C102.852 38.6345 103.226 38.6689 103.599 38.6511C103.994 38.6928 104.393 38.6366 104.761 38.4874C104.808 38.4621 104.849 38.4271 104.881 38.3847C104.912 38.3424 104.935 38.2936 104.946 38.2419ZM120.828 29.851C121.752 30.0297 122.57 30.5588 123.11 31.3265C123.396 31.7034 123.605 32.1335 123.722 32.5915C123.84 33.0495 123.864 33.5262 123.794 33.9937C123.712 34.4725 123.537 34.931 123.281 35.3443C123.023 35.7976 122.664 36.1858 122.231 36.4793L121.958 36.6496C122.32 36.9583 122.605 37.347 122.79 37.7846C123.087 38.5396 123.151 39.3655 122.973 40.1567C122.883 40.9785 122.531 41.7501 121.969 42.3585C121.69 42.6544 121.352 42.8898 120.977 43.0499C120.602 43.2101 120.198 43.2915 119.79 43.2892C119.408 43.287 119.026 43.2528 118.649 43.1871L112.432 42.1315C111.95 42.0534 111.489 41.8782 111.077 41.6167C110.665 41.3552 110.311 41.0129 110.037 40.6107C109.759 40.2192 109.562 39.7771 109.456 39.3097C109.35 38.8423 109.338 38.3587 109.421 37.8867C109.52 37.4251 109.706 36.9862 109.968 36.5928C110.235 36.1388 110.602 35.7508 111.041 35.4578L111.622 35.0946C111.422 34.8768 111.253 34.6323 111.121 34.3683C110.776 33.5984 110.692 32.7381 110.881 31.9167C110.97 31.0633 111.343 30.2641 111.942 29.6467C112.493 29.1223 113.221 28.8226 113.984 28.8068C114.366 28.8054 114.747 28.8357 115.125 28.8976L120.828 29.851ZM113.984 38.3066L115.512 38.579C115.33 38.3602 115.198 38.1046 115.125 37.83C115.118 37.7393 115.118 37.6483 115.125 37.5576L113.984 38.3066ZM119.334 33.5965L117.874 33.3468C118.031 33.5717 118.14 33.8268 118.193 34.0959V34.3115L119.334 33.5965Z" fill="#F30AA4"/>
        </g>
        <g filter="url(#filter6_df_4538_7221)">
            <path fill-rule="evenodd" clip-rule="evenodd" d="M58.8204 19.0707C58.4789 18.5621 58.0397 18.1258 57.5279 17.7869C57.0161 17.4481 56.442 17.2133 55.8386 17.0963C55.232 16.9801 54.6157 16.9219 53.9981 16.9224H43.6645C42.106 16.8166 40.5686 17.3277 39.3871 18.3444C38.8318 18.9141 38.4038 19.5941 38.1309 20.3399C37.858 21.0856 37.7465 21.8802 37.8036 22.6718V37.1886C37.8035 37.7925 37.8586 38.3952 37.9681 38.9892C38.1908 40.2079 38.8895 41.2893 39.9115 41.9969C41.0018 42.6969 42.2863 43.037 43.5822 42.9687C44.885 43.0413 46.1773 42.7011 47.2735 41.9969C48.2887 41.2965 48.9866 40.2274 49.2168 39.0198C49.3275 38.426 49.3826 37.8233 49.3814 37.2193V35.3369H51.335C51.8995 35.3409 52.4634 35.2998 53.0213 35.2142C53.6229 35.1143 54.1974 34.892 54.7087 34.561C55.2201 34.2301 55.6572 33.7977 55.9928 33.2909C56.6255 32.3004 56.9311 31.1379 56.8668 29.966C56.8763 29.3043 56.8003 28.6442 56.6406 28.0018C57.5016 27.6598 58.242 27.0726 58.769 26.3138C59.4726 25.2289 59.8144 23.9509 59.7458 22.6616C59.812 21.3988 59.4891 20.146 58.8204 19.0707ZM45.0011 26.3343V26.6821C45.0025 26.9758 45.0621 27.2664 45.1767 27.5372C45.2912 27.8079 45.4584 28.0535 45.6686 28.2597C45.8788 28.466 46.1278 28.6289 46.4015 28.7392C46.6752 28.8494 46.968 28.9048 47.2632 28.9021H51.3761C51.6967 28.8992 52.0169 28.9266 52.3324 28.9839H52.3838C52.4975 29.3123 52.5395 29.6611 52.5071 30.0069C52.5304 30.2973 52.4955 30.5894 52.4043 30.8663H52.3426C52.0024 30.9176 51.6585 30.9415 51.3144 30.9379H46.1733C46.0163 30.9364 45.8607 30.9666 45.7158 31.0266C45.5709 31.0866 45.4397 31.1753 45.3301 31.2871C45.2206 31.399 45.1349 31.5318 45.0784 31.6775C45.0219 31.8232 44.9956 31.9788 45.0011 32.1348V37.25C45.0031 37.5932 44.9721 37.9357 44.9086 38.273C44.898 38.325 44.8759 38.3741 44.8438 38.4165C44.8118 38.459 44.7707 38.4938 44.7235 38.5186C44.3557 38.6677 43.9566 38.7239 43.5616 38.6822C43.174 38.6846 42.7921 38.5896 42.4512 38.406C42.4032 38.3797 42.3617 38.3431 42.3297 38.2988C42.2977 38.2546 42.276 38.2039 42.2661 38.1503C42.2039 37.8128 42.1729 37.4703 42.1735 37.1272V22.6718C42.1735 21.7204 42.3895 21.4953 42.3895 21.4953C42.3895 21.4953 42.6465 21.2703 43.6645 21.2703H53.9467C54.2916 21.2665 54.6361 21.2974 54.9749 21.3623C55.0366 21.3623 55.0983 21.3623 55.1908 21.526C55.3408 21.8991 55.3972 22.3029 55.3553 22.7025C55.3951 23.0854 55.3385 23.4721 55.1908 23.8278C55.166 23.8748 55.1309 23.9157 55.0883 23.9475C55.0456 23.9794 54.9963 24.0014 54.944 24.012C54.605 24.0748 54.2607 24.1056 53.9158 24.104H47.2632C46.9671 24.1013 46.6734 24.157 46.3991 24.2679C46.1248 24.3788 45.8752 24.5426 45.6649 24.75C45.4546 24.9573 45.2876 25.2041 45.1737 25.476C45.0598 25.748 45.0011 26.0397 45.0011 26.3343ZM82.5364 17.9589C83.513 18.6722 84.1788 19.7298 84.3975 20.9154C84.5103 21.5193 84.5653 22.1324 84.562 22.7466V30.6137C84.5595 32.1031 84.313 33.582 83.832 34.9923C83.3371 36.4539 82.5889 37.8181 81.6213 39.0231C80.5916 40.3001 79.3021 41.346 77.8375 42.0922C76.2086 42.9066 74.406 43.3172 72.5833 43.2891C70.7502 43.3181 68.9384 42.8964 67.3085 42.0615C65.8543 41.3127 64.5754 40.2669 63.5555 38.9924C62.5976 37.7649 61.8633 36.3799 61.3859 34.9002C60.9226 33.5038 60.6831 32.0434 60.6765 30.5728V22.7159C60.6744 22.1018 60.7295 21.4888 60.841 20.8847C61.0702 19.6768 61.7684 18.6073 62.7843 17.9077C63.8834 17.2014 65.1797 16.861 66.4859 16.9358C67.7887 16.8632 69.0811 17.2035 70.1772 17.9077C71.2048 18.6015 71.9146 19.6718 72.1514 20.8847C72.2679 21.4986 72.3264 22.1219 72.3262 22.7466V30.5319C72.3296 30.8792 72.385 31.224 72.4907 31.5549C72.5103 31.6163 72.5379 31.6748 72.573 31.7288H72.7478C72.7836 31.6772 72.8146 31.6224 72.8403 31.5652C72.9645 31.2386 73.0239 30.8912 73.0151 30.5421V22.5727C72.9989 21.9411 73.0541 21.3097 73.1796 20.6903C73.4533 19.5284 74.1633 18.5145 75.1641 17.8565C76.2459 17.1848 77.5103 16.8632 78.7834 16.9358C80.1144 16.8481 81.4363 17.2085 82.5364 17.9589ZM69.3547 38.2353C70.3544 38.7381 71.4634 38.9876 72.5833 38.9617C73.687 38.994 74.7827 38.7661 75.781 38.2967C76.7002 37.8294 77.5096 37.1739 78.1562 36.3734C78.8226 35.5563 79.3378 34.628 79.678 33.6317C80.0071 32.6696 80.1772 31.6607 80.1818 30.6444V22.7569C80.1837 22.4137 80.1527 22.0711 80.0893 21.7338C80.0791 21.675 80.0564 21.619 80.0227 21.5696C79.989 21.5202 79.9451 21.4786 79.8939 21.4474C79.5392 21.3033 79.1545 21.2471 78.7732 21.2837C78.3816 21.2441 77.9863 21.3003 77.6215 21.4474C77.4365 21.5497 77.4365 21.6622 77.4365 21.6622C77.3715 21.9613 77.3405 22.2667 77.3439 22.5727V30.5319C77.3601 31.4829 77.178 32.4268 76.8092 33.3043C76.4722 34.125 75.9091 34.8342 75.1847 35.3504C74.4525 35.8384 73.5878 36.0919 72.7066 36.0767C71.6206 36.1298 70.5559 35.7632 69.7351 35.0537C69.0741 34.4485 68.5878 33.6785 68.3264 32.8235C68.0946 32.0882 67.9733 31.3229 67.9666 30.5524V22.7159C67.9667 22.3729 67.9358 22.0305 67.874 21.6929C67.8591 21.6368 67.8308 21.5852 67.7914 21.5424C67.7519 21.4996 67.7027 21.467 67.6478 21.4474C67.2803 21.2974 66.8809 21.2412 66.4859 21.2837C66.091 21.242 65.6918 21.2983 65.324 21.4474C65.2768 21.4721 65.2357 21.507 65.2037 21.5494C65.1717 21.5919 65.1496 21.6409 65.139 21.6929C65.0764 22.0303 65.0454 22.3728 65.0464 22.7159V30.5626C65.0519 31.578 65.2185 32.5861 65.54 33.5498C65.863 34.538 66.3572 35.4624 67 36.2813C67.6361 37.092 68.4389 37.7582 69.3547 38.2353ZM107.342 17.9756C108.326 18.6739 109.003 19.7212 109.234 20.9015C109.335 21.5065 109.38 22.1195 109.368 22.7327V37.2086C109.366 37.8163 109.308 38.4226 109.193 39.0194C108.961 40.2265 108.264 41.2953 107.249 41.9964C106.165 42.6923 104.888 43.0322 103.599 42.9683C102.783 42.9925 101.968 42.8924 101.183 42.6716C100.203 42.363 99.3468 41.7543 98.7357 40.9325L98.6637 40.8302L97.1111 38.6102C97.0391 38.7534 97.0391 38.8864 97.0391 39.0194C96.8099 40.2273 96.1118 41.2969 95.0958 41.9964C93.9996 42.7006 92.7073 43.0409 91.4045 42.9683C90.1186 43.0342 88.8446 42.694 87.7646 41.9964C86.7478 41.2976 86.0494 40.2278 85.8213 39.0194C85.7097 38.4153 85.6546 37.8023 85.6567 37.1882V22.6202C85.6497 22.0165 85.7013 21.4135 85.811 20.8197C85.935 20.2128 86.1811 19.6371 86.5345 19.1272C86.8879 18.6174 87.3413 18.1839 87.8674 17.8529C88.948 17.1979 90.2027 16.884 91.4662 16.9526C92.701 16.8684 93.9312 17.1726 94.9827 17.8222C95.5671 18.2312 96.0839 18.7282 96.5148 19.2954L96.6587 19.4897L97.872 21.3926C97.8846 21.3003 97.9076 21.2098 97.9304 21.1203L97.9304 21.1203L97.9304 21.1202C97.9632 20.9914 97.9954 20.8646 97.9954 20.7378C98.2786 19.5524 99.0167 18.5243 100.052 17.8733C101.122 17.2098 102.371 16.8885 103.63 16.9526C104.946 16.8811 106.25 17.2404 107.342 17.9756ZM104.946 38.2419C105.01 37.9047 105.041 37.5621 105.039 37.2189L105.008 22.7327C105.01 22.3896 104.979 22.047 104.915 21.7097C104.906 21.6572 104.885 21.6073 104.855 21.5633C104.825 21.5192 104.786 21.4819 104.741 21.4539C104.377 21.3143 103.986 21.2618 103.599 21.3005C103.208 21.2605 102.812 21.3167 102.448 21.4642C102.263 21.5767 102.263 21.6995 102.263 21.6995C102.195 22.0017 102.16 22.3105 102.16 22.6202V28.4413C102.163 28.9107 102.017 29.3693 101.743 29.751C101.468 30.1327 101.079 30.418 100.631 30.5657C100.183 30.7135 99.6995 30.7162 99.25 30.5735C98.8005 30.4307 98.408 30.1498 98.1291 29.7712L92.988 21.8734C92.8451 21.6985 92.6791 21.5436 92.4944 21.413C92.1605 21.3182 91.8129 21.2802 91.4662 21.3005C91.0636 21.259 90.657 21.3188 90.2837 21.4744C90.1192 21.5767 90.1192 21.6688 90.1192 21.6688C90.0566 21.9821 90.0256 22.3008 90.0267 22.6202V37.1677C90.0252 37.5109 90.0561 37.8534 90.1192 38.1907C90.1298 38.2428 90.152 38.2918 90.184 38.3342C90.216 38.3767 90.2571 38.4115 90.3043 38.4363C90.6495 38.6025 91.0322 38.6765 91.4148 38.6511C91.8097 38.6928 92.2089 38.6366 92.5767 38.4874C92.7617 38.3749 92.7617 38.2419 92.7617 38.2419C92.8254 37.9046 92.8564 37.562 92.8543 37.2189V31.9809C92.8543 31.5159 93.0011 31.0625 93.2739 30.6849C93.5468 30.3074 93.932 30.0246 94.3751 29.8765C94.8182 29.7284 95.2968 29.7225 95.7435 29.8596C96.1901 29.9968 96.5822 30.27 96.8643 30.6408L102.263 38.3851C102.318 38.4631 102.397 38.5207 102.489 38.5488C102.852 38.6345 103.226 38.6689 103.599 38.6511C103.994 38.6928 104.393 38.6366 104.761 38.4874C104.808 38.4621 104.849 38.4271 104.881 38.3847C104.912 38.3424 104.935 38.2936 104.946 38.2419ZM120.828 29.851C121.752 30.0297 122.57 30.5588 123.11 31.3265C123.396 31.7034 123.605 32.1335 123.722 32.5915C123.84 33.0495 123.864 33.5262 123.794 33.9937C123.712 34.4725 123.537 34.931 123.281 35.3443C123.023 35.7976 122.664 36.1858 122.231 36.4793L121.958 36.6496C122.32 36.9583 122.605 37.347 122.79 37.7846C123.087 38.5396 123.151 39.3655 122.973 40.1567C122.883 40.9785 122.531 41.7501 121.969 42.3585C121.69 42.6544 121.352 42.8898 120.977 43.0499C120.602 43.2101 120.198 43.2915 119.79 43.2892C119.408 43.287 119.026 43.2528 118.649 43.1871L112.432 42.1315C111.95 42.0534 111.489 41.8782 111.077 41.6167C110.665 41.3552 110.311 41.0129 110.037 40.6107C109.759 40.2192 109.562 39.7771 109.456 39.3097C109.35 38.8423 109.338 38.3587 109.421 37.8867C109.52 37.4251 109.706 36.9862 109.968 36.5928C110.235 36.1388 110.602 35.7508 111.041 35.4578L111.622 35.0946C111.422 34.8768 111.253 34.6323 111.121 34.3683C110.776 33.5984 110.692 32.7381 110.881 31.9167C110.97 31.0633 111.343 30.2641 111.942 29.6467C112.493 29.1223 113.221 28.8226 113.984 28.8068C114.366 28.8054 114.747 28.8357 115.125 28.8976L120.828 29.851ZM113.984 38.3066L115.512 38.579C115.33 38.3602 115.198 38.1046 115.125 37.83C115.118 37.7393 115.118 37.6483 115.125 37.5576L113.984 38.3066ZM119.334 33.5965L117.874 33.3468C118.031 33.5717 118.14 33.8268 118.193 34.0959V34.3115L119.334 33.5965Z" fill="#F30AA4"/>
        </g>
        <path d="M122.401 31.8373C122.203 31.5544 121.949 31.3143 121.654 31.1313C121.36 30.9483 121.032 30.8263 120.689 30.7725L114.851 29.7905C114.509 29.7329 114.163 29.7052 113.816 29.7077C113.313 29.716 112.833 29.9149 112.472 30.2637C112.048 30.7244 111.785 31.3098 111.723 31.9319C111.575 32.5389 111.625 33.177 111.866 33.7539C112.088 34.2065 112.475 34.5577 112.948 34.7359C113.192 34.8249 113.443 34.896 113.697 34.9489L111.438 36.4041C111.128 36.6043 110.868 36.8712 110.677 37.1849C110.499 37.4794 110.378 37.8044 110.32 38.1433C110.26 38.4841 110.27 38.8333 110.347 39.1705C110.425 39.5077 110.569 39.8262 110.772 40.1072C110.968 40.3973 111.223 40.6438 111.519 40.8311C111.816 41.0184 112.149 41.1426 112.496 41.1957L118.965 42.296C119.295 42.3555 119.629 42.3872 119.964 42.3906C120.217 42.3894 120.468 42.3374 120.701 42.2378C120.934 42.1382 121.144 41.993 121.319 41.8109C121.731 41.3444 121.985 40.7608 122.045 40.1427C122.188 39.5507 122.155 38.9299 121.95 38.3562C121.85 38.1215 121.705 37.9093 121.521 37.7324C121.337 37.5555 121.118 37.4175 120.879 37.3269C120.556 37.2074 120.221 37.1202 119.881 37.0666L119.536 37.0075L121.795 35.5523C122.091 35.3569 122.338 35.0981 122.52 34.7951C122.706 34.4905 122.832 34.153 122.889 33.8012C122.949 33.4581 122.937 33.1063 122.853 32.7682C122.769 32.43 122.615 32.113 122.401 31.8373ZM114.553 31.5297L120.392 32.5235C120.507 32.5391 120.617 32.5789 120.715 32.64C120.814 32.7012 120.898 32.7825 120.963 32.8784C121.031 32.9661 121.079 33.0678 121.104 33.1761C121.129 33.2845 121.129 33.3969 121.105 33.5055C121.083 33.6361 121.035 33.7609 120.963 33.8722C120.918 33.9513 120.858 34.0199 120.784 34.0734L116.61 36.8064C116.459 36.9032 116.341 37.0432 116.271 37.208C116.201 37.3729 116.183 37.5549 116.219 37.7302C116.255 37.9054 116.344 38.0658 116.473 38.1902C116.602 38.3145 116.766 38.3972 116.943 38.4272L119.548 38.865C119.782 38.8685 120.012 38.9338 120.213 39.0543C120.404 39.2317 120.297 39.6813 120.213 39.8943C120.197 40.1117 120.141 40.3243 120.047 40.5213C119.881 40.7816 119.441 40.6396 119.191 40.6041L112.758 39.4565C112.646 39.4399 112.54 39.3996 112.445 39.3384C112.351 39.2771 112.271 39.1964 112.211 39.1016C112.14 39.008 112.09 38.9007 112.063 38.7866C112.036 38.6725 112.034 38.5541 112.056 38.439C112.077 38.3174 112.122 38.2009 112.187 38.0959C112.239 38.0151 112.308 37.9465 112.389 37.8948L116.646 35.2328C116.797 35.136 116.916 34.996 116.985 34.8311C117.055 34.6663 117.073 34.4843 117.037 34.309C117.001 34.1337 116.913 33.9734 116.784 33.849C116.654 33.7246 116.49 33.642 116.313 33.6119L114.256 33.257C114.026 33.2478 113.801 33.1829 113.602 33.0677C113.376 32.8784 113.471 32.488 113.519 32.2277C113.566 31.9674 113.59 31.6007 113.828 31.4823C114.069 31.4315 114.32 31.4479 114.553 31.5297Z" fill="white"/>
        <path d="M108.376 21.0483C108.19 20.0828 107.638 19.2256 106.834 18.6544C105.888 18.0462 104.77 17.7591 103.646 17.836C102.563 17.7726 101.487 18.0403 100.561 18.6032C99.7446 19.1388 99.1665 19.9668 98.9472 20.9153C98.8236 21.4695 98.7616 22.0356 98.7621 22.6033V24.2913L95.9653 20.0252L95.8625 19.882C95.4866 19.3891 95.0356 18.9577 94.5258 18.6032C93.6171 18.0472 92.557 17.7862 91.4926 17.8564C90.4114 17.7965 89.337 18.0601 88.4079 18.6135C87.9779 18.8761 87.6058 19.2227 87.3142 19.6324C87.0226 20.0421 86.8175 20.5063 86.7114 20.9971C86.6173 21.5341 86.576 22.0788 86.588 22.6237V37.1917C86.577 37.7502 86.6183 38.3084 86.7114 38.8592C86.8995 39.8399 87.4684 40.7074 88.2948 41.2736C89.2143 41.8539 90.292 42.1363 91.3795 42.0818C92.4933 42.1545 93.6017 41.8753 94.5464 41.2838C95.3728 40.7176 95.9417 39.8502 96.1299 38.8695C96.2323 38.3298 96.2839 37.7818 96.2841 37.2326V35.9027L99.3687 40.3324V40.3938C99.866 41.0655 100.564 41.5634 101.363 41.8158C102.063 42.0083 102.787 42.0946 103.512 42.0716C104.626 42.1436 105.734 41.8644 106.679 41.2736C107.504 40.7058 108.073 39.8391 108.263 38.8592C108.365 38.3195 108.417 37.7716 108.417 37.2224V22.7363C108.457 22.1736 108.443 21.6084 108.376 21.0483ZM93.7752 31.9845V37.2224C93.7743 37.6104 93.7365 37.9975 93.6621 38.3784C93.6303 38.5426 93.5657 38.6987 93.4721 38.8375C93.3785 38.9764 93.2578 39.0951 93.1172 39.1866C92.5976 39.4524 92.0128 39.566 91.4309 39.514C90.8657 39.5629 90.2982 39.4493 89.796 39.1866C89.6554 39.0951 89.5347 38.9764 89.4411 38.8375C89.3475 38.6987 89.2829 38.5426 89.2511 38.3784C89.1797 37.9869 89.1453 37.5896 89.1482 37.1917V22.6237C89.1454 22.2462 89.1799 21.8693 89.2511 21.4984C89.284 21.3401 89.3495 21.1903 89.4432 21.0583C89.537 20.9263 89.6571 20.8149 89.796 20.7311C90.3155 20.4764 90.8948 20.3668 91.472 20.414C92.0009 20.3608 92.5343 20.4528 93.0143 20.68C93.3 20.8789 93.5532 21.1204 93.7649 21.3961L98.906 29.2428C99.0242 29.4055 99.1784 29.5391 99.3567 29.6331C99.5349 29.7271 99.7326 29.7791 99.9343 29.785C100.111 29.7877 100.287 29.7552 100.451 29.6895C100.615 29.6238 100.764 29.5261 100.889 29.4022C101.015 29.2782 101.114 29.1306 101.181 28.968C101.249 28.8053 101.283 28.6309 101.281 28.455V22.6237C101.28 22.2452 101.322 21.8678 101.405 21.4984C101.481 21.1801 101.681 20.9046 101.96 20.7311C102.471 20.4745 103.045 20.3647 103.615 20.414C104.191 20.362 104.769 20.4756 105.281 20.7414C105.56 20.9299 105.752 21.2205 105.816 21.5496C105.891 21.9407 105.928 22.3381 105.929 22.7363V37.2224C105.928 37.6104 105.89 37.9975 105.816 38.3784C105.784 38.5426 105.719 38.6987 105.626 38.8375C105.532 38.9764 105.411 39.0951 105.271 39.1866C104.751 39.4524 104.166 39.566 103.584 39.514C103.121 39.5307 102.657 39.4825 102.207 39.3708C101.924 39.2803 101.679 39.1008 101.507 38.8592L96.171 31.1763C96.0529 31.0143 95.8985 30.8819 95.72 30.7895C95.5415 30.6972 95.3439 30.6475 95.1428 30.6443C94.9634 30.6388 94.7848 30.6695 94.6177 30.7346C94.4506 30.7997 94.2985 30.8979 94.1707 31.0232C94.0428 31.1484 93.9419 31.2982 93.8739 31.4635C93.8059 31.6287 93.7724 31.806 93.7752 31.9845Z" fill="white"/>
        <path d="M83.5122 21.0795C83.331 20.1199 82.7909 19.2644 82.0007 18.6856C81.0523 18.0552 79.9201 17.7565 78.7824 17.8365C77.6997 17.7744 76.6237 18.0421 75.6977 18.6037C74.8704 19.1275 74.2775 19.9482 74.0423 20.8953C73.9168 21.4458 73.8547 22.0087 73.8572 22.5731V30.5425C73.8709 31.0182 73.7869 31.4916 73.6104 31.9338C73.5228 32.161 73.3732 32.3594 73.1786 32.5067C73.02 32.6087 72.832 32.6554 72.6439 32.6397C72.4328 32.6603 72.2199 32.625 72.027 32.5374C71.8179 32.3464 71.665 32.1024 71.5848 31.8315C71.4538 31.4211 71.3845 30.9936 71.3792 30.563V22.747C71.3854 22.1709 71.3372 21.5955 71.2352 21.0283C71.0447 20.0568 70.4801 19.1977 69.6621 18.6344C68.7147 18.0402 67.6021 17.7608 66.4849 17.8365C65.3664 17.7639 64.2538 18.0469 63.3077 18.6447C62.481 19.2006 61.9053 20.056 61.7036 21.0283C61.6093 21.5859 61.5679 22.151 61.5802 22.7163V30.5732C61.5829 31.9639 61.8085 33.3453 62.2486 34.6653C62.7048 36.0408 63.4009 37.3255 64.305 38.4608C65.2417 39.6531 66.4229 40.6331 67.7701 41.3355C69.2706 42.1009 70.9373 42.4873 72.6233 42.4608C74.3026 42.489 75.964 42.1135 77.4662 41.3662C78.8205 40.6747 80.0121 39.7054 80.9622 38.5221C81.8629 37.3961 82.5589 36.122 83.0186 34.7574C83.4699 33.4396 83.7026 32.0575 83.7075 30.6653V22.747C83.6951 22.1863 83.6297 21.628 83.5122 21.0795ZM72.5822 39.8623C71.3051 39.8941 70.0401 39.6094 68.9012 39.0337C67.8751 38.4973 66.9746 37.7512 66.2586 36.8444C65.5635 35.9398 65.0312 34.9222 64.6855 33.8367C64.3364 32.7835 64.156 31.6822 64.1508 30.5732V22.7163C64.1484 22.3184 64.1828 21.9212 64.2536 21.5296C64.2847 21.3665 64.348 21.211 64.4398 21.0723C64.5315 20.9336 64.65 20.8144 64.7883 20.7214C65.3068 20.4521 65.8917 20.335 66.4746 20.3838C67.0575 20.335 67.6423 20.4521 68.1609 20.7214C68.3015 20.8129 68.4222 20.9316 68.5158 21.0705C68.6094 21.2093 68.674 21.3654 68.7058 21.5296C68.7812 21.9311 68.819 22.3386 68.8189 22.747V30.5834C68.8214 31.2775 68.9288 31.9672 69.1377 32.6295C69.351 33.3363 69.7524 33.9726 70.2996 34.4709C70.9587 35.0218 71.8052 35.3 72.6645 35.2484C73.396 35.2738 74.1165 35.0659 74.7209 34.6551C75.3072 34.2365 75.7633 33.6621 76.037 32.9978C76.3563 32.2332 76.5138 31.4113 76.4997 30.5834V22.5731C76.4994 22.2014 76.5408 21.8308 76.6231 21.4682C76.6905 21.1623 76.8701 20.8923 77.1269 20.7112C77.6424 20.4553 78.2187 20.3455 78.7927 20.394C79.3693 20.3397 79.9491 20.4572 80.4584 20.7316C80.7374 20.9289 80.9289 21.2258 80.993 21.5603C81.0681 21.9515 81.106 22.3488 81.1061 22.747V30.6346C81.1015 31.7486 80.9139 32.8544 80.5509 33.9083C80.1842 34.9877 79.631 35.9952 78.916 36.8853C78.192 37.787 77.2844 38.5261 76.2529 39.0541C75.1125 39.6132 73.8533 39.8905 72.5822 39.8623Z" fill="white"/>
        <path d="M58.0766 19.5828C57.804 19.1634 57.4497 18.8025 57.0347 18.5214C56.6198 18.2403 56.1525 18.0447 55.6603 17.946C55.1103 17.8526 54.5525 17.8114 53.9946 17.8232H43.7124C42.3721 17.7072 41.0395 18.1186 40.0005 18.969C39.5352 19.4611 39.1793 20.0452 38.9561 20.6833C38.7328 21.3214 38.6473 21.9992 38.705 22.6724V37.1892C38.6959 37.7374 38.7372 38.2853 38.8284 38.826C39.0125 39.8138 39.5817 40.689 40.4118 41.2609C41.3496 41.8517 42.4502 42.1344 43.5582 42.069C44.672 42.1418 45.7804 41.8625 46.7251 41.2711C47.5507 40.704 48.1194 39.837 48.3085 38.8567C48.4111 38.3171 48.4627 37.7691 48.4628 37.2199V34.4372H51.311C51.8272 34.4404 52.343 34.4028 52.8533 34.3247C53.3405 34.2552 53.8078 34.0857 54.2256 33.8268C54.6434 33.5679 55.0024 33.2253 55.2799 32.8208C55.8087 31.9769 56.0603 30.99 55.9996 29.9973C56.0396 29.1126 55.8632 28.2314 55.4855 27.4295H55.6398C56.6254 27.2423 57.4972 26.6763 58.0664 25.854C58.6583 24.9202 58.9422 23.8257 58.8787 22.7235C58.9427 21.6194 58.6626 20.5226 58.0766 19.5828ZM45.9231 26.3348V26.6827C45.9231 26.8573 45.9577 27.0303 46.0248 27.1916C46.092 27.353 46.1905 27.4996 46.3146 27.6231C46.4387 27.7466 46.5861 27.8445 46.7482 27.9114C46.9104 27.9782 47.0842 28.0126 47.2598 28.0126H51.3726C51.7483 28.0082 52.1236 28.0391 52.4934 28.1047C52.6276 28.1288 52.755 28.1815 52.8668 28.2592C52.9786 28.3369 53.0722 28.4378 53.1412 28.5548C53.3552 29.0077 53.4439 29.5091 53.3982 30.0075C53.4432 30.4805 53.3504 30.9564 53.1309 31.3784C53.0581 31.4924 52.9618 31.5896 52.8484 31.6637C52.7349 31.7378 52.6069 31.787 52.4728 31.808C52.0986 31.8649 51.7204 31.8922 51.3418 31.8899H45.9231V37.2301C45.9235 37.625 45.8856 38.019 45.81 38.4066C45.7782 38.5708 45.7135 38.7269 45.6199 38.8657C45.5263 39.0046 45.4056 39.1233 45.265 39.2148C44.7454 39.4806 44.1606 39.5941 43.5787 39.5422C43.0005 39.5842 42.4223 39.4599 41.913 39.1841C41.7717 39.091 41.6506 38.9705 41.557 38.8299C41.4634 38.6894 41.3991 38.5315 41.3681 38.3657C41.2945 37.9778 41.2566 37.584 41.255 37.1892V22.6724C41.1771 22.0248 41.3539 21.3723 41.7485 20.8514C42.3038 20.4686 42.9791 20.2979 43.6507 20.3706H53.9329C54.326 20.3679 54.7185 20.4022 55.1051 20.4729C55.2654 20.5061 55.4172 20.5713 55.5515 20.6645C55.6858 20.7576 55.7998 20.8769 55.8865 21.0151C56.1814 21.5281 56.3273 22.1124 56.3081 22.7031C56.3578 23.272 56.2437 23.8433 55.9791 24.3502C55.8871 24.4901 55.7678 24.6101 55.6282 24.7033C55.4887 24.7964 55.3318 24.8607 55.1668 24.8924C54.7733 24.9635 54.374 24.9977 53.974 24.9947H47.2598C47.0834 24.9947 46.9087 25.0294 46.7459 25.0969C46.583 25.1643 46.4352 25.2632 46.3109 25.3878C46.1867 25.5124 46.0884 25.6602 46.0219 25.8227C45.9553 25.9853 45.9217 26.1593 45.9231 26.3348Z" fill="white"/>
        <g filter="url(#filter7_f_4538_7221)">
            <path fill-rule="evenodd" clip-rule="evenodd" d="M16.8224 18.587C16.877 18.892 16.6741 19.1836 16.369 19.2383C14.1525 19.6355 11.8206 20.6689 10.0562 22.1315C8.30173 23.5859 7.16763 25.4102 7.16009 27.4067C7.29531 28.211 7.50707 28.2721 7.50928 28.2728L7.50929 28.2728C7.53209 28.2795 7.60029 28.289 7.74796 28.2401C7.89481 28.1914 8.07328 28.1005 8.28826 27.9682C8.49466 27.8412 8.71041 27.6914 8.94421 27.5292L8.96782 27.5128C9.20487 27.3483 9.45989 27.1719 9.71409 27.0182C9.96707 26.8653 10.2411 26.7212 10.5214 26.6293C10.8018 26.5375 11.1232 26.4865 11.4522 26.562C11.9733 26.6816 12.5209 26.4454 13.0895 25.966C13.5475 25.5798 13.9289 25.1146 14.2363 24.7396C14.3072 24.6532 14.374 24.5716 14.437 24.4969C14.6023 24.3008 14.8121 24.1936 14.9972 24.129C15.1792 24.0655 15.3747 24.0308 15.5452 24.0047C15.6195 23.9934 15.6913 23.9832 15.7609 23.9733C16.0401 23.9336 16.2849 23.8988 16.5291 23.8135C16.806 23.7167 17.0463 23.5631 17.2348 23.2697C17.4318 22.9632 17.6037 22.4547 17.6345 21.5925C17.6455 21.2828 17.9056 21.0407 18.2153 21.0517C18.525 21.0628 18.7672 21.3228 18.7561 21.6325C18.721 22.6157 18.5215 23.3435 18.179 23.8765C17.828 24.4227 17.3607 24.7117 16.8994 24.8729C16.5402 24.9985 16.1607 25.0514 15.8767 25.091C15.8183 25.0991 15.7639 25.1067 15.7145 25.1142C15.554 25.1387 15.4453 25.1614 15.367 25.1887C15.3175 25.206 15.2977 25.2193 15.2928 25.223C15.2448 25.28 15.1897 25.3475 15.1281 25.4229C14.8233 25.7957 14.3597 26.3631 13.813 26.824C13.159 27.3755 12.2475 27.8961 11.2011 27.6559C11.1381 27.6415 11.0352 27.6421 10.8708 27.6959C10.7064 27.7498 10.5152 27.8454 10.2947 27.9787C10.0755 28.1112 9.84867 28.2676 9.60768 28.4348C9.59654 28.4426 9.58537 28.4503 9.57416 28.4581C9.3488 28.6145 9.11 28.7803 8.87653 28.924C8.63309 29.0738 8.36899 29.2166 8.1012 29.3054C7.83424 29.3939 7.51573 29.4448 7.19184 29.3493C6.49948 29.1451 6.1862 28.4273 6.04479 27.5408L6.03797 27.4981L6.03778 27.4549C6.02698 24.9895 7.41937 22.8595 9.33996 21.2674C11.2633 19.6731 13.7768 18.5626 16.171 18.1336C16.4761 18.0789 16.7677 18.2819 16.8224 18.587ZM15.2915 25.224C15.2915 25.224 15.2917 25.2239 15.2919 25.2237L15.2915 25.224Z" fill="#FFD100" stroke="#FFD100" stroke-width="1.81818" stroke-linecap="round"/>
            <path fill-rule="evenodd" clip-rule="evenodd" d="M23.9248 17.3954C24.0339 17.138 24.331 17.0178 24.5884 17.1269L23.9248 17.3954ZM24.5884 17.1269C25.1969 17.3849 25.8077 17.5972 26.4383 17.8164L24.5884 17.1269ZM26.4383 17.8164C26.8055 17.9441 27.1794 18.074 27.5636 18.2167L26.4383 17.8164ZM27.5636 18.2167C28.5821 18.5951 34.0859 21.1208 34.0859 27.806L27.5636 18.2167Z" fill="#FFD100"/>
            <path d="M23.9248 17.3954C23.8157 17.6528 23.9359 17.9499 24.1933 18.059C24.8276 18.328 25.5002 18.5621 26.1561 18.7905C26.5158 18.9157 26.8705 19.0392 27.2111 19.1658C28.1984 19.5325 29.1334 19.9453 29.9784 20.5546C31.6371 21.7504 33.0447 23.7734 33.6158 27.9708C33.7412 28.891 33.5452 29.3794 33.3819 29.5363C33.3206 29.5953 33.2632 29.6129 33.1855 29.6016C33.0885 29.5876 32.9211 29.5193 32.7017 29.3072C32.579 29.1886 32.4847 29.027 32.3933 28.8066C32.3476 28.6964 32.3063 28.5811 32.2607 28.4529L32.2567 28.4419C32.2136 28.3209 32.166 28.1872 32.1123 28.0569C32.0021 27.7898 31.8473 27.4871 31.5809 27.2435C31.3033 26.9896 30.944 26.835 30.4882 26.7955L30.4658 26.7935L30.4434 26.7936C29.7638 26.7949 29.394 26.6878 29.1615 26.5463C28.9347 26.4084 28.7746 26.1998 28.5908 25.844C28.5315 25.7291 28.4833 25.6176 28.4237 25.4796C28.3911 25.4043 28.3552 25.3211 28.3122 25.2253C28.197 24.9686 28.0511 24.67 27.8294 24.314C27.387 23.6038 26.6592 22.692 25.3056 21.4213C25.1018 21.23 24.7815 21.2401 24.5901 21.4439C24.3988 21.6478 24.4089 21.9681 24.6127 22.1594C25.9238 23.3902 26.5875 24.2351 26.9701 24.8493C27.1609 25.1556 27.286 25.4111 27.3885 25.6397C27.4176 25.7045 27.447 25.7723 27.4768 25.8412C27.5453 25.9994 27.6163 26.1631 27.6913 26.3085C27.9065 26.7251 28.1727 27.1298 28.6352 27.4112C29.0872 27.6862 29.662 27.805 30.4211 27.806C30.6712 27.831 30.8074 27.908 30.8978 27.9906C31.0017 28.0856 31.0873 28.2268 31.1764 28.4428C31.2206 28.55 31.261 28.6636 31.307 28.7926C31.3514 28.9174 31.4011 29.0567 31.4582 29.1944C31.5724 29.4697 31.7313 29.7773 31.9982 30.0352C32.312 30.3385 32.6651 30.5494 33.0408 30.6036C33.4358 30.6607 33.8033 30.5356 34.0835 30.2662M23.9248 17.3954C24.0339 17.138 24.331 17.0178 24.5884 17.1269M23.9248 17.3954L24.5884 17.1269M24.5884 17.1269C25.1969 17.3849 25.8077 17.5972 26.4383 17.8164M24.5884 17.1269L26.4383 17.8164M26.4383 17.8164C26.8055 17.9441 27.1794 18.074 27.5636 18.2167M26.4383 17.8164L27.5636 18.2167M27.5636 18.2167C28.5821 18.5951 34.0859 21.1208 34.0859 27.806C33.0652 23.9148 31.9998 21.7844 27.5636 18.2167Z" stroke="#FFD100" stroke-width="1.81818" stroke-linecap="round"/>
            <path fill-rule="evenodd" clip-rule="evenodd" d="M20.2512 15.9693C20.0292 16.1857 19.6739 16.1811 19.4576 15.9592C17.1661 13.6082 14.4883 12.4449 11.8846 12.4624C9.30429 12.4797 6.72779 13.6568 4.59962 16.119C4.40819 16.5137 4.33536 16.7724 4.3208 16.9305C4.3147 16.9968 4.31933 17.0319 4.32366 17.048C4.34183 17.059 4.40686 17.091 4.56946 17.1064C4.75907 17.1244 5.0067 17.1134 5.31213 17.0807C5.54785 17.0555 5.79559 17.0203 6.05855 16.9829C6.13489 16.972 6.2125 16.9609 6.29149 16.9499C6.63437 16.902 6.99699 16.8552 7.34431 16.8354C7.68871 16.8158 8.04651 16.8206 8.37525 16.8891C8.70539 16.9579 9.04844 17.1001 9.30763 17.3888C9.72086 17.849 10.4033 17.9543 11.2767 17.8276C11.897 17.7375 12.4789 17.5555 12.9835 17.3976C13.1924 17.3322 13.388 17.271 13.5676 17.2222C13.8319 17.1503 14.0832 17.1821 14.2923 17.2395C14.4978 17.296 14.6984 17.3878 14.8744 17.4738C14.9497 17.5107 15.0224 17.5472 15.0933 17.5828C15.3811 17.7274 15.6404 17.8576 15.933 17.9378C16.2683 18.0298 16.616 18.0432 17.0125 17.8789C17.4239 17.7085 17.939 17.3254 18.5531 16.5225C18.7414 16.2763 19.0936 16.2294 19.3398 16.4176C19.5859 16.6059 19.6329 16.9581 19.4446 17.2043C18.7586 18.1013 18.0974 18.6443 17.4421 18.9158C16.7719 19.1934 16.1625 19.1646 15.636 19.0202C15.2245 18.9073 14.8429 18.7145 14.5512 18.567C14.4905 18.5364 14.4337 18.5077 14.3814 18.4821C14.2148 18.4006 14.0931 18.3487 13.9948 18.3217C13.9002 18.2957 13.8662 18.3041 13.862 18.3052C13.7447 18.3371 13.5923 18.3847 13.4144 18.4404C12.8937 18.6032 12.1547 18.8342 11.4379 18.9383C10.4727 19.0783 9.27983 19.0377 8.47255 18.1386C8.42662 18.0875 8.33538 18.0272 8.1462 17.9878C7.95562 17.9481 7.70907 17.9388 7.40824 17.9559C7.11033 17.9729 6.78681 18.0139 6.44681 18.0614C6.37509 18.0715 6.30227 18.0818 6.22886 18.0923C5.9626 18.1302 5.68858 18.1692 5.43137 18.1967C5.10453 18.2316 4.76728 18.2526 4.46352 18.2238C4.17008 18.1959 3.82063 18.1144 3.5536 17.8661C3.25853 17.5916 3.16755 17.215 3.2032 16.8277C3.23713 16.459 3.38648 16.0362 3.62536 15.5569L3.6562 15.4951L3.70113 15.4425C6.02324 12.7276 8.91448 11.36 11.877 11.3401C14.8346 11.3203 17.7932 12.6437 20.2613 15.1758C20.4776 15.3977 20.4731 15.753 20.2512 15.9693ZM4.32869 17.0595C4.32833 17.0598 4.32665 17.0576 4.32471 17.0516C4.32808 17.056 4.32905 17.0591 4.32869 17.0595Z" fill="#FFD100" stroke="#FFD100" stroke-width="1.81818" stroke-linecap="round"/>
            <path fill-rule="evenodd" clip-rule="evenodd" d="M11.4793 4.40376C11.4966 4.42208 11.5144 4.44083 11.5327 4.46C11.8586 4.80025 12.3025 5.21672 12.7946 5.67838C12.8614 5.74112 12.9292 5.80469 12.9977 5.86903C13.5626 6.39969 14.1691 6.97554 14.681 7.52342C15.1807 8.05827 15.6392 8.61665 15.86 9.11113C16.2048 9.88324 16.8954 11.0275 17.5168 12.0009C17.8243 12.4827 18.1095 12.9144 18.3179 13.2256C18.422 13.3812 18.5068 13.5065 18.5655 13.5928C18.5949 13.6359 18.6177 13.6693 18.633 13.6918L18.6505 13.7172L18.6559 13.725C18.8216 13.9655 18.7612 14.2953 18.5207 14.461C18.2802 14.6267 17.9509 14.5661 17.7852 14.3256L18.2207 14.0255C17.7852 14.3256 17.7852 14.3256 17.7852 14.3256L17.7787 14.3161L17.7604 14.2894C17.7444 14.2661 17.721 14.2318 17.691 14.1877C17.631 14.0995 17.5447 13.972 17.4389 13.814C17.2275 13.4982 16.9379 13.0599 16.6252 12.5701C16.0062 11.6004 15.275 10.3953 14.8942 9.54238C14.7522 9.22437 14.4056 8.778 13.9081 8.24552C13.4228 7.72608 12.8399 7.17204 12.2735 6.63991C12.2057 6.57627 12.1381 6.51283 12.0709 6.44976C11.5833 5.99243 11.1159 5.55398 10.7688 5.19155C10.5728 4.9868 10.3965 4.78732 10.2734 4.60945C10.2126 4.5216 10.1499 4.41806 10.1079 4.30653C10.0705 4.2069 10.0168 4.01526 10.0944 3.80459C10.1534 3.64447 10.2651 3.54855 10.345 3.49694C10.4253 3.44506 10.5073 3.41547 10.5708 3.3973C10.6979 3.36093 10.8415 3.34544 10.9789 3.33896C11.2602 3.32568 11.6277 3.34598 12.045 3.39246C12.8855 3.48607 13.9974 3.6939 15.171 4.00999C16.3445 4.32604 17.5955 4.75453 18.7086 5.29494C19.8128 5.83103 20.8262 6.49856 21.478 7.31334C22.7257 8.87303 23.1354 10.6379 23.336 11.9876C23.3847 12.3153 23.4215 12.6219 23.454 12.8933L23.457 12.9181C23.4908 13.2001 23.5195 13.4354 23.5527 13.6312C23.571 13.7386 23.5888 13.8226 23.6058 13.8872C23.674 13.8511 23.7601 13.7985 23.8691 13.7249C24.0278 13.6178 24.21 13.4836 24.4302 13.3214C24.6473 13.1615 24.8955 12.9788 25.1739 12.7849C26.2941 12.0043 27.9037 11.041 30.2178 10.4399C32.6481 9.80863 35.2346 9.97139 37.0229 11.0473C37.9234 11.5892 38.672 12.2026 39.161 12.7501C39.4022 13.0203 39.6028 13.2992 39.7169 13.5657C39.8167 13.7987 39.9283 14.2188 39.6375 14.5602C39.4195 14.8161 39.1093 14.8878 38.8725 14.9074C38.6258 14.9279 38.3476 14.9008 38.0714 14.8584C37.7391 14.8073 37.3363 14.7204 36.9157 14.6297C36.6551 14.5734 36.3876 14.5157 36.1257 14.4641C34.6587 14.1751 33.097 14.7417 32.0126 15.3825C31.4849 15.6943 31.0234 16.0013 30.5767 16.2984C30.4955 16.3524 30.4148 16.406 30.3343 16.4593C29.816 16.8026 29.304 17.1318 28.7485 17.4082C27.614 17.9728 26.3342 18.2993 24.4085 18.2083C24.1167 18.1945 23.8914 17.9469 23.9052 17.6551C23.9189 17.3634 24.1666 17.138 24.4584 17.1518C26.2179 17.2349 27.3164 16.9395 28.2773 16.4613C28.7695 16.2164 29.2345 15.919 29.7504 15.5775C29.8279 15.5261 29.9066 15.4738 29.9866 15.4206C30.4333 15.1234 30.9206 14.7993 31.4746 14.4719C32.9438 13.6037 34.888 13.1423 36.3301 13.4264C36.642 13.4878 36.9283 13.5499 37.193 13.6072C37.5816 13.6914 37.9237 13.7655 38.232 13.8129C38.4186 13.8416 38.5658 13.8555 38.6788 13.8566C38.6142 13.7495 38.5143 13.6139 38.3721 13.4546C37.9678 13.0019 37.3072 12.4528 36.4776 11.9536C34.8055 10.9476 32.5221 10.9341 30.4837 11.4636C28.3291 12.0233 26.8343 12.917 25.7785 13.6527C25.5129 13.8377 25.2751 14.0128 25.0574 14.1731L25.0455 14.1819C24.8354 14.3366 24.6381 14.4819 24.4609 14.6015C24.2833 14.7214 24.0998 14.8337 23.9197 14.9074C23.7434 14.9796 23.5048 15.0423 23.2492 14.9736C22.9267 14.887 22.7633 14.6295 22.6815 14.4451C22.5974 14.2554 22.5473 14.0282 22.51 13.8083C22.4715 13.5821 22.4399 13.3193 22.4068 13.0441L22.4043 13.0234C22.3715 12.7496 22.3362 12.4558 22.2898 12.1431C22.099 10.8594 21.7257 9.31618 20.6521 7.97408C20.1432 7.33796 19.2923 6.75409 18.2466 6.24644C17.2099 5.74311 16.0255 5.33552 14.8959 5.0313C13.7665 4.72713 12.7078 4.53052 11.928 4.44366C11.7624 4.42523 11.6125 4.41208 11.4793 4.40376ZM38.7684 14.0534C38.7684 14.0534 38.7669 14.049 38.7663 14.0415C38.7685 14.0499 38.7684 14.0534 38.7684 14.0534Z" fill="#FFD100"/>
            <path d="M17.7852 14.3256C17.9509 14.5661 18.2802 14.6267 18.5207 14.461C18.7612 14.2953 18.8216 13.9655 18.6559 13.725L18.6505 13.7172L18.633 13.6918C18.6177 13.6693 18.5949 13.6359 18.5655 13.5928C18.5068 13.5065 18.422 13.3812 18.3179 13.2256C18.1095 12.9144 17.8243 12.4827 17.5168 12.0009C16.8954 11.0275 16.2048 9.88324 15.86 9.11113C15.6392 8.61665 15.1807 8.05827 14.681 7.52342C14.1691 6.97554 13.5626 6.39969 12.9977 5.86903C12.9292 5.80469 12.8614 5.74112 12.7946 5.67838C12.3025 5.21672 11.8586 4.80025 11.5327 4.46C11.5144 4.44083 11.4966 4.42208 11.4793 4.40376C11.6125 4.41208 11.7624 4.42523 11.928 4.44366C12.7078 4.53052 13.7665 4.72713 14.8959 5.0313C16.0255 5.33552 17.2099 5.74311 18.2466 6.24644C19.2923 6.75409 20.1432 7.33796 20.6521 7.97408C21.7257 9.31618 22.099 10.8594 22.2898 12.1431C22.3362 12.4558 22.3715 12.7496 22.4043 13.0234L22.4068 13.0441C22.4399 13.3193 22.4715 13.5821 22.51 13.8083C22.5473 14.0282 22.5974 14.2554 22.6815 14.4451C22.7633 14.6295 22.9267 14.887 23.2492 14.9736C23.5048 15.0423 23.7434 14.9796 23.9197 14.9074C24.0998 14.8337 24.2833 14.7214 24.4609 14.6015C24.6381 14.4819 24.8354 14.3366 25.0455 14.1819L25.0574 14.1731C25.2751 14.0128 25.5129 13.8377 25.7785 13.6527C26.8343 12.917 28.3291 12.0233 30.4837 11.4636C32.5221 10.9341 34.8055 10.9476 36.4776 11.9536C37.3072 12.4528 37.9678 13.0019 38.3721 13.4546C38.5143 13.6139 38.6142 13.7495 38.6788 13.8566C38.5658 13.8555 38.4186 13.8416 38.232 13.8129C37.9237 13.7655 37.5816 13.6914 37.193 13.6072C36.9283 13.5499 36.642 13.4878 36.3301 13.4264C34.888 13.1423 32.9438 13.6037 31.4746 14.4719C30.9206 14.7993 30.4333 15.1234 29.9866 15.4206C29.9066 15.4738 29.8279 15.5261 29.7504 15.5775C29.2345 15.919 28.7695 16.2164 28.2773 16.4613C27.3164 16.9395 26.2179 17.2349 24.4584 17.1518C24.1666 17.138 23.9189 17.3634 23.9052 17.6551C23.8914 17.9469 24.1167 18.1945 24.4085 18.2083C26.3342 18.2993 27.614 17.9728 28.7485 17.4082C29.304 17.1318 29.816 16.8026 30.3343 16.4593C30.4148 16.406 30.4955 16.3524 30.5767 16.2984C31.0234 16.0013 31.4849 15.6943 32.0126 15.3825C33.097 14.7417 34.6587 14.1751 36.1257 14.4641C36.3876 14.5157 36.6551 14.5734 36.9157 14.6297C37.3363 14.7204 37.7391 14.8073 38.0714 14.8584C38.3476 14.9008 38.6258 14.9279 38.8725 14.9074C39.1093 14.8878 39.4195 14.8161 39.6375 14.5602C39.9283 14.2188 39.8167 13.7987 39.7169 13.5657C39.6028 13.2992 39.4022 13.0203 39.161 12.7501C38.672 12.2026 37.9234 11.5892 37.0229 11.0473C35.2346 9.97139 32.6481 9.80863 30.2178 10.4399C27.9037 11.041 26.2941 12.0043 25.1739 12.7849C24.8955 12.9788 24.6473 13.1615 24.4302 13.3214C24.21 13.4836 24.0278 13.6178 23.8691 13.7249C23.7601 13.7985 23.674 13.8511 23.6058 13.8872C23.5888 13.8226 23.571 13.7386 23.5527 13.6312C23.5195 13.4354 23.4908 13.2001 23.457 12.9181L23.454 12.8933C23.4215 12.6219 23.3847 12.3153 23.336 11.9876C23.1354 10.6379 22.7257 8.87303 21.478 7.31334C20.8262 6.49856 19.8128 5.83103 18.7086 5.29494C17.5955 4.75453 16.3445 4.32604 15.171 4.00999C13.9974 3.6939 12.8855 3.48607 12.045 3.39246C11.6277 3.34598 11.2602 3.32568 10.9789 3.33896C10.8415 3.34544 10.6979 3.36093 10.5708 3.3973C10.5073 3.41547 10.4253 3.44506 10.345 3.49694C10.2651 3.54855 10.1534 3.64447 10.0944 3.80459C10.0168 4.01526 10.0705 4.2069 10.1079 4.30653C10.1499 4.41806 10.2126 4.5216 10.2734 4.60945C10.3965 4.78732 10.5728 4.9868 10.7688 5.19155C11.1159 5.55398 11.5833 5.99243 12.0709 6.44976C12.1381 6.51283 12.2057 6.57627 12.2735 6.63991C12.8399 7.17204 13.4228 7.72608 13.9081 8.24552C14.4056 8.778 14.7522 9.22437 14.8942 9.54238C15.275 10.3953 16.0062 11.6004 16.6252 12.5701C16.9379 13.0599 17.2275 13.4982 17.4389 13.814C17.5447 13.972 17.631 14.0995 17.691 14.1877C17.721 14.2318 17.7444 14.2661 17.7604 14.2894L17.7787 14.3161L17.7852 14.3256ZM17.7852 14.3256L18.2207 14.0255C17.7852 14.3256 17.7852 14.3256 17.7852 14.3256ZM23.6587 14.0373L23.6606 14.0403M38.7684 14.0534C38.7684 14.0534 38.7669 14.049 38.7663 14.0415C38.7685 14.0499 38.7684 14.0534 38.7684 14.0534Z" stroke="#FFD100" stroke-width="1.81818" stroke-linecap="round"/>
            <path fill-rule="evenodd" clip-rule="evenodd" d="M22.4321 46.4093C22.1712 46.5767 21.8241 46.5009 21.6567 46.2401C20.3253 42.0265 19.7951 42.0909 19.209 36.4874C18.6219 30.8736 18.8793 24.5296 20.1555 18.3157C20.2179 18.0121 20.5145 17.8165 20.8181 17.8789C21.1217 17.9412 21.3172 18.2379 21.2549 18.5415C20.0018 24.6426 19.75 30.8711 20.3253 36.3707C20.9015 41.8806 22.6013 45.634 22.6013 45.634C22.6013 45.634 22.6929 46.242 22.4321 46.4093Z" fill="#FFD100" stroke="#FFD100" stroke-width="1.81818" stroke-linecap="round"/>
            <path fill-rule="evenodd" clip-rule="evenodd" d="M29.696 50.2811C29.4351 50.4485 29.088 50.3727 28.9206 50.1119C26.8365 46.8636 24.6185 43.2224 23.1778 38.3445C21.7363 33.4635 21.0813 27.3752 22.0684 19.2219C22.1056 18.9142 22.3852 18.695 22.6929 18.7322C23.0006 18.7695 23.2198 19.0491 23.1826 19.3568C22.2113 27.3793 22.8617 33.3114 24.2542 38.0266C25.6477 42.7448 27.7926 46.2754 29.8652 49.5058C30.0326 49.7666 29.9568 50.1138 29.696 50.2811Z" fill="#FFD100" stroke="#FFD100" stroke-width="1.81818" stroke-linecap="round"/>
        </g>
        <g filter="url(#filter8_d_4538_7221)">
            <path d="M17.787 21.5341C17.4547 24.2258 15.4861 24.1228 14.8649 24.8597C14.2437 25.5967 12.893 27.4699 11.3255 27.1101C9.75795 26.7503 7.15094 30.9212 6.59779 27.4536C6.57817 22.9748 11.6581 19.5134 16.2688 18.6872" stroke="white" stroke-width="1.81818" stroke-linecap="round"/>
            <path d="M25.0001 21.7925C27.6309 24.2623 27.7478 25.2614 28.1417 26.024C28.5356 26.7867 28.9835 27.2349 30.4159 27.2321C31.8359 27.3552 31.528 28.8299 32.2973 29.5735C33.3502 30.5912 34.3034 29.7436 34.0424 27.8272C32.888 19.3434 28.2798 19.2765 24.4389 17.6482" stroke="white" stroke-width="1.81818" stroke-linecap="round"/>
            <path d="M18.3583 17.7643C15.6666 19.9057 14.8005 17.4724 13.7265 17.7643C12.6524 18.0563 10.1223 19.1236 8.90178 17.7643C7.68127 16.4051 2.32755 19.4424 4.13927 15.8079C8.59828 10.5946 14.696 10.3372 19.4557 15.2202" stroke="white" stroke-width="1.81818" stroke-linecap="round"/>
            <path d="M18.29 14.025C18.29 14.025 16.1903 10.9778 15.4709 9.36679C14.7516 7.7558 10.5243 4.62007 10.7257 4.07349C10.9271 3.5269 18.8084 4.82147 21.1098 7.69825C23.4112 10.575 22.662 14.2573 23.4112 14.4587C24.1604 14.66 25.8852 12.1285 30.3155 10.9778C34.7457 9.82706 39.5033 13.2483 38.8417 14.025C38.18 14.8018 34.2279 13.423 31.6963 14.919C29.1648 16.4149 28.1027 17.8207 24.4492 17.6481" stroke="white" stroke-width="1.81818" stroke-linecap="round"/>
            <path d="M20.7109 18.4294C18.1816 30.7446 19.4287 37.8862 22.3782 46.1448" stroke="white" stroke-width="1.81818" stroke-linecap="round"/>
            <path d="M22.6273 19.2909C20.669 35.4667 24.9211 42.7765 29.0779 49.2552" stroke="white" stroke-width="1.81818" stroke-linecap="round"/>
        </g>
    </g>
    <defs>
        <filter id="filter0_df_4538_7221" x="0.220881" y="0.607844" width="145.543" height="80.1874" filterUnits="userSpaceOnUse" color-interpolation-filters="sRGB">
            <feFlood flood-opacity="0" result="BackgroundImageFix"/>
            <feColorMatrix in="SourceAlpha" type="matrix" values="0 0 0 0 0 0 0 0 0 0 0 0 0 0 0 0 0 0 127 0" result="hardAlpha"/>
            <feOffset/>
            <feGaussianBlur stdDeviation="0.909091"/>
            <feComposite in2="hardAlpha" operator="out"/>
            <feColorMatrix type="matrix" values="0 0 0 0 0 0 0 0 0 1 0 0 0 0 0.698039 0 0 0 1 0"/>
            <feBlend mode="normal" in2="BackgroundImageFix" result="effect1_dropShadow_4538_7221"/>
            <feBlend mode="normal" in="SourceGraphic" in2="effect1_dropShadow_4538_7221" result="shape"/>
            <feGaussianBlur stdDeviation="0.528978" result="effect2_foregroundBlur_4538_7221"/>
        </filter>
        <filter id="filter1_df_4538_7221" x="1.36193" y="2.11095" width="143.253" height="77.1809" filterUnits="userSpaceOnUse" color-interpolation-filters="sRGB">
            <feFlood flood-opacity="0" result="BackgroundImageFix"/>
            <feColorMatrix in="SourceAlpha" type="matrix" values="0 0 0 0 0 0 0 0 0 0 0 0 0 0 0 0 0 0 127 0" result="hardAlpha"/>
            <feOffset/>
            <feGaussianBlur stdDeviation="2.11591"/>
            <feComposite in2="hardAlpha" operator="out"/>
            <feColorMatrix type="matrix" values="0 0 0 0 0 0 0 0 0 1 0 0 0 0 0.698039 0 0 0 1 0"/>
            <feBlend mode="normal" in2="BackgroundImageFix" result="effect1_dropShadow_4538_7221"/>
            <feBlend mode="normal" in="SourceGraphic" in2="effect1_dropShadow_4538_7221" result="shape"/>
            <feGaussianBlur stdDeviation="0.528978" result="effect2_foregroundBlur_4538_7221"/>
        </filter>
        <filter id="filter2_f_4538_7221" x="3.47784" y="4.22686" width="139.021" height="72.9491" filterUnits="userSpaceOnUse" color-interpolation-filters="sRGB">
            <feFlood flood-opacity="0" result="BackgroundImageFix"/>
            <feBlend mode="normal" in="SourceGraphic" in2="BackgroundImageFix" result="shape"/>
            <feGaussianBlur stdDeviation="1.05796" result="effect1_foregroundBlur_4538_7221"/>
        </filter>
        <filter id="filter3_f_4538_7221" x="35.3849" y="43.3823" width="75.2145" height="25.9855" filterUnits="userSpaceOnUse" color-interpolation-filters="sRGB">
            <feFlood flood-opacity="0" result="BackgroundImageFix"/>
            <feBlend mode="normal" in="SourceGraphic" in2="BackgroundImageFix" result="shape"/>
            <feGaussianBlur stdDeviation="0.909091" result="effect1_foregroundBlur_4538_7221"/>
        </filter>
        <filter id="filter4_df_4538_7221" x="35.3849" y="43.3823" width="75.2145" height="25.9855" filterUnits="userSpaceOnUse" color-interpolation-filters="sRGB">
            <feFlood flood-opacity="0" result="BackgroundImageFix"/>
            <feColorMatrix in="SourceAlpha" type="matrix" values="0 0 0 0 0 0 0 0 0 0 0 0 0 0 0 0 0 0 127 0" result="hardAlpha"/>
            <feOffset/>
            <feGaussianBlur stdDeviation="0.909091"/>
            <feComposite in2="hardAlpha" operator="out"/>
            <feColorMatrix type="matrix" values="0 0 0 0 0.952941 0 0 0 0 0.0392157 0 0 0 0 0.643137 0 0 0 1 0"/>
            <feBlend mode="normal" in2="BackgroundImageFix" result="effect1_dropShadow_4538_7221"/>
            <feBlend mode="normal" in="SourceGraphic" in2="effect1_dropShadow_4538_7221" result="shape"/>
            <feGaussianBlur stdDeviation="0.909091" result="effect2_foregroundBlur_4538_7221"/>
        </filter>
        <filter id="filter5_f_4538_7221" x="35.9709" y="15.0905" width="89.6832" height="30.0182" filterUnits="userSpaceOnUse" color-interpolation-filters="sRGB">
            <feFlood flood-opacity="0" result="BackgroundImageFix"/>
            <feBlend mode="normal" in="SourceGraphic" in2="BackgroundImageFix" result="shape"/>
            <feGaussianBlur stdDeviation="0.909091" result="effect1_foregroundBlur_4538_7221"/>
        </filter>
        <filter id="filter6_df_4538_7221" x="35.9709" y="15.0905" width="89.6832" height="30.0182" filterUnits="userSpaceOnUse" color-interpolation-filters="sRGB">
            <feFlood flood-opacity="0" result="BackgroundImageFix"/>
            <feColorMatrix in="SourceAlpha" type="matrix" values="0 0 0 0 0 0 0 0 0 0 0 0 0 0 0 0 0 0 127 0" result="hardAlpha"/>
            <feOffset/>
            <feGaussianBlur stdDeviation="0.909091"/>
            <feComposite in2="hardAlpha" operator="out"/>
            <feColorMatrix type="matrix" values="0 0 0 0 0.952941 0 0 0 0 0.0392157 0 0 0 0 0.643137 0 0 0 1 0"/>
            <feBlend mode="normal" in2="BackgroundImageFix" result="effect1_dropShadow_4538_7221"/>
            <feBlend mode="normal" in="SourceGraphic" in2="effect1_dropShadow_4538_7221" result="shape"/>
            <feGaussianBlur stdDeviation="0.909091" result="effect2_foregroundBlur_4538_7221"/>
        </filter>
        <filter id="filter7_f_4538_7221" x="-1.3473" y="-1.21058" width="45.718" height="56.1262" filterUnits="userSpaceOnUse" color-interpolation-filters="sRGB">
            <feFlood flood-opacity="0" result="BackgroundImageFix"/>
            <feBlend mode="normal" in="SourceGraphic" in2="BackgroundImageFix" result="shape"/>
            <feGaussianBlur stdDeviation="1.81818" result="effect1_foregroundBlur_4538_7221"/>
        </filter>
        <filter id="filter8_d_4538_7221" x="1.30339" y="1.48577" width="40.0651" height="50.2348" filterUnits="userSpaceOnUse" color-interpolation-filters="sRGB">
            <feFlood flood-opacity="0" result="BackgroundImageFix"/>
            <feColorMatrix in="SourceAlpha" type="matrix" values="0 0 0 0 0 0 0 0 0 0 0 0 0 0 0 0 0 0 127 0" result="hardAlpha"/>
            <feOffset/>
            <feGaussianBlur stdDeviation="0.777991"/>
            <feComposite in2="hardAlpha" operator="out"/>
            <feColorMatrix type="matrix" values="0 0 0 0 1 0 0 0 0 1 0 0 0 0 1 0 0 0 0.25 0"/>
            <feBlend mode="normal" in2="BackgroundImageFix" result="effect1_dropShadow_4538_7221"/>
            <feBlend mode="normal" in="SourceGraphic" in2="effect1_dropShadow_4538_7221" result="shape"/>
        </filter>
        <clipPath id="clip0_4538_7221">
            <rect width="146" height="80" fill="white" transform="translate(0 0.5)"/>
        </clipPath>
    </defs>
</svg>