<svg xmlns="http://www.w3.org/2000/svg" width="156" height="38" viewBox="0 0 156 38" fill="none">
    <path d="M155.275 25.2383C153.043 25.1672 150.874 25.1245 148.769 25.1103V36.245H143.437V25.1103C141.318 25.1245 139.156 25.1672 136.952 25.2383V20.7588H155.275V25.2383Z" fill="white"/>
    <path d="M133.963 25.0036C132.271 24.9183 131.019 24.8685 130.209 24.8543V32.1495C131.033 32.1353 132.285 32.0855 133.963 32.0002V36.245H121.57V32.0002C123.205 32.0855 124.449 32.1353 125.303 32.1495V24.8543C124.449 24.8685 123.205 24.9183 121.57 25.0036V20.7588H133.963V25.0036Z" fill="white"/>
    <path d="M113.729 28.5446C116.972 28.5446 118.593 29.5756 118.593 31.6376C118.593 32.6046 118.372 33.4294 117.932 34.1119C117.491 34.7803 116.701 35.3065 115.564 35.6904C114.426 36.0602 112.848 36.245 110.828 36.245H101.229C101.343 33.4862 101.4 30.9052 101.4 28.5019C101.4 26.0986 101.343 23.5176 101.229 20.7588H106.242V20.7801H110.786C112.549 20.7801 113.936 20.9294 114.945 21.2281C115.969 21.5125 116.687 21.932 117.1 22.4866C117.526 23.0412 117.74 23.7451 117.74 24.5984C117.74 25.4658 117.434 26.2408 116.822 26.9234C116.225 27.5918 115.194 28.1322 113.729 28.5446ZM106.242 24.6623V26.6461H110.338C111.219 26.6461 111.831 26.5679 112.172 26.4115C112.528 26.2551 112.705 25.9706 112.705 25.5582C112.705 25.2312 112.521 25.0036 112.151 24.8757C111.795 24.7335 111.191 24.6623 110.338 24.6623H106.242ZM110.338 32.3415C111.077 32.3415 111.639 32.313 112.023 32.2562C112.421 32.1851 112.705 32.0713 112.876 31.9149C113.047 31.7442 113.132 31.5167 113.132 31.2323C113.132 30.8625 112.926 30.5995 112.514 30.443C112.115 30.2724 111.39 30.1871 110.338 30.1871H106.242V32.3415H110.338Z" fill="white"/>
    <path d="M93.3892 28.5446C96.6315 28.5446 98.2526 29.5756 98.2526 31.6376C98.2526 32.6046 98.0322 33.4294 97.5914 34.1119C97.1505 34.7803 96.3613 35.3065 95.2236 35.6904C94.086 36.0602 92.5075 36.245 90.4882 36.245H80.8892C81.003 33.4862 81.0599 30.9052 81.0599 28.5019C81.0599 26.0986 81.003 23.5176 80.8892 20.7588H85.902V20.7801H90.4455C92.2089 20.7801 93.5954 20.9294 94.605 21.2281C95.6289 21.5125 96.347 21.932 96.7594 22.4866C97.1861 23.0412 97.3994 23.7451 97.3994 24.5984C97.3994 25.4658 97.0936 26.2408 96.4821 26.9234C95.8849 27.5918 94.8539 28.1322 93.3892 28.5446ZM85.902 24.6623V26.6461H89.9975C90.8792 26.6461 91.4907 26.5679 91.832 26.4115C92.1875 26.2551 92.3653 25.9706 92.3653 25.5582C92.3653 25.2312 92.1804 25.0036 91.8107 24.8757C91.4552 24.7335 90.8508 24.6623 89.9975 24.6623H85.902ZM89.9975 32.3415C90.737 32.3415 91.2987 32.313 91.6827 32.2562C92.0809 32.1851 92.3653 32.0713 92.5359 31.9149C92.7066 31.7442 92.7919 31.5167 92.7919 31.2323C92.7919 30.8625 92.5857 30.5995 92.1733 30.443C91.7751 30.2724 91.0499 30.1871 89.9975 30.1871H85.902V32.3415H89.9975Z" fill="white"/>
    <path d="M73.3631 36.245C73.0929 35.4345 72.7303 34.4177 72.2752 33.1947H65.4706L64.4041 36.245H59.05L65.0227 20.7588H72.8725L78.8878 36.245H73.3631ZM71.0593 29.8671C70.5189 28.3739 69.9643 26.8808 69.3955 25.3876L68.8836 24.0011C68.3859 25.2952 67.6535 27.2505 66.6865 29.8671H71.0593Z" fill="white"/>
    <path d="M57.6273 25.9209C57.6273 27.1581 57.3215 28.2033 56.71 29.0565C56.1128 29.9098 55.0818 30.5284 53.6171 30.9123C53.7877 31.1398 53.9086 31.3176 53.9797 31.4456L57.4353 36.245H51.6333C51.0076 35.0789 50.0192 33.4294 48.6683 31.2963H45.5326V36.245H40.4985C40.6123 33.4862 40.6692 30.9052 40.6692 28.5019C40.6692 26.0986 40.6123 23.5176 40.4985 20.7588H45.5326V20.7801H49.9055C52.778 20.7801 54.7831 21.2423 55.9208 22.1666C57.0584 23.091 57.6273 24.3424 57.6273 25.9209ZM45.5326 24.8757V27.3074H48.4123C49.6211 27.3074 50.5312 27.2718 51.1427 27.2007C51.7684 27.1154 52.2021 26.9874 52.4439 26.8168C52.6856 26.6461 52.8065 26.3973 52.8065 26.0702C52.8065 25.7573 52.6927 25.5156 52.4652 25.3449C52.2377 25.1743 51.811 25.0534 51.1853 24.9823C50.5596 24.9112 49.6353 24.8757 48.4123 24.8757H45.5326Z" fill="white"/>
    <path d="M155.275 4.91101C153.462 4.85326 151.7 4.81861 149.991 4.80705V13.8515H145.659V4.80705C143.938 4.81861 142.182 4.85326 140.392 4.91101V1.27246H155.275V4.91101Z" fill="white"/>
    <path d="M114.826 1.28979C117.124 1.28979 118.724 1.69985 119.625 2.51996C120.526 3.32853 120.976 4.47208 120.976 5.9506C120.976 6.96708 120.797 7.83341 120.439 8.54957C120.081 9.25418 119.452 9.80862 118.551 10.2129C117.65 10.6056 116.408 10.802 114.826 10.802H111.222V13.8515H106.959C107.052 11.6106 107.098 9.51407 107.098 7.56196C107.098 5.60985 107.052 3.51335 106.959 1.27246H111.222V1.28979H114.826ZM113.613 7.458C114.571 7.458 115.288 7.42335 115.761 7.35404C116.246 7.27319 116.581 7.13457 116.766 6.93821C116.962 6.74184 117.061 6.45307 117.061 6.07188C117.061 5.6907 116.968 5.4077 116.783 5.22289C116.61 5.02652 116.281 4.89369 115.796 4.82438C115.322 4.75508 114.595 4.72042 113.613 4.72042H111.222V7.458H113.613Z" fill="white"/>
    <path d="M99.0928 13.8515C98.5499 12.8696 97.649 11.368 96.3899 9.34658L94.3627 11.3565V13.8515H90.0484C90.1408 11.6106 90.1871 9.51407 90.1871 7.56196C90.1871 5.60985 90.1408 3.51335 90.0484 1.27246H94.3627V6.34911C96.4881 4.24683 98.0013 2.55462 98.9023 1.27246H104.516L99.0582 6.67831C99.8668 7.81031 100.774 9.04048 101.778 10.3688C102.795 11.6972 103.713 12.8581 104.533 13.8515H99.0928Z" fill="white"/>
    <path d="M80.2875 14.0243C77.6769 14.0243 75.7537 13.4699 74.5177 12.361C73.2818 11.2521 72.6638 9.66961 72.6638 7.61354C72.6638 5.54591 73.2818 3.91145 74.5177 2.71015C75.7537 1.50885 77.6769 0.908203 80.2875 0.908203C83.9376 0.908203 86.3806 2.16148 87.6165 4.66804C86.577 5.02612 85.3583 5.56324 83.9607 6.2794C83.6257 5.63255 83.0943 5.15318 82.3666 4.84131C81.6505 4.52943 80.917 4.37349 80.1662 4.37349C79.0573 4.37349 78.2314 4.66804 77.6885 5.25714C77.1456 5.83469 76.8741 6.55085 76.8741 7.40562C76.8741 8.3297 77.1629 9.08628 77.7405 9.67538C78.3296 10.2529 79.2248 10.5417 80.4261 10.5417C81.3848 10.5417 82.1472 10.3858 82.7132 10.0739C83.2792 9.75046 83.695 9.24222 83.9607 8.54916C84.9078 9.05741 86.1207 9.62918 87.5992 10.2645C87.0217 11.6621 86.0572 12.6382 84.7057 13.1927C83.3542 13.7471 81.8815 14.0243 80.2875 14.0243Z" fill="white"/>
    <path d="M67.075 13.8515C66.8556 13.1931 66.561 12.3672 66.1914 11.3738H60.6643L59.7979 13.8515H55.449L60.3004 1.27246H66.6765L71.5626 13.8515H67.075ZM65.2038 8.67085C64.7649 7.458 64.3144 6.24515 63.8523 5.0323L63.4365 3.90608C63.0322 4.95722 62.4373 6.54548 61.6519 8.67085H65.2038Z" fill="white"/>
    <path d="M53.72 1.25488V7.37112C53.72 9.53115 53.1598 11.1829 52.0393 12.3265C50.9305 13.4585 49.1689 14.0245 46.7548 14.0245C45.3687 14.0245 44.0865 13.8223 42.9083 13.418C41.7417 13.0138 40.7021 12.4882 39.7896 11.8413C40.009 11.1252 40.1881 10.4379 40.3267 9.77949C40.4653 9.12109 40.5692 8.39915 40.6385 7.61369C41.8283 8.57242 42.9256 9.2366 43.9306 9.60623C44.9355 9.97586 45.8942 10.1607 46.8068 10.1607C47.7539 10.1607 48.4297 9.94698 48.834 9.51959C49.2382 9.09221 49.4462 8.35872 49.4577 7.31914V6.00233C49.4577 4.13107 49.4057 2.54859 49.3018 1.25488H53.72Z" fill="white"/>
    <path fill-rule="evenodd" clip-rule="evenodd" d="M125.28 12.309C126.527 13.4525 128.474 14.0243 131.119 14.0243C133.799 14.0243 135.757 13.4525 136.992 12.309C138.228 11.1655 138.846 9.54832 138.846 7.4576C138.846 5.40153 138.223 3.79594 136.975 2.64085C135.739 1.48575 133.787 0.908203 131.119 0.908203C128.462 0.908203 126.51 1.48575 125.262 2.64085C124.027 3.79594 123.409 5.40153 123.409 7.4576C123.409 9.53677 124.032 11.1539 125.28 12.309ZM130.401 2.36517C130.084 2.00199 129.488 2.16168 129.395 2.63471L128.887 5.22031C128.85 5.40867 128.723 5.5665 128.546 5.64186L126.123 6.67633C125.679 6.86558 125.647 7.48173 126.068 7.71629L128.37 8.99841C128.538 9.09181 128.648 9.26214 128.666 9.45333L128.901 12.0779C128.943 12.558 129.52 12.7791 129.873 12.4511L131.803 10.6579C131.944 10.5272 132.14 10.4747 132.327 10.5175L134.896 11.1051C135.366 11.2126 135.754 10.7331 135.551 10.2958L134.443 7.90536C134.362 7.73123 134.373 7.52841 134.471 7.36368L135.824 5.10228C136.071 4.68857 135.735 4.17111 135.256 4.2289L132.64 4.54477C132.45 4.56778 132.26 4.495 132.134 4.35038L130.401 2.36517Z" fill="#EBFF07"/>
    <path fill-rule="evenodd" clip-rule="evenodd" d="M20.0085 29.0507L16.3985 29.1064C16.3985 29.1064 16.8243 23.7274 16.3985 20.2812C16.0807 17.7162 15.1962 11.0924 12.7885 9.85745C11.6059 9.25142 7.41605 10.4307 5.95174 11.0695C4.33019 11.7804 1.79467 13.4969 1.79467 13.4969C1.79467 13.4969 0.756224 14.2471 0.372948 15.0956C-0.0103277 15.9506 -0.0561897 18.0569 0.0486379 19.9537C0.179672 22.3287 0.376224 23.2164 1.30657 25.9092C1.95847 27.7961 3.49484 29.9385 4.35967 31.049C4.69053 31.4781 5.30312 31.524 5.69622 31.1538C6.86243 30.0499 9.14243 27.6814 10.3316 25.0837C11.5011 22.5252 12.0317 19.6031 12.2414 18.1388C12.2676 17.9554 12.4642 17.9554 12.4773 18.1388C12.5395 19.1609 12.4773 20.9987 11.7009 23.5407C10.4593 27.6224 8.41847 29.7157 8.41847 29.7157L10.3316 32.474C10.3316 32.474 9.4995 33.3487 9.07364 33.9088C8.79847 34.2692 8.51674 34.849 8.34967 35.2192C5.36209 35.4714 3.49812 35.8285 3.49812 36.2249C3.49812 36.9849 10.3774 37.604 18.8652 37.604C27.3529 37.604 34.2323 36.9881 34.2323 36.2249C34.2323 35.8121 32.2209 35.4419 29.0302 35.1897C28.7583 34.7442 28.2898 33.994 27.9426 33.5223C27.4185 32.8114 26.5766 32.0874 26.5766 32.0874C26.5766 32.0874 31.4543 25.1393 32.2635 16.9759C32.9973 9.55279 31.1529 3.23038 30.2062 0.590036C29.9736 -0.0553091 29.1842 -0.205999 28.7321 0.311587C27.0385 2.24107 23.5169 6.69952 21.5973 12.3438C19.0093 19.9537 20.0117 29.054 20.0117 29.054L20.0085 29.0507Z" fill="#EBFF07"/>
</svg>