<?xml version="1.0" encoding="UTF-8"?>
<svg id="Layer_1" xmlns="http://www.w3.org/2000/svg" version="1.1" viewBox="0 0 1768.53 554.56">
  <!-- Generator: Adobe Illustrator 29.8.2, SVG Export Plug-In . SVG Version: 2.1.1 Build 3)  -->
  <defs>
    <style>
      .st0 {
        fill: #00297c;
      }

      .st1 {
        fill: #fff;
      }
    </style>
  </defs>
  <path class="st0" d="M1743.04,157.17c-16.88-21.4-39.38-36.32-66.91-44.34-24.34-7.09-49.1-13.94-73.6-20.36-5.2-1.36-10.34-.4-14.46,2.7-1.59,1.19-2.92,2.64-3.96,4.27-.27.35-.54.7-.78,1.08-.27.36-.55.71-.79,1.09-.27.36-.55.71-.79,1.09-.27.35-.54.7-.77,1.07-.28.36-.55.72-.79,1.1-.27.35-.54.71-.78,1.08-.27.36-.54.71-.79,1.09-.27.36-.54.71-.78,1.09-.21.27-.41.54-.6.83v-8.07c0-4.26-1.45-8.34-4.23-11.84-2.72-3.4-6.32-5.74-10.41-6.74-17.78-4.39-35.88-8.67-53.81-12.72-5.16-1.17-10.22-.08-14.25,3.07-1.73,1.35-3.13,3.03-4.18,4.9-.24.36-.47.73-.68,1.11-.24.36-.47.74-.68,1.12-.24.36-.47.73-.68,1.11-.24.36-.46.73-.68,1.11-.25.37-.47.74-.69,1.13-.24.36-.46.72-.67,1.09-.24.36-.47.74-.68,1.12-.24.36-.47.73-.68,1.12-.24.36-.47.73-.68,1.11-.24.36-.47.74-.68,1.12-.24.36-.47.73-.68,1.11-.24.36-.47.73-.68,1.11-.24.36-.47.73-.68,1.11-.24.36-.47.73-.68,1.11-.24.36-.46.73-.68,1.1-.25.36-.47.74-.69,1.12-.24.36-.46.73-.68,1.11-.12.18-.25.35-.36.54-2.17-8.09-4.34-16.17-6.51-24.24-.01-.05-.03-.1-.04-.15-2.12-7.54-7.76-12.78-15.47-14.37-20.14-4.16-40.66-8.15-60.98-11.88-5.11-.94-10.08.31-13.96,3.49-2.11,1.72-3.7,3.86-4.75,6.26-.2.37-.39.75-.56,1.14-.2.37-.39.75-.56,1.14-.2.37-.39.75-.55,1.13-.2.38-.39.75-.56,1.14-.2.37-.39.75-.56,1.14-.19.37-.38.74-.55,1.12-.2.38-.39.76-.56,1.15-.2.37-.39.75-.55,1.13-.2.37-.39.75-.56,1.14-.2.37-.39.75-.56,1.14-.2.37-.39.75-.55,1.13-.2.38-.39.76-.56,1.15-.2.37-.38.74-.55,1.13-.2.37-.39.75-.56,1.14-.2.37-.39.75-.56,1.14-.2.38-.39.76-.56,1.15-.19.37-.38.74-.55,1.12-.2.38-.39.76-.56,1.15-.2.37-.39.75-.56,1.14-.2.37-.39.75-.56,1.14-.2.37-.39.75-.56,1.14-.2.37-.38.74-.55,1.13-.2.38-.39.75-.56,1.14-.2.37-.39.75-.56,1.14-.19.37-.38.74-.55,1.12-.2.37-.39.75-.56,1.14-.2.38-.39.76-.56,1.15-.2.37-.38.74-.55,1.12-.2.38-.39.76-.56,1.15-.2.37-.39.75-.56,1.14-.2.37-.39.75-.56,1.14-.2.37-.39.75-.56,1.14-.2.37-.39.75-.55,1.13-.2.37-.39.75-.56,1.14-.2.37-.39.75-.56,1.14-.2.37-.38.74-.55,1.13-.2.38-.39.76-.56,1.15-.2.37-.39.75-.55,1.13-.2.37-.39.75-.56,1.14-.2.37-.39.75-.56,1.14-.2.37-.39.75-.55,1.13-.2.37-.39.75-.56,1.14-.2.37-.39.75-.55,1.14-.2.37-.39.75-.55,1.14-.2.37-.39.75-.56,1.14-.2.37-.39.75-.56,1.14-.2.37-.38.74-.55,1.12-.2.38-.39.76-.56,1.15-.2.37-.38.74-.55,1.13-.2.37-.39.75-.56,1.14-1.27,2.39-1.96,5.09-1.96,7.97v49.08c-8.5-41.16-17-82.29-25.47-123.16-1.58-8.34-7.71-14.29-16.04-15.54-21.81-3.28-43.96-6.35-65.85-9.11-9.14-1.15-16.77,3.89-19.2,12.41-.14.39-.27.77-.39,1.18-.13.38-.27.75-.38,1.14-.14.39-.27.77-.39,1.18-.13.38-.27.76-.38,1.15-.14.38-.27.76-.38,1.16-.14.38-.27.77-.39,1.17-.14.38-.27.77-.39,1.17-.13.38-.27.76-.38,1.15-.14.38-.27.77-.38,1.16-.14.38-.27.77-.39,1.17-.14.38-.27.76-.38,1.16-.14.38-.27.76-.38,1.16-.14.38-.27.77-.39,1.17-.14.38-.27.76-.38,1.16-.14.39-.27.78-.39,1.18-.13.38-.27.75-.38,1.14-.14.38-.27.77-.39,1.17-.14.38-.27.77-.39,1.17-.14.38-.27.77-.38,1.16-.13.38-.27.76-.38,1.15-.14.39-.27.77-.39,1.17-.13.38-.27.76-.38,1.16-.14.39-.27.77-.39,1.18-.13.38-.27.76-.38,1.15-.14.38-.27.77-.38,1.16-.14.39-.27.77-.39,1.17-.13.38-.27.75-.38,1.14-.14.39-.27.78-.39,1.18-.14.38-.27.76-.38,1.16-.14.38-.27.77-.38,1.16-.14.38-.27.76-.38,1.16-.14.38-.27.76-.38,1.16-.14.38-.27.77-.38,1.16-.14.38-.27.77-.38,1.17-.14.38-.27.76-.38,1.16-.14.38-.27.76-.38,1.16-.14.38-.27.77-.39,1.17-.14.38-.27.76-.38,1.16-.14.38-.27.77-.39,1.17-.14.38-.27.77-.39,1.16-.14.38-.27.76-.38,1.16-.14.38-.27.77-.39,1.17-.14.39-.27.77-.39,1.17-.13.38-.27.75-.38,1.15-.14.38-.27.76-.38,1.16-.14.39-.27.78-.39,1.18-.14.38-.27.76-.38,1.15-.14.38-.27.76-.38,1.16-.14.38-.27.76-.38,1.16-.14.39-.27.77-.39,1.18-.31.86-.57,1.76-.76,2.7-11.7,52.73-23.24,104.79-34.51,155.65-.51-3.62-2.08-6.96-4.67-9.8-3.13-3.38-7.19-5.4-11.75-5.84-24.07-2.26-48.47-4.24-72.66-5.89V23.39c0-4.62-1.76-9.03-5.01-12.47-3.23-3.38-7.39-5.32-12.03-5.61-19.11-1.19-38.53-2.19-57.72-2.99-4.83-.19-9.43,1.51-12.92,4.81-.98.93-1.83,1.96-2.56,3.06-.39-.78-.8-1.45-1.18-1.98-3.07-4.33-7.91-6.81-13.64-6.98-20.24-.63-40.77-1.04-61.02-1.23h-.2c-8.56,0-15.34,5.3-17.72,13.88-.05.18-.1.37-.14.55-2.93,12.72-5.87,25.45-8.8,38.18-2.93-12.73-5.87-25.46-8.8-38.17-.04-.19-.09-.37-.14-.55-2.4-8.64-9.24-13.99-17.92-13.88-20.25.2-40.78.61-61.02,1.24-8.08.25-14.29,5.24-16.09,12.36-.62-2.01-1.54-3.57-2.35-4.65-.03-.03-.05-.07-.08-.1-1.92-2.53-6.4-6.74-14.8-6.37-20.44.88-41.16,1.99-61.57,3.32-7.59.49-13.69,4.73-16.75,11.65-4.98,11.01-9.96,22.06-14.94,33.11-.04-.18-.1-.36-.14-.54-.07-.39-.16-.78-.25-1.16-.07-.4-.16-.79-.26-1.19-.07-.4-.16-.79-.26-1.18-.07-.4-.16-.78-.26-1.17-.07-.4-.16-.79-.26-1.18-.07-.39-.16-.78-.25-1.17-.07-.4-.16-.8-.26-1.19-.07-.39-.16-.78-.26-1.17-.07-.4-.16-.79-.26-1.18-.07-.4-.16-.78-.26-1.17-.07-.4-.16-.79-.26-1.19-.07-.39-.16-.78-.26-1.17-.07-.4-.16-.79-.26-1.18-.07-.4-.16-.79-.26-1.18-.07-.4-.16-.78-.26-1.17-.07-.4-.16-.79-.26-1.17-.07-.4-.16-.79-.26-1.18-.07-.4-.16-.79-.26-1.18-.07-.39-.16-.78-.25-1.16-.07-.4-.16-.8-.26-1.19-.07-.39-.16-.78-.25-1.16-.07-.4-.16-.8-.26-1.2-.68-3.75-2.54-7.14-5.48-9.79-3.62-3.22-8.3-4.77-13.21-4.35-18.61,1.58-37.49,3.37-56.14,5.32-4.53.48-8.57,2.52-11.67,5.9-3.17,3.46-4.85,7.72-4.85,12.34v72.3c-.09-.28-.19-.54-.28-.82-.12-.38-.25-.75-.37-1.12l-.36-1.11c-.12-.38-.25-.74-.37-1.11s-.24-.74-.37-1.11c-.12-.38-.25-.75-.37-1.13-.11-.37-.24-.72-.36-1.09-.12-.38-.25-.76-.37-1.14-.12-.37-.24-.74-.37-1.11-.12-.37-.25-.74-.37-1.11-.12-.38-.25-.75-.37-1.12s-.24-.73-.36-1.1c-.12-.38-.25-.74-.37-1.11-.12-.38-.25-.75-.37-1.13-.12-.37-.24-.73-.36-1.1-.12-.38-.25-.74-.37-1.11-.12-.38-.25-.74-.37-1.11s-.24-.74-.37-1.11c-.12-.38-.25-.75-.37-1.12s-.24-.74-.37-1.11c-.12-.38-.25-.74-.37-1.11-.12-.38-.25-.75-.37-1.12-.11-.37-.24-.73-.36-1.1-.12-.38-.25-.75-.37-1.13-4.5-14.49-12.46-26.45-23.81-35.7-18.59-15.13-42.83-20.61-72.06-16.27-28.54,4.25-51.88,16.39-69.39,36.08-7.18,8.09-12.89,16.98-17.14,26.59-.18-.39-.38-.76-.58-1.13-.18-.39-.38-.76-.58-1.13-.17-.38-.37-.75-.58-1.12-.18-.39-.38-.77-.59-1.15-.17-.38-.38-.75-.58-1.12-.18-.39-.38-.77-.59-1.15-.17-.38-.38-.75-.58-1.12-.18-.39-.38-.76-.59-1.13-.17-.38-.38-.75-.58-1.12-.18-.39-.38-.77-.59-1.15-.18-.39-.38-.76-.58-1.13-.18-.39-.38-.76-.58-1.13-.18-.39-.38-.76-.59-1.13-.18-.39-.38-.76-.59-1.14-.17-.38-.37-.75-.58-1.12-.18-.39-.38-.77-.59-1.15-.18-.39-.38-.76-.58-1.13-.18-.39-.38-.76-.58-1.13-.18-.39-.38-.76-.58-1.13-.18-.39-.38-.76-.59-1.14-.17-.38-.37-.75-.57-1.11-.18-.4-.39-.78-.6-1.16-.17-.38-.37-.75-.58-1.11-.18-.39-.38-.76-.58-1.13-.18-.39-.38-.77-.59-1.15-.18-.39-.38-.77-.59-1.14-1.06-2.32-2.64-4.38-4.72-6.05-.03-.02-.06-.05-.09-.07-3.94-3.12-8.9-4.29-13.97-3.31-19.09,3.69-38.42,7.63-57.46,11.71-4.21.9-7.91,3.17-10.72,6.57-2.87,3.47-4.38,7.62-4.38,11.98v14.88c-.08-.13-.18-.25-.27-.38-.22-.37-.44-.74-.69-1.09-.22-.38-.45-.75-.69-1.1-.22-.38-.45-.76-.7-1.12-.22-.37-.44-.74-.69-1.1-.22-.38-.45-.75-.69-1.11-.22-.38-.45-.76-.71-1.13-.22-.38-.45-.75-.69-1.1-.22-.38-.44-.74-.69-1.1-.22-.38-.45-.75-.7-1.11-.22-.38-.45-.75-.69-1.11-.22-.39-.46-.76-.71-1.13-.21-.37-.44-.73-.68-1.09-.22-.38-.45-.75-.7-1.11-.22-.39-.46-.77-.72-1.14-1.06-1.83-2.44-3.47-4.16-4.79-.03-.02-.06-.04-.09-.07-4.04-3.08-9.09-4.12-14.21-2.93-19.01,4.4-38.22,9.05-57.1,13.83-4.09,1.03-7.69,3.38-10.39,6.77-2.77,3.47-4.23,7.57-4.23,11.86v193.6c0,9.06.94,17.48,2.78,25.23,0,0-.02-.02-.03-.02-.26-.28-.51-.57-.79-.84-.26-.29-.52-.58-.8-.85-.66-.72-1.38-1.41-2.18-2.01-.03-.02-.06-.04-.09-.06-4.14-3.08-9.27-4.01-14.44-2.64-7.5,1.99-15.01,4.02-22.54,6.08v-134.37c0-4.19-1.48-8.04-4.11-11-.32-.42-.66-.83-1.02-1.22-.28-.37-.58-.72-.9-1.07-.27-.35-.56-.69-.86-1.02-.29-.38-.59-.74-.92-1.09-.27-.36-.56-.7-.87-1.03-.29-.38-.6-.74-.92-1.09-.27-.36-.57-.7-.87-1.04-.28-.36-.57-.71-.88-1.05-.29-.38-.6-.75-.93-1.1-.27-.36-.57-.7-.87-1.04-.28-.36-.58-.72-.89-1.06-.28-.36-.58-.72-.89-1.06-.28-.36-.58-.71-.89-1.06-.28-.36-.57-.71-.88-1.04-.29-.38-.61-.75-.94-1.11-.26-.34-.54-.67-.83-.99-.29-.39-.61-.76-.94-1.12-.27-.35-.55-.69-.85-1.01-.29-.38-.6-.74-.92-1.09-.27-.36-.57-.7-.87-1.04-.28-.37-.58-.72-.9-1.07-.27-.35-.56-.69-.86-1.03-.29-.38-.6-.75-.93-1.1-.27-.36-.56-.7-.87-1.03-.28-.37-.59-.73-.9-1.07-.28-.36-.58-.71-.89-1.05-.27-.36-.57-.7-.87-1.04-.29-.38-.6-.74-.92-1.09-.28-.36-.57-.71-.88-1.05-.27-.36-.57-.7-.87-1.04-.29-.38-.59-.74-.91-1.09-.28-.36-.57-.71-.88-1.04-.29-.37-.59-.73-.91-1.08-.28-.36-.57-.7-.87-1.04-.27-.36-.57-.7-.87-1.04-.29-.38-.59-.74-.91-1.09-.28-.36-.57-.71-.88-1.04-.29-.37-.59-.73-.91-1.08-.27-.36-.56-.7-.87-1.03-.28-.37-.58-.72-.89-1.06-.28-.37-.59-.73-.9-1.07-.28-.37-.59-.73-.91-1.08-.27-.35-.56-.69-.86-1.02-.29-.38-.59-.74-.91-1.09-.28-.36-.57-.71-.88-1.04-.29-.38-.6-.74-.92-1.09-.27-.35-.55-.68-.85-1.01-.28-.37-.59-.73-.91-1.08-.28-.36-.57-.71-.88-1.05-.29-.38-.61-.75-.94-1.11-.93-1.2-2.02-2.28-3.28-3.19-.04-.03-.07-.05-.11-.08-4.18-2.98-9.5-3.8-14.62-2.27-18.54,5.57-37.31,11.42-55.79,17.39-3.88,1.25-7.25,3.71-9.77,7.11-2.56,3.46-3.92,7.46-3.92,11.58v270.4c0,5.58,2.51,10.53,6.9,13.6h0c.3.25.61.49.93.71,0,0,.01,0,.02.01.31.25.63.5.96.73h0c.31.25.62.49.95.72h0c.31.25.63.5.96.73h0c.3.25.62.49.94.72h.01c.31.25.62.49.94.72,0,0,0,0,.02.01.31.25.62.49.95.72h0c.31.25.62.5.96.73h0c.31.25.62.49.94.72,0,0,0,0,.02.01.31.25.63.5.96.73h0c.31.25.62.49.94.72h0c.31.25.62.5.95.73h0c.3.25.61.49.93.71,0,0,.02.01.03.02.31.25.62.5.96.73h0c.3.25.61.49.94.72,0,0,0,0,.02.01.31.25.63.5.96.73h0c.3.25.61.49.94.72,0,0,0,0,.02.01.3.25.61.49.94.72,0,0,0,0,.02.01.3.25.61.49.94.72,0,0,0,0,.02.01.31.25.63.5.96.73h0c.31.25.62.5.95.73.31.25.62.5.96.73h0c.31.25.62.49.95.72,0,0,0,0,.02.01.31.25.62.49.95.73h0c.31.25.62.49.95.72h0c.31.25.62.49.94.72h0c.31.25.62.5.95.73h0c.31.25.62.5.95.73h0c.3.25.62.49.94.72h0c.31.25.62.5.95.73,0,0,0,0,.02.01.31.25.62.49.95.72h0c.3.25.62.49.94.72,0,0,0,0,.02.01.31.25.63.5.96.73h0c.3.25.61.49.93.71,0,0,.02.01.02.02.31.26.63.5.97.74h0c.31.25.62.49.95.72h0c.31.25.62.49.95.72h0c.31.25.63.5.96.73.3.24.61.48.93.71,0,0,.02.01.03.02.31.25.62.5.95.73h0c.31.25.62.49.95.72,0,0,0,0,.02.01.3.25.61.49.94.71,0,0,0,0,.02.01.31.25.62.5.95.73h0c.31.25.62.5.95.73h0c.31.25.62.49.95.72h0c.31.25.63.5.96.73h0c.3.25.61.49.93.71,0,0,.02,0,.02.01.31.25.62.49.95.72h0c.31.25.62.5.96.73h0c.3.25.62.49.94.72h0c.3.25.61.48.93.71,2.72,1.92,5.93,2.91,9.24,2.91,1.77,0,3.58-.28,5.36-.86,44.67-14.43,90.31-27.83,135.66-39.85,3.97-1.05,7.44-3.37,10.06-6.7,2.66-3.4,4.06-7.39,4.06-11.55v-35.18c.15.16.3.32.45.48.25.28.5.55.75.82.25.28.51.55.76.83s.5.54.75.82.5.55.75.82c.24.27.49.54.74.81.25.28.51.56.77.84.24.27.49.54.74.81.25.28.51.56.76.84s.5.54.75.82c.24.28.5.54.74.81.25.28.51.55.76.83.24.27.49.54.74.81.25.28.5.55.76.83.25.28.5.55.75.82.25.28.5.55.75.82,7.44,8.37,16.81,14.42,28,18.03,7.41,2.4,15.43,3.6,24.02,3.6,7.6,0,15.63-.94,24.05-2.82,17.51-3.9,33.13-11.05,46.44-21.25,13.47-10.32,24.07-23.19,31.51-38.26,4.95-10.03,8.27-20.74,9.95-32.01.15.25.31.5.46.75.17.3.36.57.54.87.17.3.36.58.54.87.17.3.37.59.55.89.17.3.36.58.54.87.17.3.37.59.55.89.17.3.36.58.54.87.17.29.36.57.53.86.17.3.37.59.55.88.17.3.37.58.54.88s.37.58.54.88.36.58.54.87c.17.3.36.58.54.87.17.3.36.58.54.87.18.3.37.59.55.89.17.29.36.57.53.86.17.3.37.59.55.89.17.29.36.57.53.86.17.3.37.59.55.89.17.3.37.59.55.88.17.3.36.58.54.87.17.3.36.58.54.88.17.3.36.58.54.87.17.3.37.59.54.88.17.3.36.58.54.87.17.3.37.58.54.88s.36.58.54.87c4.16,7.22,9.57,13.49,16.19,18.79,13.29,10.63,29.93,15.98,49.64,15.98,5.89,0,12.06-.48,18.5-1.44,27.27-4.05,49.5-15.22,66.09-33.21,7.38-8,13.16-16.85,17.35-26.49.04.12.09.24.14.36.1.3.22.58.33.87.09.29.22.57.33.86.1.3.22.58.33.87.1.3.22.58.33.87.09.29.22.57.33.86.1.3.22.58.33.87.1.3.22.58.33.87.1.29.22.58.33.86.1.29.22.58.33.87.1.3.22.58.33.87.1.3.22.58.33.87.1.3.22.58.33.87.09.29.22.57.33.86.1.3.22.59.33.88.1.3.22.58.33.87.09.29.22.58.33.86.1.3.22.58.33.87.1.3.22.58.33.87.1.3.22.58.33.87.09.29.22.57.33.86.1.3.22.59.33.88.09.29.21.57.32.85.1.3.22.58.33.88.1.3.22.58.33.87.1.3.22.58.33.87.1.3.22.58.33.87.09.29.22.58.33.86.1.3.22.59.33.88.09.29.22.57.33.86.1.3.22.58.33.87.09.29.22.57.33.86.1.3.22.59.33.88.09.29.22.57.33.85.1.3.22.58.33.87.1.3.22.58.33.87.92,2.86,2.6,5.42,4.93,7.46,3.14,2.76,7.08,4.23,11.27,4.23.63,0,1.27-.03,1.91-.1,17.41-1.83,35.07-3.5,52.47-4.98,4.5-.38,8.52-2.33,11.63-5.64,3.14-3.34,4.87-7.68,4.87-12.21v-46.08c6.57,16.26,13.12,32.48,19.59,48.52,2.81,7.56,9.8,11.89,18.35,11.36,19.21-1.23,38.71-2.27,57.94-3.08,9.44-.4,16.3-7.19,16.29-16.15,0-1.02-.09-1.98-.22-2.92-.03-.31-.09-.6-.13-.9-.03-.3-.08-.58-.12-.87-.03-.31-.08-.59-.13-.89-.03-.31-.09-.59-.13-.89-.03-.3-.08-.58-.12-.88-.03-.3-.08-.59-.13-.89-.03-.3-.09-.59-.13-.89-.03-.3-.08-.59-.13-.88-.03-.3-.08-.58-.12-.87-.03-.31-.09-.6-.13-.9-.03-.3-.08-.58-.12-.87-.03-.3-.08-.59-.13-.89-.03-.31-.09-.59-.13-.89-.03-.3-.08-.58-.12-.88-.03-.3-.08-.59-.13-.88-.03-.31-.09-.59-.13-.89-.03-.3-.08-.59-.13-.88-.03-.3-.08-.58-.12-.87-.03-.31-.09-.6-.13-.9-.03-.3-.08-.58-.12-.87-.03-.31-.08-.59-.13-.89-.03-.31-.09-.59-.13-.89-.03-.3-.08-.58-.13-.88-.03-.3-.08-.59-.13-.88-.03-.31-.09-.59-.13-.89-.03-.3-.08-.59-.13-.88-.03-.3-.08-.58-.12-.87-.03-.31-.09-.6-.13-.9-.03-.3-.08-.58-.12-.87-.03-.31-.09-.59-.13-.89-.03-.31-.09-.59-.13-.89-.03-.3-.08-.59-.13-.88-.03-.3-.08-.59-.13-.88-.03-.3-.09-.59-.13-.89-.03-.3-.08-.59-.13-.88-.03-.3-.08-.58-.12-.87-.03-.31-.09-.6-.13-.9-.03-.3-.08-.58-.12-.87-.03-.31-.09-.59-.13-.89-.03-.3-.09-.59-.13-.89-.03-.3-.08-.59-.13-.88-.03-.3-.09-.59-.13-.88-.03-.3-.09-.59-.13-.88-.03-.3-.08-.59-.13-.88-.03-.3-.08-.58-.12-.87-.03-.31-.09-.6-.13-.91-.03-.3-.08-.57-.12-.86-.03-.31-.09-.59-.13-.89-.03-.31-.09-.59-.13-.89-.03-.3-.08-.59-.13-.88-.19-2.06-.67-3.91-1.45-5.62-14.25-33.55-28.72-67.51-43.21-101.41,15.65-31.99,31.46-64.18,47.14-95.94.1-.2.19-.4.28-.61.16-.38.3-.75.44-1.12,17.08,50.07,34.21,100.46,50.98,149.92v52.35c0,.26.03.52.04.78v.11c0,.27.03.53.04.79v.09c0,.26.03.52.04.78v.1c0,.27.03.54.04.81v.08c0,.26.03.52.04.79v.1c0,.26.03.52.04.78v.11c0,.26.03.52.04.78v.11c0,.27.03.53.04.79v.09c0,.26.03.52.04.78v.11c0,.26.03.52.04.77v.11c0,.27.03.53.04.79v.08c0,.26.03.52.04.79v.1c0,.27.03.54.04.8v.08c0,.26.03.51.04.77v.13c0,.27.03.53.04.8v.09c0,.26.03.52.04.78v.11c0,.27.03.53.04.8v.09c0,.26.03.52.04.77v.11c0,.26.03.52.04.78v.1c0,.27.03.54.04.81v.08c0,.26.03.52.04.79v.1c0,.26.03.52.04.78v.11c0,.26.03.52.04.77v.11c0,.27.03.53.04.8v.09c0,.26.03.52.04.78v.11c0,.27.03.53.04.8v.09c0,.26.03.52.04.78v.1c0,.27.03.54.04.81v.08c0,.26.03.52.04.79v.1c0,.26.03.51.04.77v.13c0,.27.03.53.04.79v.09c0,.26.03.52.04.77v.11c0,.27.03.53.04.79v.09c0,.26.03.52.04.78v.11c0,.27.03.53.04.8v.08c0,.26.03.52.04.79v.1c0,.27.03.54.04.81v.08c0,.26.03.51.04.77v.13c0,.26.03.52.04.78v.11c0,.27.03.53.04.79v.09c0,.26.03.52.04.77v.11c0,.27.03.53.04.79v.09c0,.26.03.52.04.77v.1c0,.27.03.54.04.81v.08c0,.27.03.53.04.79v.1c0,.26.03.52.04.79v.11c0,.26.03.52.04.77v.11c0,.26.03.52.04.77v.11c0,.27.03.53.04.8v.09c0,.26.03.52.04.77v.11c0,.27.03.53.04.79v.08c0,4.75,1.86,9.18,5.25,12.49,3.29,3.22,7.63,4.98,12.26,4.98h.19c17.92-.19,36.09-.19,54.02-.01,4.66.04,9.1-1.72,12.43-4.98,3.38-3.3,5.25-7.73,5.25-12.48v-.14c.01-.25.04-.49.04-.74v-.15c.01-.24.04-.49.04-.73v-.13c.01-.25.04-.5.04-.75v-.15c.01-.25.04-.49.04-.73v-.15c.01-.25.04-.49.04-.73v-.13c.01-.25.04-.5.04-.75v-.15c.01-.25.04-.49.04-.73v-.13c.01-.25.04-.5.04-.75v-.14c.01-.25.04-.49.04-.74v-.14c.01-.25.04-.49.04-.74v-.16c.01-.24.04-.48.04-.72v-.14c.01-.25.04-.49.04-.74v-.16c0-.24.04-.48.04-.72v-.16c.01-.24.04-.48.04-.73v-.14c.01-.25.04-.49.04-.74v-.15c.01-.25.04-.49.04-.73v-.13c.01-.25.04-.5.04-.75v-.15c.01-.25.04-.49.04-.73v-.13c.01-.25.04-.5.04-.75v-.15c.01-.25.04-.49.04-.73v-.13c.01-.25.04-.5.04-.75v-.15c.01-.25.04-.49.04-.73v-.14c.01-.25.04-.5.04-.75v-.14c.01-.25.04-.49.04-.74v-.16c0-.24.04-.48.04-.73v-.14c.01-.25.04-.49.04-.74v-.16c0-.24.04-.48.04-.73v-.14c.01-.25.04-.49.04-.74v-.15c.01-.25.04-.49.04-.73v-.13c.01-.25.04-.5.04-.75v-.15c.01-.25.04-.49.04-.73v-.15c.01-.25.04-.49.04-.73v-.13c.01-.25.04-.5.04-.75v-.15c.01-.25.04-.49.04-.73v-.13c.01-.25.04-.5.04-.75v-.14c.01-.25.04-.5.04-.75v-.15c.01-.25.04-.49.04-.74v-.16c0-.24.04-.48.04-.73v-.14c.01-.25.04-.49.04-.74v-.16c0-.24.04-.48.04-.72v-.14c.01-.25.04-.49.04-.74v-.16c0-.24.04-.48.04-.72v-.15c.01-.25.04-.49.04-.73v-.13c.01-.25.04-.5.04-.75v-.15c0-.25.04-.49.04-.73v-.13c.01-.25.04-.5.04-.75v-.15c0-.25.04-.49.04-.73v-.14c.01-.25.04-.5.04-.75v-.15c0-.25.04-.49.04-.73v-.12c.01-.25.04-.51.04-.76v-.16c0-.24.04-.48.04-.72v-52c15.5-45.08,31.36-91.08,47.26-137.07v237.03c0,4.62,1.78,8.99,5.01,12.31,3.18,3.28,7.44,5.19,12.02,5.38,45.81,1.91,92.18,5.05,137.82,9.34.57.05,1.14.08,1.7.08,4.25,0,8.25-1.51,11.42-4.36.52-.47,1-.97,1.46-1.49.33.61.67,1.14.97,1.57,1.62,2.29,5.42,6.25,12.68,7.01,17.83,1.87,35.91,3.95,53.74,6.19,6.5.81,10.87-1.43,13.39-3.45,2.15-1.72,3.79-3.97,4.84-6.56.13-.28.27-.56.39-.86.14-.29.27-.57.39-.86.13-.28.27-.56.39-.86.13-.28.27-.57.39-.86.14-.29.28-.57.4-.87.13-.28.27-.56.39-.85.14-.29.28-.57.4-.87.13-.29.27-.57.39-.86.13-.28.27-.56.39-.86.13-.29.27-.57.39-.86.13-.28.27-.56.39-.85.14-.29.28-.57.4-.87.13-.28.27-.56.39-.85.14-.29.28-.57.4-.86.13-.29.27-.57.39-.86.13-.28.27-.57.39-.86.13-.28.27-.56.39-.86.13-.28.27-.56.39-.86.14-.29.28-.57.4-.87.13-.28.27-.56.39-.85.14-.29.28-.57.4-.86.13-.29.27-.57.39-.86.13-.28.27-.56.39-.85.14-.29.28-.57.4-.87.13-.28.27-.56.39-.85.14-.29.28-.57.4-.87.13-.28.27-.56.39-.85.14-.29.28-.57.4-.86.13-.29.27-.57.39-.86,0-.01.01-.02.02-.03,5.1.7,10.2,1.41,15.29,2.14l3.76,25.65c.95,8.5,7.13,14.8,15.88,16.12,18.15,2.74,36.53,5.7,54.61,8.81,1.27.22,2.45.32,3.56.32,4.86,0,8.24-1.88,10.34-3.64.59-.49,1.11-1.04,1.61-1.6.66,1.32,1.48,2.57,2.46,3.73,2.82,3.35,6.55,5.53,10.79,6.31,16.85,3.09,33.89,6.39,50.63,9.8,5.05,1.03,9.98-.12,13.91-3.25,1.18-.94,2.18-2.03,3.04-3.21.22-.27.43-.55.64-.83.22-.26.42-.53.62-.81.22-.27.43-.55.63-.83.22-.26.42-.54.62-.82.22-.27.43-.54.63-.82.22-.27.42-.54.63-.82.22-.26.42-.54.62-.81.22-.27.43-.55.63-.83.22-.26.42-.54.62-.82.22-.27.42-.54.62-.82.22-.27.43-.54.63-.82.22-.27.42-.54.63-.82.22-.26.42-.54.62-.82.22-.27.42-.54.63-.82.22-.27.42-.54.62-.82.22-.27.43-.55.63-.83.22-.26.42-.54.62-.81.22-.27.43-.55.63-.82.12-.15.24-.29.36-.44,1.57,5.91,3.15,11.83,4.72,17.7.01.05.03.1.04.15,2.04,7.31,7.48,12.46,14.93,14.12,19.09,4.26,38.4,8.8,57.4,13.48,1.43.35,2.86.53,4.26.53,3.58,0,6.99-1.14,9.9-3.35.77-.59,1.45-1.25,2.09-1.95.26-.25.5-.52.75-.79.26-.25.5-.52.75-.79.26-.25.5-.52.75-.79.27-.25.51-.53.75-.8.26-.25.5-.52.75-.79.26-.25.5-.52.75-.79.26-.25.5-.52.75-.79.26-.25.5-.52.75-.79.27-.25.51-.53.75-.8.06-.05.11-.1.17-.16v3.29c0,4.17,1.4,8.17,4.06,11.56,2.61,3.33,6.1,5.65,10.1,6.7,22.9,6,46.05,12.41,68.8,19.03,11.5,3.35,22.17,5.02,31.97,5.02,13.59,0,25.49-3.22,35.57-9.65,2.33-1.48,4.51-3.1,6.54-4.85.31-.26.64-.5.94-.77.32-.26.64-.51.95-.77.31-.25.63-.5.93-.75.32-.26.65-.51.96-.78.31-.25.63-.5.93-.76.31-.26.63-.5.94-.76.31-.26.64-.51.95-.77.31-.26.64-.51.95-.77.31-.26.63-.5.94-.76.31-.26.64-.5.94-.77.31-.25.63-.5.94-.76.32-.26.64-.51.95-.77.31-.26.64-.5.94-.77.31-.26.64-.5.94-.76.31-.26.63-.5.94-.76.31-.26.64-.5.95-.77.31-.26.63-.5.94-.76.31-.26.64-.5.95-.77.31-.26.64-.51.95-.77.31-.25.63-.5.93-.76.32-.26.64-.51.95-.77.31-.26.63-.5.94-.76.31-.26.63-.5.94-.76.31-.26.64-.51.95-.77.31-.26.64-.5.94-.77.31-.25.63-.5.93-.76.32-.26.64-.51.95-.78.31-.26.64-.5.94-.76.31-.26.64-.5.94-.77.31-.25.63-.5.93-.76.32-.26.64-.51.95-.77.31-.26.63-.5.94-.76.31-.26.63-.5.94-.76.31-.26.64-.51.95-.77.31-.26.64-.5.94-.76.31-.26.64-.5.94-.77.31-.25.63-.5.93-.76.32-.26.65-.51.96-.78.31-.25.63-.5.93-.76.31-.26.64-.5.94-.76.32-.26.65-.51.96-.78.31-.25.63-.5.93-.76.31-.26.64-.5.94-.77.31-.26.64-.5.94-.76.32-.26.64-.51.95-.77.31-.26.63-.5.94-.76.31-.25.63-.5.93-.76.32-.26.65-.51.96-.78.31-.25.63-.49.93-.75.31-.26.63-.5.94-.76,15.1-12.42,22.77-31.41,22.77-56.62v-122.4c0-26.68-8.56-51.07-25.43-72.5l-.06-.02ZM572.27,236.02c-.04-.1-.08-.2-.12-.31-.11-.32-.24-.64-.36-.95-.1-.32-.24-.64-.36-.95-.11-.33-.24-.64-.36-.96-.1-.32-.24-.63-.36-.95-.11-.33-.24-.65-.37-.97-.11-.33-.24-.64-.36-.96-.1-.32-.24-.63-.36-.95-.11-.33-.24-.65-.37-.97-.1-.32-.24-.63-.36-.94-.11-.33-.24-.64-.36-.96-.1-.32-.24-.63-.36-.95-.11-.33-.24-.65-.37-.97-.1-.32-.24-.64-.36-.95-.11-.33-.24-.64-.37-.96-.94-2.91-2.65-5.5-5.03-7.58-.03-.02-.05-.04-.08-.07-3.63-3.12-8.29-4.55-13.12-4.07-19.19,1.5-38.63,3.21-57.8,5.11-.18.02-.36.04-.54.06-.36.05-.71.13-1.06.2v-41.48c0-3.07.73-4.8,1.29-5.72.07.16.13.32.2.48.14.36.28.72.43,1.05.14.38.29.74.45,1.09.14.36.28.71.43,1.04.14.37.28.73.44,1.07.14.37.29.74.44,1.08.14.36.28.71.43,1.04.14.37.29.73.44,1.07.14.37.28.73.44,1.07.14.37.28.72.44,1.06.14.37.28.72.43,1.06.14.37.28.73.44,1.07.14.37.28.73.44,1.07.14.36.28.71.43,1.05.14.37.29.73.44,1.08.14.37.28.73.44,1.07.14.37.28.72.44,1.06,1.21,3.21,3.11,5.3,4.44,6.46,2.1,1.82,6.67,4.73,13.8,3.73.17-.02.35-.05.52-.08,17.9-3.26,36.07-6.37,54.02-9.26.53-.07,1.05-.17,1.56-.28v49.17h0Z"/>
  <g>
    <path class="st1" d="M14.43,430.02c-.91-.64-1.36-1.62-1.36-2.96V156.66c0-1.33.45-2.61,1.36-3.84s2.01-2.05,3.32-2.47c18.47-5.96,36.98-11.73,55.53-17.31,1.3-.39,2.41-.26,3.33.4.91.66,1.37,1.66,1.37,2.99v216.4c0,1.34.65,1.81,1.96,1.42,27.33-8.13,54.74-15.84,82.25-23.13,1.31-.35,2.43-.17,3.36.51.92.69,1.38,1.71,1.38,3.04v47.2c0,1.34-.46,2.59-1.38,3.76-.93,1.18-2.04,1.94-3.36,2.29-48.42,12.83-96.59,26.98-144.45,42.43-1.3.42-2.41.32-3.32-.33h0Z"/>
    <path class="st1" d="M227.01,364.16c-12.55-4.05-22.28-11.57-29.21-22.63s-10.39-24.97-10.39-41.77V106.16c0-1.33.46-2.58,1.4-3.76.93-1.17,2.06-1.93,3.4-2.26,18.91-4.79,37.86-9.38,56.85-13.77,1.33-.31,2.47-.1,3.41.61.93.72,1.4,1.75,1.4,3.08v200c0,6.4,1.54,11.25,4.61,14.55,3.07,3.3,7.16,4.38,12.24,3.24,5.08-1.13,9.17-4.03,12.25-8.7s4.62-10.21,4.62-16.61V82.54c0-1.33.46-2.56,1.41-3.7.94-1.13,2.07-1.85,3.42-2.14,19.03-4.09,38.1-7.97,57.2-11.66,1.34-.26,2.48,0,3.43.74.94.76,1.41,1.8,1.41,3.13v193.6c0,16.8-3.5,32.26-10.49,46.43s-16.8,26.04-29.42,35.71c-12.62,9.67-27.24,16.31-43.83,20.01-16.6,3.7-31.17,3.57-43.72-.49h.01Z"/>
    <path class="st1" d="M407.99,315.2c-15.37-12.29-23.05-30.74-23.05-55.55v-122.8c0-25.06,7.68-46.34,23.05-63.65,15.37-17.29,35.89-28.03,61.58-31.86,25.69-3.82,46.35.8,61.94,13.49,13.64,11.12,21.32,27.05,23.02,47.64.24,2.94.37,5.98.37,9.11v3.6c0,1.34-.48,2.52-1.42,3.57-.95,1.05-2.1,1.65-3.46,1.81-19.26,3.1-38.5,6.4-57.72,9.9-3.25.46-4.87-.91-4.87-4.11v-10.8c0-6.13-1.62-10.77-4.87-13.9s-7.58-4.3-12.99-3.5c-5.14.77-9.33,3.2-12.57,7.3-3.24,4.1-4.86,9.22-4.86,15.35v133.2c0,5.87,1.62,10.35,4.86,13.45,3.24,3.1,7.43,4.27,12.57,3.5,5.41-.8,9.74-3.23,12.99-7.3s4.87-9.03,4.87-14.9v-13.6c0-1.33.47-2.53,1.42-3.6.94-1.06,2.09-1.7,3.45-1.89,19.22-1.9,38.46-3.6,57.72-5.1,1.35-.16,2.51.17,3.46.99.95.83,1.42,1.9,1.42,3.23v3.6c0,2.2-.06,6.37-.18,8.51-1.26,21.95-9,40.55-23.21,55.94-15.59,16.91-36.25,27.09-61.94,30.91-25.7,3.82-46.21-.24-61.58-12.54h0Z"/>
    <path class="st1" d="M586.69,308.23c-.96-.83-1.43-1.91-1.43-3.25V34.58c0-1.33.47-2.51,1.43-3.55.95-1.03,2.1-1.62,3.46-1.77,18.61-1.95,37.23-3.72,55.87-5.3,1.36-.12,2.51.26,3.47,1.11.95.86,1.43,1.95,1.43,3.28v90.4c0,1.07.27,1.58.82,1.53.54-.04,1.08-.49,1.63-1.33,14.28-31.84,28.57-63.57,42.86-95.19,1.09-2.47,2.99-3.8,5.72-3.98,20.42-1.32,40.85-2.42,61.29-3.3,1.9-.08,3.2.33,3.88,1.24s.61,2.31-.2,4.21c-19.76,40.02-39.51,80.25-59.25,120.69-.27,1.09-.41,1.9-.41,2.43,20.7,48.3,41.4,96.82,62.11,145.58.27.53.41,1.32.41,2.38,0,2.14-1.37,3.25-4.09,3.37-20.58.87-41.14,1.96-61.7,3.27-3,.19-4.9-.88-5.72-3.23-12.25-30.39-24.5-60.7-36.74-90.93-.27-.78-.68-1.15-1.22-1.1-.55.04-1.09.49-1.63,1.33-2.45,5-4.9,10-7.34,15-.27.56-.41,1.37-.41,2.43v75.6c0,1.34-.48,2.51-1.43,3.52-.96,1.02-2.11,1.58-3.47,1.69-18.64,1.58-37.26,3.35-55.87,5.3-1.36.14-2.51-.2-3.46-1.03h0Z"/>
    <path class="st1" d="M851.27,291.87c-.95-.92-1.42-2.04-1.42-3.38v-98.4c-.13-.8-.27-1.6-.4-2.39-18.9-55.77-37.8-111.34-56.69-166.73-.27-.52-.41-1.19-.4-1.99,0-2.4,1.35-3.65,4.05-3.73,20.24-.63,40.49-1.04,60.74-1.24,2.7-.03,4.46,1.43,5.27,4.35,6.75,29.28,13.5,58.59,20.25,87.92.27,1.07.67,1.6,1.21,1.6s.94-.53,1.22-1.6c6.75-29.33,13.5-58.64,20.25-87.92.81-2.93,2.56-4.38,5.27-4.36,20.25.19,40.5.6,60.74,1.22,1.62.05,2.77.56,3.44,1.51.67.96.74,2.36.2,4.21-19.16,55.38-38.33,110.96-57.5,166.74-.13.8-.27,1.6-.4,2.39v98.4c0,1.34-.47,2.46-1.42,3.38-.95.93-2.09,1.38-3.44,1.36-19.17-.19-38.34-.18-57.51.02-1.35.01-2.5-.43-3.44-1.36h-.02Z"/>
    <path class="st1" d="M998.07,294.78c-.95-.97-1.42-2.12-1.42-3.46V20.92c0-1.33.47-2.44,1.42-3.34.94-.89,2.09-1.32,3.44-1.26,19.16.8,38.31,1.79,57.45,2.98,1.35.08,2.49.62,3.44,1.62.94,1,1.42,2.16,1.42,3.49v216.4c0,1.34.67,2.04,2.02,2.13,27.5,1.77,54.98,3.95,82.42,6.53,1.34.13,2.49.7,3.43,1.73.94,1.03,1.41,2.2,1.41,3.53v47.2c0,1.34-.47,2.42-1.41,3.27-.95.85-2.09,1.2-3.43,1.07-48.84-4.59-97.78-7.91-146.75-9.95-1.35-.06-2.5-.56-3.44-1.54h0Z"/>
    <path class="st1" d="M1299.09,320.16c-1.74-11.86-3.48-23.72-5.22-35.57,0-1.33-.8-2.12-2.41-2.35-14.46-2.11-28.94-4.11-43.43-5.99-1.61-.21-2.41.36-2.42,1.69-1.61,11.39-3.22,22.79-4.83,34.18-.27,2.9-2.01,4.14-5.23,3.74-19.06-2.39-38.13-4.59-57.22-6.59-3.5-.37-4.84-2.23-4.03-5.62,19.5-88.12,38.98-176.03,58.44-263.74.53-2.87,2.28-4.12,5.23-3.74,21.87,2.77,43.72,5.79,65.54,9.07,2.94.44,4.68,2.18,5.22,5.19,19.27,93.07,38.52,186.34,57.75,279.81.13.56.27,1.11.4,1.67,0,2.4-1.47,3.34-4.41,2.84-19.36-3.33-38.75-6.46-58.16-9.38-3.21-.48-4.96-2.2-5.22-5.18v-.03ZM1256.07,226.1c8.99,1.2,17.97,2.43,26.94,3.72,1.07.15,1.61-.43,1.61-1.77-4.82-31.09-9.65-62.17-14.47-93.24-.27-1.1-.67-1.69-1.21-1.77-.54-.07-.94.41-1.21,1.43-4.42,29.79-8.85,59.6-13.27,89.41,0,1.34.53,2.07,1.61,2.21h0Z"/>
    <path class="st1" d="M1502.55,83.91c.93-.72,2.05-.94,3.38-.64,17.89,4.04,35.74,8.26,53.56,12.66,1.32.32,2.44,1.07,3.37,2.23.92,1.17,1.38,2.41,1.39,3.74v270.4c0,1.34-.46,2.35-1.39,3.06s-2.05.89-3.37.57c-20.33-5.02-40.7-9.8-61.12-14.36-2.92-.65-4.77-2.39-5.57-5.24-13.13-49.3-26.27-98.51-39.42-147.62-.27-.85-.73-1.41-1.4-1.69-.67-.27-1,.13-1,1.19.27,46.19.53,92.38.8,138.56,0,1.34-.47,2.37-1.39,3.11-.94.75-2.06.98-3.39.71-17.95-3.66-35.92-7.14-53.92-10.44-1.34-.25-2.47-.91-3.4-2.02-.94-1.1-1.4-2.32-1.4-3.66V64.07c0-1.33.46-2.38,1.4-3.14.93-.76,2.06-1.02,3.4-.78,20.27,3.72,40.5,7.66,60.7,11.83,2.92.6,4.78,2.33,5.58,5.16,13.29,49.43,26.56,98.97,39.81,148.6.26.86.73,1.36,1.39,1.51s.99-.31.99-1.38c-.13-46.3-.26-92.59-.4-138.89,0-1.33.46-2.36,1.39-3.09v.02Z"/>
    <path class="st1" d="M1595.88,383.77c-.92-1.17-1.38-2.42-1.38-3.76V109.61c0-1.33.46-2.34,1.38-3.04.92-.69,2.04-.87,3.36-.52,24.49,6.42,48.91,13.18,73.26,20.27,25.14,7.32,45.22,20.74,60.33,39.9,15.1,19.17,22.64,40.73,22.64,64.45v122.4c0,23.74-7.54,40.33-22.64,49.95-15.11,9.63-35.2,10.62-60.33,3.3-24.35-7.09-48.77-13.85-73.26-20.27-1.32-.35-2.44-1.1-3.36-2.28h0ZM1659.92,345.88c3.67.92,7.34,1.84,11,2.77,5.5,1.34,10.07.21,13.74-3.37,3.66-3.58,5.62-9.19,5.88-16.85v-113.6c0-8-1.83-14.95-5.49-20.83-3.67-5.89-8.51-9.71-14.53-11.46-3.54-1.03-7.07-2.05-10.61-3.06-1.31-.38-1.97.11-1.97,1.44v162.4c0,1.34.65,2.19,1.97,2.56h.01Z"/>
  </g>
  <g>
    <path class="st0" d="M453.89,546.19c-12.07-5.58-21.52-13.47-28.34-23.7-6.83-10.22-10.24-22-10.24-35.34s3.63-25.94,10.89-35.83,16.85-17.38,28.75-22.47c11.9-5.08,24.74-7.63,38.5-7.63,10.81,0,20.94,1.75,30.39,5.25s17.58,8.34,24.41,14.51c6.82,6.18,12.04,13.31,15.65,21.4l-27.85,10.82c-4.15-7.32-9.83-13.26-17.04-17.79-7.21-4.54-15.89-6.81-26.05-6.81-8.74,0-16.63,1.67-23.67,5-7.04,3.34-12.56,8.01-16.55,14.02s-5.98,13.01-5.98,20.99c0,9.08,2.38,16.51,7.13,22.3,4.75,5.8,10.78,9.95,18.1,12.46,7.32,2.52,15.07,3.77,23.26,3.77,7.32,0,13.95-.98,19.91-2.95,5.95-1.97,11.14-5.03,15.56-9.18,4.42-4.15,7.89-9.46,10.4-15.91l28.01,9.18c-6.01,16.18-15.46,27.94-28.34,35.26-12.89,7.33-28.18,10.99-45.87,10.99-15.29,0-28.97-2.79-41.04-8.36v.02Z"/>
    <path class="st0" d="M651.06,423.84h35.22l57.99,127.92h-31.95c-.11-.55-.38-1.04-.82-1.48-2.95-5.47-5.27-10.14-6.96-14.02s-3.42-8.61-5.16-14.19l-1.15-.98c-11.47,1.2-21.44,1.8-29.9,1.8s-18.38-.6-29.73-1.8l-1.31.98c-1.97,5.9-3.91,10.91-5.82,15.01-1.91,4.1-4.29,8.99-7.13,14.68h-31.29l57.99-127.92h.02ZM668.51,494.94c5.51-.05,11.55.52,18.1,1.72l.82-.66c-2.08-3.83-3.99-7.43-5.73-10.82-2.4-4.92-4.53-9.95-6.39-15.09s-3.5-10.71-4.91-16.73h-4.1c-1.64,7-3.71,13.72-6.23,20.17-2.84,7.33-6.5,14.76-10.98,22.3l.82.82c6.88-1.09,13.08-1.67,18.59-1.72h0Z"/>
    <path class="st0" d="M803.5,549.88c-8.36-3.12-15.4-7.54-21.13-13.28-5.73-5.74-9.8-12.44-12.21-20.09l28.01-9.18c2.73,7.98,6.93,13.45,12.61,16.4s12.29,4.43,19.82,4.43c4.48,0,8.63-.49,12.45-1.48,3.82-.98,6.85-2.4,9.09-4.26,2.24-1.86,3.36-4.04,3.36-6.56,0-2.73-1.2-5.03-3.6-6.89-2.4-1.86-5.35-3.39-8.85-4.59s-7.76-2.4-12.78-3.61c-.11-.11-.22-.16-.33-.16l-13.76-3.44c-6.55-1.64-12.81-3.8-18.76-6.48s-11.11-6.53-15.48-11.56c-4.37-5.03-6.55-11.32-6.55-18.86s2.32-14.43,6.96-20.34c4.64-5.9,11-10.5,19.09-13.78,8.08-3.28,17.09-4.92,27.03-4.92,9.28,0,17.69,1.45,25.23,4.35,7.54,2.9,13.71,6.59,18.51,11.07s8.03,9.18,9.67,14.1l-27.52,10.82c-2.4-4.48-5.79-7.95-10.16-10.41-4.37-2.46-9.78-3.69-16.22-3.69-4.15,0-7.81.47-10.98,1.39-3.17.93-5.65,2.21-7.45,3.85-1.8,1.64-2.7,3.39-2.7,5.25,0,3.5,2.4,6.4,7.21,8.69,4.8,2.3,11.03,4.43,18.68,6.4.11,0,.19.03.25.08.05.06.14.08.25.08l16.22,4.26c1.09.22,2.18.49,3.28.82,6.12,1.75,11.63,3.83,16.55,6.23,4.91,2.41,9.17,5.9,12.78,10.5,3.6,4.59,5.41,10.39,5.41,17.38,0,7.76-2.29,14.87-6.88,21.32s-11.17,11.54-19.74,15.25c-8.58,3.72-18.49,5.58-29.73,5.58-10.05,0-19.25-1.56-27.6-4.67h-.03Z"/>
    <path class="st0" d="M934.31,423.84h30.14v127.92h-30.14v-127.92Z"/>
    <path class="st0" d="M1020.81,423.84h29.49c8.08,8.31,13.27,13.89,15.56,16.73,9.5,10.17,18.73,20.61,27.69,31.32,8.95,10.72,17.42,21.76,25.39,33.13h2.13c-.88-14.65-1.42-26.81-1.64-36.49s-.33-21.89-.33-36.65v-8.04h29.98v127.92h-29.49c-4.81-5.03-8.93-9.32-12.37-12.87s-7.56-7.9-12.37-13.04c-7.86-8.31-15.51-16.89-22.94-25.75-7.43-8.86-14.42-17.88-20.97-27.06h-1.97c.54,12.9.98,23.73,1.31,32.47.33,8.75.54,19.24.66,31.49v14.76h-30.14v-127.92h0Z"/>
    <path class="st0" d="M1235.67,546.11c-11.85-5.63-21.24-13.5-28.18-23.62-6.94-10.11-10.4-21.62-10.4-34.52s3.47-24.44,10.4-34.6c6.93-10.17,16.33-18.07,28.18-23.7,11.85-5.63,24.87-8.45,39.07-8.45s27.38,2.84,39.24,8.53c11.85,5.69,21.22,13.61,28.1,23.78s10.32,21.65,10.32,34.44-3.44,24.25-10.32,34.36-16.25,18.01-28.1,23.7-24.93,8.53-39.24,8.53-27.22-2.81-39.07-8.45h0ZM1298.17,522.08c6.99-3.39,12.48-8.09,16.46-14.1,3.99-6.01,5.98-12.68,5.98-20.01s-1.97-13.83-5.9-19.84-9.39-10.77-16.38-14.27-14.8-5.25-23.43-5.25-16.3,1.7-23.34,5.08c-7.04,3.39-12.62,8.09-16.71,14.1-4.1,6.01-6.14,12.74-6.14,20.17s2.05,14.3,6.14,20.25c4.1,5.96,9.67,10.61,16.71,13.94,7.04,3.34,14.83,5,23.34,5s16.27-1.69,23.26-5.08h.01Z"/>
  </g>
</svg>