<svg width="279" height="69" viewBox="0 0 279 69" fill="none" xmlns="http://www.w3.org/2000/svg">
<path d="M11.07 58.4056H19.0921V66.4761H3V2.05684H11.07V58.4056Z" fill="white"/>
<path d="M35.088 57.6851V2.05684H43.3022V56.7243C43.3022 59.7027 42.2294 62.2647 40.0838 64.4104C37.9702 66.5241 35.4083 67.5809 32.398 67.5809C29.4198 67.5809 26.8579 66.5241 24.7123 64.4104C22.5987 62.2647 21.5419 59.7027 21.5419 56.7243V2.05684H29.708V57.6851C29.708 58.4217 29.9802 59.0461 30.5246 59.5586C31.037 60.071 31.6615 60.3272 32.398 60.3272C33.1346 60.3272 33.7751 60.071 34.3195 59.5586C34.8319 59.0461 35.088 58.4217 35.088 57.6851Z" fill="white"/>
<path d="M59.2982 57.6851V42.0246H67.5123V56.7243C67.5123 59.7027 66.4395 62.2647 64.2939 64.4104C62.1803 66.5241 59.6184 67.5809 56.6082 67.5809C53.6299 67.5809 51.068 66.5241 48.9224 64.4104C46.8088 62.2647 45.752 59.7027 45.752 56.7243V11.8566C45.752 8.87826 46.8088 6.31623 48.9224 4.17052C51.068 2.05684 53.6299 1 56.6082 1C59.6184 1 62.1803 2.05684 64.2939 4.17052C66.4395 6.31623 67.5123 8.87826 67.5123 11.8566V26.4602H59.2982V10.8959C59.2982 10.1593 59.042 9.53479 58.5296 9.02238C57.9852 8.47795 57.3447 8.20573 56.6082 8.20573C55.8716 8.20573 55.2472 8.47795 54.7348 9.02238C54.1904 9.53479 53.9182 10.1593 53.9182 10.8959V57.6851C53.9182 58.4217 54.1904 59.0461 54.7348 59.5586C55.2472 60.071 55.8716 60.3272 56.6082 60.3272C57.3447 60.3272 57.9852 60.071 58.5296 59.5586C59.042 59.0461 59.2982 58.4217 59.2982 57.6851Z" fill="white"/>
<path d="M93.2116 2.05684L85.1896 34.2905L93.2116 66.4761H85.1896L78.0322 37.8453V66.4761H69.9622V2.05684H78.0322V30.6876L85.1896 2.05684H93.2116Z" fill="white"/>
<path d="M121.649 2.05684L112.714 45.9157H112.666V66.4761H104.596V45.9157H104.548L95.6134 2.05684H103.683L108.631 26.3642L113.579 2.05684H121.649Z" fill="white"/>
<path d="M136.615 4.31464C138.761 2.16893 141.323 1.09608 144.301 1.09608C147.311 1.09608 149.873 2.16893 151.987 4.31464C154.132 6.42832 155.205 8.97434 155.205 11.9527V26.6044H146.991V11.04C146.991 10.2714 146.735 9.63086 146.222 9.11845C145.678 8.60605 145.037 8.34984 144.301 8.34984C143.564 8.34984 142.94 8.60605 142.427 9.11845C141.915 9.63086 141.659 10.2714 141.659 11.04V26.9406C141.659 27.6772 141.867 28.3017 142.283 28.8141C142.764 29.3265 143.356 29.5827 144.061 29.5827H145.598C147.872 29.5827 149.777 30.1912 151.314 31.4082C152.531 32.401 153.476 33.746 154.148 35.4434C154.917 37.3649 155.269 39.3025 155.205 41.256V57.7331C154.949 60.5193 153.78 62.8572 151.698 64.7467C149.617 66.6362 147.151 67.5809 144.301 67.5809C141.483 67.5809 139.033 66.6362 136.951 64.7467C134.87 62.8572 133.701 60.5353 133.445 57.7811V42.1687H141.659V57.6851C141.659 58.4217 141.915 59.0461 142.427 59.5586C142.94 60.071 143.564 60.3272 144.301 60.3272C145.037 60.3272 145.678 60.071 146.222 59.5586C146.735 59.0461 146.991 58.4217 146.991 57.6851V41.304C146.991 39.5106 146.19 38.6139 144.589 38.6139H144.061C140.986 38.6139 138.376 37.4129 136.231 35.011C134.373 32.9294 133.445 30.5115 133.445 27.7573V11.9527C133.445 8.97434 134.502 6.42832 136.615 4.31464Z" fill="white"/>
<path d="M165.821 58.4056H173.843V66.4761H157.751V2.05684H165.821V58.4056Z" fill="white"/>
<path d="M219.285 2.05684V10.1273H213.905V66.4761H205.883V10.1273H200.503V2.05684H219.285Z" fill="white"/>
<path d="M224.905 4.31464C227.051 2.16893 229.613 1.09608 232.591 1.09608C235.601 1.09608 238.163 2.16893 240.277 4.31464C242.422 6.42832 243.495 8.97434 243.495 11.9527V26.6044H235.281V11.04C235.281 10.2714 235.025 9.63086 234.513 9.11845C233.968 8.60605 233.328 8.34984 232.591 8.34984C231.855 8.34984 231.23 8.60605 230.718 9.11845C230.205 9.63086 229.949 10.2714 229.949 11.04V26.9406C229.949 27.6772 230.157 28.3017 230.574 28.8141C231.054 29.3265 231.646 29.5827 232.351 29.5827H233.888C236.162 29.5827 238.067 30.1912 239.604 31.4082C240.821 32.401 241.766 33.746 242.438 35.4434C243.207 37.3649 243.559 39.3025 243.495 41.256V57.7331C243.239 60.5193 242.07 62.8572 239.989 64.7467C237.907 66.6362 235.441 67.5809 232.591 67.5809C229.773 67.5809 227.323 66.6362 225.242 64.7467C223.16 62.8572 221.991 60.5353 221.735 57.7811V42.1687H229.949V57.6851C229.949 58.4217 230.205 59.0461 230.718 59.5586C231.23 60.071 231.855 60.3272 232.591 60.3272C233.328 60.3272 233.968 60.071 234.513 59.5586C235.025 59.0461 235.281 58.4217 235.281 57.6851V41.304C235.281 39.5106 234.48 38.6139 232.879 38.6139H232.351C229.277 38.6139 226.667 37.4129 224.521 35.011C222.664 32.9294 221.735 30.5115 221.735 27.7573V11.9527C221.735 8.97434 222.792 6.42832 224.905 4.31464Z" fill="white"/>
<mask id="mask0_2173_71" style="mask-type:alpha" maskUnits="userSpaceOnUse" x="171" y="1" width="34" height="67">
<rect x="171.491" y="1" width="33.2905" height="66.5809" fill="#D9D9D9"/>
</mask>
<g mask="url(#mask0_2173_71)">
<path fill-rule="evenodd" clip-rule="evenodd" d="M184.458 -21.715V-2.10166C184.458 -1.36508 184.73 -0.740578 185.275 -0.22817C185.787 0.284237 186.411 0.540436 187.148 0.540436C187.885 0.540436 188.525 0.284237 189.069 -0.22817C189.582 -0.740578 189.838 -1.36508 189.838 -2.10166V-21.715C189.838 -22.4516 189.582 -23.0761 189.069 -23.5885C188.525 -24.1329 187.885 -24.4051 187.148 -24.4051C186.411 -24.4051 185.787 -24.1329 185.275 -23.5885C184.73 -23.0761 184.458 -22.4516 184.458 -21.715ZM179.462 -28.4403C181.608 -30.554 184.17 -31.6108 187.148 -31.6108C190.158 -31.6108 192.72 -30.554 194.834 -28.4403C196.979 -26.2946 198.052 -23.7326 198.052 -20.7542V-3.06242C198.052 -0.0840549 196.979 2.47798 194.834 4.62368C192.72 6.73737 190.158 7.79421 187.148 7.79421C184.17 7.79421 181.608 6.73737 179.462 4.62368C177.349 2.47798 176.292 -0.0840549 176.292 -3.06242V-20.7542C176.292 -23.7326 177.349 -26.2946 179.462 -28.4403ZM184.458 20.0679V48.5133C184.458 49.2499 184.73 49.8744 185.275 50.3868C185.787 50.8992 186.412 51.1554 187.148 51.1554C187.885 51.1554 188.525 50.8992 189.07 50.3868C189.582 49.8744 189.838 49.2499 189.838 48.5133V20.0679C189.838 19.3313 189.582 18.7068 189.07 18.1944C188.525 17.6499 187.885 17.3777 187.148 17.3777C186.412 17.3777 185.787 17.6499 185.275 18.1944C184.73 18.7068 184.458 19.3313 184.458 20.0679ZM179.462 13.3425C181.608 11.2288 184.17 10.172 187.148 10.172C190.158 10.172 192.72 11.2288 194.834 13.3425C196.979 15.4882 198.052 18.0503 198.052 21.0286V47.5526C198.052 50.531 196.979 53.093 194.834 55.2387C192.72 57.3524 190.158 58.4092 187.148 58.4092C184.17 58.4092 181.608 57.3524 179.462 55.2387C177.349 53.093 176.292 50.531 176.292 47.5526V21.0286C176.292 18.0503 177.349 15.4882 179.462 13.3425ZM184.458 89.9567V70.3433C184.458 69.6068 184.73 68.9823 185.275 68.4699C185.787 67.9254 186.412 67.6532 187.148 67.6532C187.885 67.6532 188.525 67.9254 189.07 68.4699C189.582 68.9823 189.838 69.6068 189.838 70.3433V89.9567C189.838 90.6932 189.582 91.3177 189.07 91.8301C188.525 92.3426 187.885 92.5988 187.148 92.5988C186.412 92.5988 185.787 92.3426 185.275 91.8301C184.73 91.3177 184.458 90.6932 184.458 89.9567ZM187.148 60.4475C184.17 60.4475 181.608 61.5043 179.462 63.618C177.349 65.7637 176.292 68.3257 176.292 71.3041V88.9959C176.292 91.9743 177.349 94.5363 179.462 96.682C181.608 98.7957 184.17 99.8525 187.148 99.8525C190.158 99.8525 192.72 98.7957 194.834 96.682C196.979 94.5363 198.052 91.9743 198.052 88.9959V71.3041C198.052 68.3257 196.979 65.7637 194.834 63.618C192.72 61.5043 190.158 60.4475 187.148 60.4475Z" fill="#F56128"/>
</g>
<path d="M249.078 66.722H244.503V62.2307H249.078V66.722Z" fill="white"/>
<path d="M258.118 61.8297V30.8716H262.775V61.295C262.775 62.9525 262.166 64.3783 260.95 65.5725C259.752 66.7488 258.3 67.3369 256.593 67.3369C254.905 67.3369 253.453 66.7488 252.236 65.5725C251.038 64.3783 250.439 62.9525 250.439 61.295V30.8716H255.068V61.8297C255.068 62.2396 255.223 62.5872 255.531 62.8723C255.822 63.1575 256.176 63.3001 256.593 63.3001C257.011 63.3001 257.374 63.1575 257.682 62.8723C257.973 62.5872 258.118 62.2396 258.118 61.8297Z" fill="white"/>
<path d="M265.961 32.1281C267.177 30.934 268.629 30.3369 270.317 30.3369C272.024 30.3369 273.476 30.934 274.674 32.1281C275.891 33.3044 276.499 34.7213 276.499 36.3788V44.5327H271.842V35.8709C271.842 35.4431 271.697 35.0867 271.407 34.8015C271.098 34.5163 270.735 34.3738 270.317 34.3738C269.9 34.3738 269.546 34.5163 269.255 34.8015C268.965 35.0867 268.82 35.4431 268.82 35.8709V44.7199C268.82 45.1298 268.938 45.4773 269.174 45.7625C269.446 46.0477 269.782 46.1902 270.181 46.1902H271.053C272.342 46.1902 273.422 46.5289 274.293 47.2061C274.983 47.7586 275.518 48.5072 275.9 49.4518C276.335 50.5212 276.535 51.5994 276.499 52.6866V61.8564C276.354 63.407 275.691 64.7081 274.511 65.7596C273.331 66.8111 271.933 67.3369 270.317 67.3369C268.72 67.3369 267.331 66.8111 266.151 65.7596C264.971 64.7081 264.309 63.4159 264.163 61.8832V53.1946H268.82V61.8297C268.82 62.2396 268.965 62.5872 269.255 62.8723C269.546 63.1575 269.9 63.3001 270.317 63.3001C270.735 63.3001 271.098 63.1575 271.407 62.8723C271.697 62.5872 271.842 62.2396 271.842 61.8297V52.7134C271.842 51.7153 271.388 51.2162 270.481 51.2162H270.181C268.439 51.2162 266.959 50.5479 265.743 49.2112C264.69 48.0527 264.163 46.7071 264.163 45.1743V36.3788C264.163 34.7213 264.762 33.3044 265.961 32.1281Z" fill="white"/>
</svg>
