<svg width="118" height="36" viewBox="0 0 118 36" fill="none" xmlns="http://www.w3.org/2000/svg">
<path d="M12.1201 16.9801C12.4715 16.2515 12.8272 15.4286 13.1786 14.6272C10.0029 13.6158 8.47293 11.2886 8.47293 8.65293C8.47293 6.2315 9.83578 4.23007 11.5544 3.26578L13.1529 5.54579C12.9644 5.6615 11.2929 6.53578 11.2929 8.70007C11.2929 9.57007 11.8115 11.4515 14.1644 12.1329C16.3501 6.69864 18.7029 1.71436 23.2672 1.71436C25.5729 1.71436 27.3386 3.40721 27.3386 5.99578C27.3386 8.06578 26.2329 10.6758 23.8329 12.6044C22.1615 13.9929 19.7144 15.1201 16.2815 15.0729C15.7886 16.3886 15.2229 17.8029 14.5415 19.0715C15.9772 20.3872 18.1158 22.3886 19.4572 23.4472C20.5629 24.3172 21.2701 24.6686 22.0201 24.6686C23.0315 24.6686 24.0429 24.0815 25.1744 22.9972L27.0815 25.1829C25.3886 26.8072 23.6015 27.5572 22.0715 27.5572C20.5415 27.5572 19.1529 26.7558 17.7686 25.6758C16.5001 24.6901 15.1801 23.3958 12.9215 21.3001C11.8629 22.3586 10.5215 23.0186 8.82864 23.0401C5.93578 23.0658 4.71436 21.1115 4.71436 19.4872C4.71436 17.8629 5.98293 15.6986 8.64435 15.6986C9.98578 15.6986 11.0658 16.2172 12.1244 16.9672L12.1201 16.9801ZM10.6629 19.2643C9.81435 18.5101 9.13293 18.1801 8.59293 18.1801C7.7915 18.1801 7.32435 18.7672 7.32435 19.3801C7.32435 19.9929 7.84293 20.4858 8.59293 20.4858C9.34293 20.4858 10.0501 19.9929 10.6629 19.2643ZM17.3186 12.3729C19.2944 12.2101 20.7772 11.4301 21.8572 10.4186C23.3401 9.07721 23.9744 7.36293 23.9744 6.37293C23.9744 5.52435 23.5758 5.01007 22.7744 5.01007C20.9401 5.01007 19.0801 8.04435 17.3186 12.3729Z" fill="white"/>
<path d="M39.853 15.7843C38.0658 18.9343 35.7601 21.6901 33.1973 21.6901C31.9287 21.6901 30.8701 21.0772 30.6816 19.5986C29.623 20.8201 28.423 21.6901 26.9873 21.6901C24.9859 21.6901 23.5287 20.1601 25.2687 15.8786L27.973 9.17578H31.2901L28.2773 16.6329C27.3344 18.9601 27.6644 19.3372 28.1359 19.3372C29.1944 19.3372 30.3944 17.5715 31.6159 15.4072L34.1316 9.17578H37.4487L34.4358 16.6329C33.4244 19.1743 33.7759 19.6458 34.3201 19.6458C35.3573 19.6458 36.9773 17.7643 38.6487 14.9186C39.0944 14.9401 39.7073 15.3901 39.8487 15.7886L39.853 15.7843Z" fill="white"/>
<path d="M52.9542 15.7843C51.0728 19.0543 48.8828 21.69 46.2042 21.69C43.9242 21.69 42.887 19.9714 44.5585 15.81L45.0985 14.4472C45.5699 13.32 45.9213 12.4243 45.9213 12.0729C45.9213 11.7686 45.6642 11.58 45.3085 11.58C44.6956 11.58 43.6156 12.0986 42.6042 13.2514L39.3128 21.39H35.9956L40.937 9.18001H44.2542L43.7613 10.4272C44.2328 9.98144 45.7842 8.87573 47.4085 8.87573C48.7499 8.87573 49.5256 9.60431 49.5256 10.8515C49.5256 11.5115 49.2899 12.3557 48.797 13.5815L47.5756 16.6372C46.4699 19.3415 46.9885 19.6243 47.387 19.6243C48.4242 19.6243 50.0913 17.7643 51.7628 14.9186C52.2085 14.94 52.8213 15.39 52.9628 15.7886L52.9542 15.7843Z" fill="white"/>
<path d="M66.3388 15.7844C64.5259 18.9602 62.3145 21.6902 59.5888 21.6902C57.2359 21.6902 57.0474 19.7616 57.0474 19.7616C57.0474 19.7616 55.4959 21.6902 53.4731 21.6902C51.8016 21.6902 50.9316 20.3744 50.9316 18.7502C50.9316 16.2344 53.0016 8.87158 57.3302 8.87158C59.5159 8.87158 59.9659 10.7787 59.9659 10.7787L60.6259 9.18015H63.9431L60.9559 16.6373C59.9188 19.2002 60.2959 19.6244 60.7674 19.6244C61.8045 19.6244 63.4973 17.7644 65.1431 14.9187C65.5888 14.9402 66.2016 15.3902 66.3431 15.7887L66.3388 15.7844ZM57.3988 17.1687L59.0702 13.0502C59.0702 13.0502 59.0702 11.6144 57.9859 11.6144C55.9845 11.6144 54.1502 16.483 54.1502 18.1073C54.1502 18.7416 54.4331 18.9987 54.9045 18.9987C56.2459 18.9987 57.3988 17.1644 57.3988 17.1644V17.1687Z" fill="white"/>
<path d="M73.1314 15.7845C71.2972 18.9816 69.0129 21.6902 66.45 21.6902C64.38 21.6902 62.9914 20.113 64.6843 15.8788L69.2957 4.51733H72.6129L67.7186 16.633C66.66 19.2688 67.0843 19.6202 67.53 19.6202C68.5671 19.6202 70.2814 17.7602 71.9272 14.9145C72.3729 14.9359 72.9857 15.3859 73.1271 15.7845H73.1314Z" fill="white"/>
<path d="M86.5156 15.7844C84.7027 18.9602 82.4913 21.6902 79.7655 21.6902C77.4127 21.6902 77.2241 19.7616 77.2241 19.7616C77.2241 19.7616 75.6727 21.6902 73.6498 21.6902C71.9784 21.6902 71.1084 20.3744 71.1084 18.7502C71.1084 16.2344 73.1784 8.87158 77.507 8.87158C79.6927 8.87158 80.1427 10.7787 80.1427 10.7787L80.8027 9.18015H84.1198L81.1327 16.6373C80.0955 19.2002 80.4727 19.6244 80.9441 19.6244C81.9813 19.6244 83.6741 17.7644 85.3198 14.9187C85.7655 14.9402 86.3784 15.3902 86.5198 15.7887L86.5156 15.7844ZM77.5798 17.1687L79.2513 13.0502C79.2513 13.0502 79.2513 11.6144 78.167 11.6144C76.1655 11.6144 74.3313 16.483 74.3313 18.1073C74.3313 18.7416 74.6141 18.9987 75.0855 18.9987C76.427 18.9987 77.5798 17.1644 77.5798 17.1644V17.1687Z" fill="white"/>
<path d="M99.6173 15.7843C97.7358 19.0543 95.5458 21.69 92.8673 21.69C90.5873 21.69 89.5501 19.9714 91.2215 15.81L91.7615 14.4472C92.233 13.32 92.5844 12.4243 92.5844 12.0729C92.5844 11.7686 92.3273 11.58 91.9715 11.58C91.3587 11.58 90.2787 12.0986 89.2673 13.2514L85.9758 21.39H82.6587L87.6001 9.18001H90.9173L90.4244 10.4272C90.8958 9.98144 92.4473 8.87573 94.0715 8.87573C95.413 8.87573 96.1887 9.60431 96.1887 10.8515C96.1887 11.5115 95.953 12.3557 95.4601 13.5815L94.2387 16.6372C93.133 19.3415 93.6515 19.6243 94.0501 19.6243C95.0873 19.6243 96.7544 17.7643 98.4258 14.9186C98.8715 14.94 99.4844 15.39 99.6258 15.7886L99.6173 15.7843Z" fill="white"/>
<path d="M113.002 15.7845C111.167 18.9602 108.956 21.6902 106.226 21.6902C103.873 21.6902 103.685 19.7616 103.685 19.7616C103.685 19.7616 102.133 21.6902 100.11 21.6902C98.4174 21.6902 97.5688 20.3488 97.5688 18.7716C97.5688 16.2088 99.8017 8.86733 103.989 8.86733C106.127 8.86733 106.625 10.7745 106.625 10.7745L109.166 4.51733H112.483L107.589 16.633C106.53 19.2688 106.955 19.6202 107.4 19.6202C108.437 19.6202 110.152 17.7602 111.797 14.9145C112.243 14.9359 112.856 15.3859 112.997 15.7845H113.002ZM104.04 17.1688L105.712 13.0502C105.712 13.0502 105.712 11.6145 104.627 11.6145C102.652 11.6145 100.792 16.483 100.792 18.1073C100.792 18.7416 101.075 18.9988 101.567 18.9988C102.883 18.9988 104.036 17.1645 104.036 17.1645L104.04 17.1688Z" fill="white"/>
<path d="M39.21 29.3873C39.21 29.1002 39.1714 28.8173 39.0814 28.5388C38.9914 28.2602 38.8372 28.0287 38.6186 27.8487C38.4 27.6687 38.0957 27.5745 37.7057 27.5745C37.1357 27.5745 36.7029 27.8273 36.42 28.3288C36.1329 28.8302 35.9914 29.5673 35.9914 30.5359C35.9914 31.4402 36.15 32.1302 36.4672 32.6145C36.7843 33.0988 37.2257 33.3388 37.7914 33.3388C38.1429 33.3388 38.4857 33.2616 38.8114 33.1116C39.1372 32.9616 39.4586 32.7559 39.7714 32.503C39.9043 32.593 40.0329 32.713 40.1572 32.8716C40.2814 33.0259 40.3586 33.1802 40.3972 33.3302C40.1914 33.5359 39.9429 33.7245 39.6514 33.8916C39.36 34.063 39.0386 34.2002 38.6829 34.303C38.3272 34.4059 37.9629 34.4573 37.5814 34.4573C37.0414 34.4573 36.5829 34.3459 36.21 34.1273C35.8371 33.9088 35.5371 33.6088 35.3057 33.2359C35.0786 32.863 34.9114 32.443 34.8086 31.9759C34.7057 31.5087 34.6543 31.0288 34.6543 30.5402C34.6543 29.6145 34.7957 28.8602 35.0786 28.2688C35.3614 27.6816 35.7343 27.2445 36.2057 26.9659C36.6729 26.6873 37.1829 26.5459 37.74 26.5459C38.2972 26.5459 38.7729 26.6488 39.18 26.8545C39.5872 27.0602 39.9 27.3302 40.1186 27.6645C40.3372 27.9987 40.4486 28.3588 40.4486 28.7445C40.4486 28.9673 40.3929 29.143 40.2772 29.2716C40.1657 29.4002 39.9814 29.4645 39.7286 29.4645C39.63 29.4645 39.5443 29.4559 39.4714 29.443C39.3943 29.4302 39.3086 29.413 39.2186 29.3916L39.21 29.3873Z" fill="white"/>
<path d="M45.8526 26.6958C45.9555 26.6787 46.0798 26.6701 46.2212 26.6615C46.3626 26.653 46.4869 26.6487 46.5898 26.6487C46.6926 26.6487 46.8126 26.653 46.9583 26.6615C47.1041 26.6701 47.2198 26.683 47.3098 26.7044L49.7955 34.2301C49.7055 34.2815 49.5941 34.3201 49.4569 34.3501C49.3198 34.3758 49.1869 34.393 49.0541 34.393C48.8526 34.393 48.6983 34.3458 48.5869 34.2515C48.4755 34.1572 48.3769 33.9773 48.2955 33.7115L47.1298 29.9915C47.0312 29.6701 46.9283 29.323 46.8212 28.9544C46.7141 28.5858 46.6198 28.2473 46.5383 27.9387H46.4783C46.4226 28.2001 46.3498 28.4915 46.2598 28.813C46.1698 29.1344 46.0926 29.4087 46.0241 29.6273L44.5455 34.3244C44.4683 34.3415 44.3826 34.3544 44.2883 34.363C44.1941 34.3715 44.0998 34.3758 44.0012 34.3758C43.8941 34.3758 43.7826 34.3673 43.6712 34.3544C43.5598 34.3415 43.4612 34.3158 43.3798 34.2858L43.3369 34.2258L45.8441 26.7044L45.8526 26.6958ZM45.7455 32.5073C45.7069 32.5073 45.6383 32.5073 45.5398 32.5073C45.4412 32.5073 45.3383 32.5073 45.2355 32.503C45.1326 32.503 45.0641 32.503 45.0255 32.503H44.4169L44.8112 31.4701H45.3469C45.3855 31.4701 45.4498 31.4701 45.5398 31.4701C45.6298 31.4701 45.7198 31.4701 45.8098 31.4658C45.8998 31.4615 45.9598 31.4658 45.9941 31.4658H47.0655C47.1041 31.4658 47.1683 31.4658 47.2583 31.4658C47.3483 31.4658 47.4426 31.4658 47.5326 31.4701C47.6269 31.4701 47.6912 31.4701 47.7298 31.4701H48.2741L48.6126 32.503H48.0041C47.9655 32.503 47.8969 32.503 47.7941 32.503C47.6912 32.503 47.5883 32.503 47.4855 32.5073C47.3869 32.5073 47.3183 32.5073 47.2798 32.5073H45.7412H45.7455Z" fill="white"/>
<path d="M52.5986 33.6258C52.6158 33.4415 52.6715 33.2572 52.7786 33.0772C52.8815 32.8972 53.0015 32.7558 53.1301 32.6486C53.4515 32.8544 53.8115 33.0301 54.2058 33.1758C54.6001 33.3215 54.9858 33.3944 55.3715 33.3944C55.8043 33.3944 56.1386 33.3001 56.3701 33.1115C56.6015 32.9229 56.7172 32.6829 56.7172 32.3915C56.7172 32.1515 56.6358 31.9329 56.4729 31.7401C56.3101 31.5472 56.0701 31.3801 55.7443 31.2429L54.3943 30.6815C53.9315 30.4844 53.5586 30.2315 53.2758 29.9186C52.9972 29.6058 52.8558 29.2072 52.8558 28.7272C52.8558 28.3115 52.9629 27.9386 53.1772 27.6086C53.3915 27.2786 53.6915 27.0215 54.0772 26.8287C54.4629 26.6358 54.9044 26.5415 55.4015 26.5415C55.8729 26.5415 56.3186 26.6015 56.7343 26.7258C57.1501 26.8501 57.5058 26.9829 57.7972 27.1286C57.7886 27.3086 57.7458 27.4929 57.6643 27.6729C57.5829 27.8529 57.4758 27.9987 57.3429 28.1144C57.0515 27.9687 56.7343 27.8444 56.3829 27.7458C56.0315 27.6472 55.7101 27.5915 55.4229 27.5915C55.0243 27.5915 54.7158 27.6901 54.4929 27.8829C54.2701 28.0758 54.1586 28.3072 54.1586 28.5772C54.1586 28.8086 54.2401 28.9972 54.4029 29.1472C54.5658 29.2972 54.7801 29.4258 55.0458 29.5415L56.3829 30.0986C56.7043 30.2315 56.9915 30.3986 57.2443 30.6001C57.4929 30.8015 57.6943 31.0329 57.8358 31.2986C57.9815 31.5644 58.0543 31.8644 58.0543 32.1987C58.0543 32.6272 57.9515 33.0086 57.7501 33.3472C57.5486 33.6858 57.2443 33.9558 56.8329 34.1529C56.4258 34.3501 55.9115 34.4529 55.2901 34.4529C54.8315 34.4529 54.3601 34.3801 53.8843 34.2301C53.4086 34.0801 52.9801 33.8786 52.5986 33.6215V33.6258Z" fill="white"/>
<path d="M61.7827 26.6957C61.877 26.6786 61.9884 26.6657 62.1041 26.6571C62.2199 26.6486 62.327 26.6443 62.417 26.6443C62.5156 26.6443 62.6184 26.6443 62.7384 26.6571C62.8541 26.6657 62.9613 26.6786 63.0599 26.6957V34.3071C62.9613 34.3243 62.8584 34.3371 62.7384 34.3457C62.6227 34.3543 62.5156 34.3586 62.417 34.3586C62.327 34.3586 62.2241 34.3586 62.1041 34.3457C61.9841 34.3329 61.877 34.3243 61.7827 34.3071V26.6957Z" fill="white"/>
<path d="M67.3413 26.713C67.4399 26.6916 67.5684 26.6744 67.727 26.6616C67.8813 26.6487 68.0056 26.6444 68.0999 26.6444C68.1942 26.6444 68.3142 26.6444 68.4556 26.6573C68.597 26.6701 68.7256 26.6787 68.8542 26.6959L68.5242 28.1701L68.4256 28.1873C68.4427 28.453 68.4599 28.753 68.477 29.083C68.4899 29.413 68.5027 29.7473 68.5113 30.0816C68.5199 30.4158 68.5242 30.7244 68.5242 31.003V34.303C68.4213 34.3201 68.3185 34.333 68.2199 34.3416C68.1213 34.3501 68.027 34.3544 67.9413 34.3544C67.8642 34.3544 67.7699 34.3544 67.6585 34.3416C67.547 34.3287 67.4442 34.3201 67.3456 34.303V26.7087L67.3413 26.713ZM69.1627 29.7344C69.0256 29.4559 68.897 29.1858 68.7856 28.9244C68.6742 28.663 68.5627 28.4144 68.4642 28.1873L67.8727 27.4758L68.8542 26.7001L71.117 31.2687C71.2627 31.5644 71.3956 31.8558 71.5199 32.1344C71.6442 32.413 71.7556 32.6701 71.8585 32.893L72.4927 33.5616L71.447 34.3073L69.167 29.7344H69.1627ZM72.9727 26.7087V34.2901C72.8699 34.3116 72.7413 34.3287 72.5913 34.3416C72.4413 34.3544 72.3085 34.3587 72.197 34.3587C72.0856 34.3587 71.9699 34.3587 71.837 34.3458C71.7042 34.333 71.5713 34.3244 71.4427 34.3073L71.7942 32.8973L71.8927 32.8801C71.8713 32.5758 71.8499 32.2501 71.837 31.903C71.8199 31.5558 71.8113 31.2173 71.8027 30.8873C71.7942 30.5573 71.7899 30.2616 71.7899 30.0087V27.433C71.7899 27.1501 71.8413 26.9487 71.9442 26.8244C72.047 26.7001 72.227 26.6401 72.4799 26.6401H72.8999L72.9727 26.7087Z" fill="white"/>
<path d="M76.7744 30.4972C76.7744 29.7386 76.8858 29.0615 77.113 28.4701C77.3401 27.8743 77.683 27.4072 78.1501 27.0643C78.613 26.7215 79.2044 26.55 79.9158 26.55C80.6273 26.55 81.223 26.7215 81.6858 27.0686C82.1487 27.4158 82.4958 27.8872 82.7187 28.4829C82.9416 29.0786 83.0573 29.7515 83.0573 30.5015C83.0573 31.2515 82.9458 31.9372 82.7187 32.5329C82.4916 33.1286 82.1487 33.6 81.6816 33.9429C81.2187 34.29 80.6273 34.4615 79.9158 34.4615C79.3758 34.4615 78.913 34.3629 78.5187 34.1615C78.1244 33.9643 77.7987 33.6858 77.5416 33.3258C77.2844 32.9658 77.0916 32.5458 76.963 32.0658C76.8344 31.5858 76.7744 31.0629 76.7744 30.4972ZM78.1073 30.4972C78.1073 30.8272 78.133 31.1658 78.1801 31.5129C78.2273 31.8601 78.3173 32.1772 78.4458 32.4729C78.5744 32.7643 78.7587 33.0043 78.9944 33.18C79.2301 33.3558 79.5387 33.4458 79.9201 33.4458C80.3016 33.4458 80.6058 33.3558 80.8458 33.18C81.0858 33.0043 81.2658 32.7643 81.3901 32.4729C81.5144 32.1815 81.6044 31.8601 81.6516 31.5129C81.6987 31.1658 81.7244 30.8315 81.7244 30.4972C81.7244 30.1629 81.6987 29.8286 81.6516 29.4858C81.6044 29.1429 81.5144 28.8258 81.3901 28.5343C81.2658 28.2429 81.0816 28.0072 80.8458 27.8315C80.6101 27.6558 80.3016 27.5658 79.9201 27.5658C79.5387 27.5658 79.2344 27.6558 78.9944 27.8315C78.7544 28.0072 78.5744 28.2429 78.4458 28.5343C78.3173 28.8258 78.2273 29.1429 78.1801 29.4858C78.133 29.8286 78.1073 30.1672 78.1073 30.4972Z" fill="white"/>
</svg>
