<svg width="280" height="84" viewBox="0 0 280 84" fill="none" xmlns="http://www.w3.org/2000/svg">
<g clip-path="url(#clip0_90_15028)">
<path d="M232.896 67.2601H225.721V46.6833H233.673C234.394 50.879 236.427 54.2215 239.773 56.7228C243.11 59.224 247.213 60.4755 252.085 60.4755C255.431 60.4755 258.054 59.9245 259.951 58.8034C261.854 57.6893 262.806 56.1545 262.806 54.2283C262.806 51.2069 259.266 48.9734 252.173 47.5193C251.019 47.2927 250.139 47.1159 249.534 46.982C243.342 45.6961 239.052 44.618 236.679 43.7888C234.298 42.9528 232.331 41.9863 230.774 40.8979C228.786 39.5245 227.285 37.8833 226.262 35.9811C225.237 34.0773 224.727 31.9691 224.727 29.6584C224.727 24.3743 226.839 20.2781 231.057 17.3442C235.284 14.4309 241.244 12.9717 248.937 12.9717C252.765 12.9717 256.161 13.3288 259.11 14.0601C262.066 14.7777 264.624 15.8798 266.781 17.3442L268.554 13.6601H275.902V32.7846H267.776C267.256 28.9167 265.447 25.8884 262.331 23.6893C259.223 21.5004 255.186 20.3983 250.228 20.3983C247.265 20.3983 244.906 20.9391 243.182 22.0343C241.454 23.1348 240.588 24.6043 240.588 26.4584C240.588 29.1262 244.487 31.1811 252.303 32.6335C255.275 33.1931 257.617 33.6584 259.347 34.0361C266.154 35.5176 271.129 37.6189 274.286 40.3588C277.436 43.109 279.016 46.685 279.016 51.1039C279.016 56.3125 276.803 60.4515 272.384 63.5331C267.963 66.6009 261.972 68.1356 254.424 68.1356C250.789 68.1356 247.265 67.7116 243.833 66.8532C240.401 66.0103 237.553 64.8635 235.273 63.4455L232.896 67.2601Z" fill="#00FFFF"/>
<path d="M96.2295 40.5871C96.2295 31.9536 99.1857 25.1656 105.112 20.2266C111.031 15.2944 119.193 12.8154 129.594 12.8154C139.996 12.8154 148.072 15.2738 153.991 20.2043C159.917 25.1313 162.88 31.9313 162.88 40.5854C162.88 49.2395 159.924 56 154.02 60.9133C148.108 65.83 139.969 68.285 129.594 68.285C119.22 68.285 111.029 65.818 105.112 60.8944C99.1857 55.9639 96.2295 49.1931 96.2295 40.5854V40.5871ZM115.508 40.5871C115.508 47.7322 116.626 52.9442 118.875 56.2111C121.124 59.4798 124.702 61.121 129.596 61.121C134.49 61.121 138.023 59.4798 140.281 56.2111C142.523 52.9442 143.641 47.7322 143.641 40.5871C143.641 33.442 142.523 28.2438 140.281 24.9665C138.023 21.6892 134.47 20.0532 129.596 20.0532C124.722 20.0532 121.124 21.6892 118.875 24.9665C116.626 28.2438 115.508 33.4523 115.508 40.5871Z" fill="#00FFFF"/>
<path d="M209.589 17.9366C209.211 15.1434 208.14 12.7984 206.42 10.8739H217.745V17.9366H209.591H209.589ZM167.922 21.1434C168.949 23.061 170.454 24.6971 172.451 26.0859C174.015 27.1709 175.989 28.1409 178.379 28.9821C180.758 29.8215 185.066 30.8997 191.28 32.1941C191.888 32.3245 192.772 32.4979 193.929 32.7297C201.048 34.1924 204.602 36.4361 204.602 39.461C204.602 41.3992 203.646 42.934 201.737 44.0567C199.833 45.1778 197.199 45.7357 193.842 45.7357C188.951 45.7357 184.832 44.4842 181.483 41.9657C178.125 39.461 176.084 36.1031 175.359 31.8919H167.378V52.546H174.58L176.966 48.7194C179.254 50.1443 182.113 51.2876 185.557 52.1409C189.002 52.9958 192.54 53.4284 196.187 53.4284C203.763 53.4284 209.776 51.8799 214.214 48.8035C218.65 45.7134 220.87 41.5606 220.87 36.328C220.87 31.8919 219.285 28.3022 216.123 25.5383C212.954 22.7881 207.96 20.6833 201.129 19.1984C199.393 18.8069 197.042 18.3434 194.06 17.7855C186.214 16.3314 182.302 14.2627 182.302 11.5846C182.302 11.3391 182.358 11.1074 182.396 10.8756H166.83C166.533 12.1065 166.382 13.4078 166.382 14.7984C166.382 17.1142 166.896 19.2413 167.924 21.1451L167.922 21.1434ZM210.37 58.1718L208.59 61.8696C206.425 60.4018 203.859 59.2945 200.892 58.5769C197.931 57.8387 194.523 57.4782 190.681 57.4782C182.959 57.4782 176.976 58.9391 172.734 61.8696C169.608 64.0413 167.647 66.8499 166.829 70.3022H182.394C182.597 68.7829 183.407 67.5297 184.904 66.5752C186.635 65.4816 189 64.9323 191.975 64.9323C196.954 64.9323 201.005 66.0396 204.125 68.2318C205.002 68.8533 205.745 69.5486 206.42 70.3022H217.745V58.1735H210.37V58.1718Z" fill="#00FFFF"/>
<path d="M30.3171 60.34H33.8003C39.1085 60.2576 39.7712 59.6773 39.5222 55.5297V25.425C39.6046 21.2773 38.942 20.6971 33.7162 20.6971H30.3154V12.819H66.475C75.5978 12.819 80.657 13.7306 84.3051 16.0533C87.7059 18.1271 89.8621 22.0241 89.8621 25.8387C89.8621 29.2396 88.3703 32.3898 85.5497 34.7125C83.4759 36.5374 81.5686 37.449 77.0913 38.9426C82.9797 40.2696 85.3849 41.1829 88.039 43.0902C91.3557 45.4954 93.0158 48.8121 93.0158 53.0421C93.0158 58.2662 90.3617 62.8276 86.0493 65.0679C81.7368 67.3065 76.0149 68.1357 65.5652 68.1357H30.3188V60.34H30.3171ZM61.0862 35.6258C69.1308 35.6258 72.5317 33.3031 72.5317 27.9967C72.5317 22.6902 69.2973 20.8636 61.4192 20.8636H57.7694V35.6258H61.0862ZM61.6664 60.34C66.6433 60.34 69.4622 59.7597 71.3694 58.2662C73.2767 56.9391 74.4373 54.3692 74.4373 51.4662C74.4373 45.4954 70.4561 42.8413 61.5823 42.8413H57.7677V60.34H61.6664Z" fill="#00FFFF"/>
<path d="M4.91103 73.8988H-0.443481V55.14H4.91103V61.2516H21.2183V67.7872H4.91103V73.8988Z" fill="#00FFFF"/>
<path d="M21.22 52.6575H-0.443481V46.0927H7.48441V38.8618H-0.443481V32.2953H21.22V38.8618H12.5969V46.0927H21.22V52.6575Z" fill="#00FFFF"/>
<path d="M16.0767 12.3245H21.22V28.0875H-0.443481V12.6266H4.67068V21.7648H7.96854V13.8386H12.3857V21.7648H16.0767V12.3245Z" fill="#00FFFF"/>
</g>
<defs>
<clipPath id="clip0_90_15028">
<rect width="280" height="84" fill="white"/>
</clipPath>
</defs>
</svg>
