<svg width="103" height="35" viewBox="0 0 103 35" fill="none" xmlns="http://www.w3.org/2000/svg">
<path d="M7.55368 23.3577C7.58499 23.1464 7.60064 22.935 7.60064 22.7237C7.60064 21.6513 7.23274 20.665 6.61436 19.8822C6.59871 19.8666 6.58305 19.8509 6.57522 19.8353V19.8196C6.31691 19.5143 6.16818 19.1229 6.16818 18.6924C6.16818 18.3245 6.2856 17.9801 6.48129 17.6983C6.48129 17.6983 6.48129 17.6983 6.48129 17.6905C5.18973 14.9743 4.46959 11.9372 4.46959 8.72783C4.46959 5.61242 5.15059 2.65357 6.3717 0C3.51461 1.89429 1.63598 5.13494 1.63598 8.82176C1.63598 9.48711 1.6986 10.1368 1.81601 10.7708C1.26808 10.489 0.657522 10.3247 0 10.3168C1.08022 11.4832 1.73774 13.0487 1.73774 14.7629C1.73774 15.7649 1.51073 16.712 1.1037 17.5574C1.38549 17.7061 1.58118 17.9958 1.58118 18.3402C1.58118 18.575 1.48725 18.7785 1.34635 18.9351C0.602728 19.7492 0.140897 20.8372 0.140897 22.0348C0.140897 23.8352 1.18197 25.3929 2.69271 26.1522C2.95885 28.3596 4.4461 30.1912 6.45781 30.9505C5.87073 30.0347 5.53414 28.9545 5.53414 27.7882C5.53414 27.3263 5.58894 26.8801 5.6907 26.4418C6.68481 25.7217 7.37364 24.6258 7.55368 23.3577ZM5.268 23.5925C5.23669 23.6708 5.21321 23.7569 5.1819 23.8352C4.79052 24.9545 4.57917 26.16 4.57917 27.4124C4.57917 27.6942 4.59483 27.976 4.61831 28.25C3.7103 26.8801 3.10758 25.299 2.89623 23.5925C2.88057 23.4908 2.87275 23.389 2.86492 23.2794C2.88057 22.6141 3.42068 22.0818 4.08603 22.0818C4.76703 22.0818 5.31497 22.6297 5.31497 23.3107C5.29932 23.4047 5.29149 23.4986 5.268 23.5925Z" fill="url(#paint0_linear_131_1407)"/>
<path d="M18.7784 26.6749V26.6671C18.7706 26.5966 18.7706 26.534 18.7628 26.4636C18.7471 26.2835 18.7315 26.1035 18.7158 25.9313C18.708 25.853 18.7001 25.7747 18.6845 25.6965C18.661 25.5086 18.6297 25.3207 18.5984 25.1329C18.5906 25.0937 18.5827 25.0468 18.5749 25.0076C18.5358 24.8198 18.4966 24.6319 18.4575 24.4519C18.4418 24.3736 18.4184 24.3031 18.4027 24.2249C18.3792 24.1231 18.3479 24.0135 18.3166 23.9117C18.2931 23.8178 18.2696 23.7317 18.2383 23.6456C18.2227 23.5908 18.1992 23.536 18.1835 23.4812C18.1131 23.2699 18.0426 23.0585 17.9644 22.855C17.9487 22.808 17.933 22.7611 17.9096 22.7219C17.5651 21.8452 17.1268 21.0077 16.6023 20.2328C16.1953 19.3561 15.9683 18.3854 15.9683 17.3522C15.9683 16.5459 16.1092 15.7632 16.3675 15.043C16.2344 15.2622 15.9996 15.4109 15.7256 15.4109C15.3264 15.4109 14.9977 15.0978 14.982 14.6986C14.9585 14.5107 14.9272 14.3307 14.8881 14.1507C14.8803 14.1272 14.8803 14.0959 14.8724 14.0724C14.8333 13.9002 14.7942 13.7201 14.7472 13.5558C14.7394 13.5323 14.7315 13.5088 14.7237 13.4775C14.6767 13.2975 14.6219 13.1252 14.5672 12.953C14.5672 12.9452 14.5672 12.9452 14.5593 12.9374C14.4967 12.7495 14.4263 12.5695 14.3558 12.3895C14.2932 12.2329 14.2227 12.0763 14.1445 11.9198C14.1366 11.9041 14.1288 11.8807 14.1131 11.865C13.9723 11.5675 13.8157 11.2858 13.6357 11.004C13.62 10.9805 13.6122 10.957 13.5965 10.9413C13.5026 10.8004 13.4165 10.6595 13.3147 10.5265L13.3069 10.5186C13.213 10.3856 13.1112 10.2525 13.0095 10.1273C13.0016 10.1116 12.986 10.1038 12.9781 10.0881C12.8764 9.96288 12.7668 9.83764 12.6572 9.71239C12.6416 9.69674 12.6337 9.68108 12.6181 9.66543C12.5085 9.54801 12.3989 9.4306 12.2893 9.32101C12.2815 9.31318 12.2737 9.30535 12.2737 9.30535C12.1562 9.18794 12.0388 9.07835 11.9214 8.97659C11.8979 8.95311 11.8744 8.93746 11.851 8.91397C11.6161 8.71045 11.3656 8.51476 11.1152 8.33473C11.0839 8.31124 11.0525 8.28776 11.0212 8.27211C10.8882 8.17817 10.7551 8.09207 10.622 8.01379C10.6064 8.00597 10.5907 7.99814 10.5751 7.98248C10.4498 7.90421 10.3246 7.83376 10.1915 7.76331C10.168 7.74765 10.1367 7.732 10.1132 7.72417C9.97232 7.65372 9.83143 7.58327 9.69053 7.51282C9.65922 7.49717 9.63574 7.48934 9.60442 7.47369C9.47135 7.41106 9.33829 7.35627 9.20522 7.30148C9.18173 7.29365 9.16608 7.28582 9.14259 7.27799C8.99387 7.2232 8.84514 7.16841 8.69642 7.11361C8.66511 7.10579 8.62597 7.09013 8.59466 7.0823C8.43811 7.03534 8.28938 6.98837 8.125 6.94141C9.94884 8.64001 11.0839 11.0666 11.0839 13.7515C11.0839 14.2681 11.0369 14.7691 10.9586 15.2622C11.397 16.2485 11.6396 17.3444 11.6396 18.495C11.6396 19.2856 11.5222 20.0527 11.3109 20.7807C11.2482 20.992 11.2013 21.2034 11.17 21.4226C11.1621 21.493 11.1543 21.5635 11.1465 21.6182C11.1465 21.6417 11.1386 21.6652 11.1386 21.6887C11.123 21.8687 11.1152 22.0488 11.1152 22.2288C11.1152 22.6437 11.1543 23.0429 11.2247 23.4343C11.2169 23.4577 11.2091 23.4812 11.1934 23.5047C11.2091 23.4969 11.2169 23.4891 11.2326 23.4734C11.2639 23.63 11.2952 23.7865 11.3343 23.9431C11.4439 24.3658 11.5926 24.7728 11.7727 25.1563C12.0701 25.7904 12.4772 26.3775 12.9468 26.8863C13.7922 27.2072 14.528 27.7473 15.0681 28.4518C15.0681 28.4518 15.076 28.4518 15.076 28.4596C15.0916 28.4753 15.0994 28.4987 15.1151 28.5222C15.2716 28.7336 15.4125 28.9528 15.5378 29.1876C16.0388 30.0251 16.438 30.9175 16.7432 31.8646C16.9311 32.4517 17.072 33.0623 17.1738 33.6807C17.1816 33.7276 17.1894 33.7746 17.1972 33.8216C17.2207 33.7276 17.2364 33.6259 17.252 33.5319C17.98 32.1777 18.4731 30.6748 18.6767 29.078C18.7002 28.8667 18.7236 28.6553 18.7393 28.4361C18.7471 28.3657 18.7471 28.2952 18.7549 28.2248C18.7628 28.1465 18.7628 28.0682 18.7706 27.99C18.7784 27.8099 18.7863 27.6299 18.7863 27.4498C18.8019 27.168 18.7941 26.9176 18.7784 26.6749ZM17.5103 29.0545C17.4477 29.4772 17.3695 29.8999 17.2677 30.3069C17.1738 29.8529 17.0485 29.4068 16.8841 28.9841C16.3675 27.6221 15.4986 26.4244 14.3949 25.5086C14.3088 25.4538 14.2384 25.3912 14.1601 25.3286C14.1053 25.2816 14.0584 25.2268 14.0114 25.172C14.0036 25.1642 14.0036 25.1642 13.9957 25.1563C13.9488 25.1015 13.9096 25.0468 13.8705 24.992C13.7844 24.8589 13.7139 24.7102 13.667 24.5536C13.667 24.5458 13.6591 24.538 13.6591 24.5301C13.6435 24.4675 13.6278 24.3971 13.6122 24.3344C13.6122 24.3188 13.6044 24.2953 13.6044 24.2796C13.5965 24.2014 13.5887 24.1231 13.5887 24.0448C13.5887 23.082 14.3715 22.2993 15.3343 22.2993C15.9213 22.2993 16.4458 22.5889 16.7589 23.0351C16.8763 23.3168 16.9781 23.6143 17.072 23.9039C17.1346 24.0918 17.1894 24.2875 17.2364 24.4832C17.2442 24.5223 17.2599 24.5693 17.2677 24.6084C17.3147 24.8041 17.3616 25.0076 17.4008 25.2111C17.4008 25.2111 17.4008 25.2111 17.4008 25.219C17.4399 25.4303 17.4712 25.6417 17.5025 25.853C17.5025 25.8765 17.5103 25.9 17.5103 25.9235C17.5417 26.1426 17.5573 26.3618 17.573 26.581C17.5808 26.714 17.5886 26.8549 17.5965 26.988C17.6043 27.1289 17.6043 27.2698 17.6043 27.4107C17.6278 27.9743 17.5808 28.5222 17.5103 29.0545Z" fill="url(#paint1_linear_131_1407)"/>
<path fill-rule="evenodd" clip-rule="evenodd" d="M26.9799 20.163C26.9799 19.3489 26.7215 18.5974 26.2988 17.9712C25.5631 17.4076 25.0856 16.5231 25.0856 15.5212C25.0856 15.0907 25.1717 14.6836 25.3282 14.3157C24.0445 13.9791 23.0973 12.8128 23.0973 11.4273C23.0973 11.4038 23.0973 11.3882 23.0973 11.3647C22.8312 11.3177 22.612 11.1455 22.5024 10.9107C20.8195 8.08491 18.252 5.8462 15.1836 4.57812C16.984 6.77769 18.2912 9.39213 18.9409 12.2649C19.0505 12.7345 19.1366 13.212 19.207 13.6895C19.888 14.3862 20.3029 15.3411 20.3029 16.39C20.3029 16.7188 20.2559 17.0319 20.1855 17.3372C20.8586 18.0339 21.2813 18.9888 21.2813 20.0377C21.2813 20.5465 21.1796 21.0318 21.0074 21.478C21.4614 21.7989 21.8919 22.1434 22.3068 22.5191C22.4242 22.6443 22.5416 22.7618 22.6746 22.8713C23.0504 23.2471 23.4104 23.6463 23.7314 24.069C24.7568 25.3918 25.5317 26.9339 25.9623 28.609C26.5493 27.1609 26.8781 25.5719 26.8781 23.9124C26.8781 23.1531 26.8076 22.4095 26.6746 21.6815C26.8703 21.2119 26.9799 20.7031 26.9799 20.163ZM25.7039 25.1492C25.2499 23.7324 24.3732 22.4565 23.1443 21.5172C23.1287 21.5093 23.1208 21.4937 23.1052 21.4858C22.8234 21.2823 22.6433 20.9614 22.6433 20.5857C22.6433 19.9751 23.1443 19.4741 23.7549 19.4741C24.1149 19.4741 24.428 19.6463 24.6316 19.9125C24.6629 19.9595 24.6864 19.9986 24.7177 20.0377C25.6413 21.5563 26.0092 23.3723 25.7039 25.1492Z" fill="url(#paint2_linear_131_1407)"/>
<path d="M80.2109 25.7375C80.914 25.7375 81.4999 25.1516 81.4999 24.4719C81.4999 23.7688 80.914 23.1829 80.2109 23.1829C79.5078 23.1829 78.9219 23.7688 78.9219 24.4719C78.9219 25.1516 79.5078 25.7375 80.2109 25.7375Z" fill="white"/>
<path d="M85.4606 10.7851C85.9762 10.7851 86.445 10.3398 86.445 9.82417C86.445 9.28513 85.9762 8.81641 85.4606 8.81641C84.9216 8.81641 84.4763 9.28513 84.4763 9.82417C84.4763 10.3398 84.9216 10.7851 85.4606 10.7851ZM84.9216 25.4797H85.9997V14.2302H84.9216V25.4797Z" fill="white"/>
<path d="M88.724 19.8549C88.724 23.2532 91.091 25.7609 94.3018 25.7609C97.5126 25.7609 99.8797 23.2532 99.8797 19.8549C99.8797 16.4567 97.5126 13.949 94.3018 13.949C91.091 13.949 88.724 16.4567 88.724 19.8549ZM89.8255 19.8549C89.8255 16.9723 91.6769 14.9333 94.3018 14.9333C96.9267 14.9333 98.7782 16.9723 98.7782 19.8549C98.7782 22.7376 96.9267 24.7766 94.3018 24.7766C91.6769 24.7766 89.8255 22.7376 89.8255 19.8549Z" fill="white"/>
<path d="M35.8904 25.4796H38.6794L40.2731 20.5111C40.859 18.6128 41.0699 17.7925 41.1871 17.2535C41.2808 17.8394 41.5386 18.9409 42.0073 20.4643L43.601 25.4796H46.2728L50.2804 13.9021H47.2571L45.7103 18.8706C45.4994 19.5971 45.1244 20.9799 44.9369 21.847C44.7963 21.0736 44.3275 19.3393 44.1869 18.8706L42.6401 13.9021H39.734L38.1403 18.8706C37.7654 20.019 37.5544 20.7455 37.3435 21.8704C37.1326 20.7924 36.8982 19.7846 36.6404 18.8706L35.117 13.9021H32.1406L35.8904 25.4796Z" fill="white"/>
<path d="M53.4414 11.5819C54.3788 11.5819 55.1522 10.8085 55.1522 9.84757C55.1522 8.88668 54.3788 8.13671 53.4414 8.13671C52.457 8.13671 51.6836 8.88668 51.6836 9.84757C51.6836 10.8085 52.457 11.5819 53.4414 11.5819ZM52.0117 25.4796H54.871V13.9021H52.0117V25.4796Z" fill="white"/>
<path d="M60.7077 25.4796V8.04297H57.8719V25.4796H60.7077Z" fill="white"/>
<path d="M68.4646 25.7843C70.2224 25.7843 71.7223 25.0109 72.4254 23.675L72.6129 25.4796H75.2378V8.04297H72.402V15.3786C71.6754 14.2302 70.2458 13.5505 68.6287 13.5505C65.1367 13.5505 63.0274 16.1285 63.0274 19.7377C63.0274 23.3235 65.1132 25.7843 68.4646 25.7843ZM69.0974 23.1594C67.1053 23.1594 65.8866 21.7064 65.8866 19.644C65.8866 17.5816 67.1053 16.1051 69.0974 16.1051C71.0895 16.1051 72.3785 17.5581 72.3785 19.644C72.3785 21.7298 71.0895 23.1594 69.0974 23.1594Z" fill="white"/>
<path fill-rule="evenodd" clip-rule="evenodd" d="M35.7977 25.6072L31.9648 13.7732H35.2124L36.764 18.8337L36.7644 18.8351C36.9729 19.5744 37.166 20.3742 37.3437 21.2221C37.5197 20.4116 37.7165 19.7566 38.0189 18.8305C38.0189 18.8303 38.0189 18.8302 38.019 18.8301L39.641 13.7732H42.7351L44.3103 18.8331C44.4229 19.2082 44.7452 20.3922 44.9429 21.2518C45.1426 20.426 45.4182 19.418 45.5877 18.8342L45.5884 18.8318L47.1633 13.7732H50.461L46.3646 25.6072H43.5078L41.8853 20.5013C41.5422 19.3862 41.3112 18.4944 41.1745 17.8631C41.0347 18.412 40.8075 19.2155 40.3961 20.5483L40.3957 20.5496L38.7735 25.6072H35.7977ZM41.1145 17.5721C41.1429 17.4537 41.1668 17.3488 41.1876 17.2528C41.2027 17.347 41.222 17.4544 41.2457 17.5748C41.3697 18.2036 41.6145 19.185 42.0079 20.4636L43.6016 25.479H46.2733L50.2809 13.9014H47.2576L45.7108 18.8699C45.5235 19.5154 45.2066 20.6788 45.0067 21.5385C44.9816 21.6464 44.9584 21.7496 44.9374 21.8463C44.9209 21.7554 44.8999 21.6512 44.8753 21.5374C44.6912 20.6827 44.3116 19.2835 44.1875 18.8699L42.6407 13.9014H39.7346L38.1409 18.8699C37.8041 19.9013 37.5997 20.5924 37.4087 21.5375C37.387 21.6447 37.3655 21.7552 37.3441 21.8698C37.3222 21.7583 37.3002 21.6475 37.2779 21.5376C37.0844 20.5843 36.8721 19.6894 36.641 18.8699L35.1176 13.9014H32.1412L35.891 25.479H38.6799L40.2736 20.5105C40.7552 18.9502 40.9834 18.1182 41.1145 17.5721ZM51.8841 25.6072V13.7732H54.9998V25.6072H51.8841ZM55.281 9.84691C55.281 10.8775 54.4513 11.7094 53.4419 11.7094C52.3879 11.7094 51.556 10.8797 51.556 9.84691C51.556 8.81181 52.3902 8.00781 53.4419 8.00781C54.4491 8.00781 55.281 8.81405 55.281 9.84691ZM54.8715 25.479H52.0123V13.9014H54.8715V25.479ZM60.8365 25.6072H57.7443V7.91406H60.8365V25.6072ZM60.7083 8.04231V25.479H57.8725V8.04231H60.7083ZM72.6134 25.479L72.4259 23.6744C72.3915 23.7398 72.3552 23.8039 72.317 23.8666C71.5753 25.0841 70.1368 25.7837 68.4652 25.7837C65.1138 25.7837 63.028 23.3228 63.028 19.7371C63.028 16.1279 65.1372 13.5499 68.6292 13.5499C70.156 13.5499 71.5157 14.1557 72.2743 15.1899C72.3191 15.2511 72.3619 15.3137 72.4025 15.3779V8.04231H75.2383V25.479H72.6134ZM72.2743 14.9799C71.4709 13.9887 70.1211 13.4216 68.6292 13.4216C66.8495 13.4216 65.4129 14.0797 64.4228 15.2053C63.4343 16.3291 62.8997 17.9082 62.8997 19.7371C62.8997 21.5542 63.4284 23.0983 64.3937 24.19C65.3606 25.2833 66.756 25.9119 68.4652 25.9119C70.1078 25.9119 71.5467 25.249 72.3382 24.0712L72.4978 25.6072H75.3665V7.91406H72.2743V14.9799ZM66.8413 22.0891C67.3685 22.6805 68.1351 23.0305 69.098 23.0305C70.0618 23.0305 70.8467 22.6856 71.3914 22.0962C71.937 21.5058 72.2508 20.66 72.2508 19.6433C72.2508 18.6266 71.9369 17.7746 71.391 17.1783C70.846 16.583 70.0611 16.2327 69.098 16.2327C68.1358 16.2327 67.3691 16.5881 66.8417 17.1854C66.3127 17.7843 66.0154 18.6368 66.0154 19.6433C66.0154 20.6498 66.3126 21.4961 66.8413 22.0891ZM55.1528 9.84691C55.1528 10.8078 54.3794 11.5812 53.4419 11.5812C52.4576 11.5812 51.6842 10.8078 51.6842 9.84691C51.6842 8.88602 52.4576 8.13605 53.4419 8.13605C54.3794 8.13605 55.1528 8.88602 55.1528 9.84691ZM65.8872 19.6433C65.8872 21.7057 67.1059 23.1588 69.098 23.1588C71.0901 23.1588 72.3791 21.7292 72.3791 19.6433C72.3791 17.5575 71.0901 16.1044 69.098 16.1044C67.1059 16.1044 65.8872 17.5809 65.8872 19.6433Z" fill="white"/>
<defs>
<linearGradient id="paint0_linear_131_1407" x1="6.82512" y1="30.9505" x2="-11.582" y2="24.598" gradientUnits="userSpaceOnUse">
<stop stop-color="#3FC02F"/>
<stop offset="1" stop-color="#52E040"/>
</linearGradient>
<linearGradient id="paint1_linear_131_1407" x1="17.7061" y1="33.8216" x2="-4.34864" y2="21.5188" gradientUnits="userSpaceOnUse">
<stop stop-color="#3FC02F"/>
<stop offset="1" stop-color="#52E040"/>
</linearGradient>
<linearGradient id="paint2_linear_131_1407" x1="25.7762" y1="28.609" x2="4.11426" y2="13.6657" gradientUnits="userSpaceOnUse">
<stop stop-color="#3FC02F"/>
<stop offset="1" stop-color="#52E040"/>
</linearGradient>
</defs>
</svg>
