<svg xmlns="http://www.w3.org/2000/svg" fill="none" viewBox="0 0 24 24" stroke-width="1.5" stroke="currentColor">
  <path stroke-linecap="round" stroke-linejoin="round" d="M9 12.75L11.25 15 15 9.75M21 12c0 1.52-.26 2.97-.75 4.316-.49 1.346-1.19 2.56-2.09 3.644-1.01 1.19-2.21 2.15-3.59 2.88-1.38.73-2.88 1.09-4.47 1.09-1.59 0-3.09-.36-4.47-1.09-1.38-.73-2.58-1.69-3.59-2.88-1.01-1.19-1.71-2.41-2.09-3.644C3.26 14.97 3 13.52 3 12c0-1.52.26-2.97.75-4.316.49-1.346 1.19-2.56 2.09-3.644 1.01-1.19 2.21-2.15 3.59-2.88C10.91 1.36 12.41 1 14 1c1.59 0 3.09.36 4.47 1.09 1.38.73 2.58 1.69 3.59 2.88 1.01 1.19 1.71 2.41 2.09 3.644.49 1.346.75 2.796.75 4.316z" />
</svg>
